<?xml version="1.0" encoding="UTF-8"?>
<svg width="387px" height="294px" viewBox="0 0 387 294" version="1.1" xmlns="http://www.w3.org/2000/svg" xmlns:xlink="http://www.w3.org/1999/xlink">
    <!-- Generator: Sketch 53.2 (72643) - https://sketchapp.com -->
    <title>undraw_google_docs_jf93</title>
    <desc>Created with Sketch.</desc>
    <g id="Portfolio" stroke="none" stroke-width="1" fill="none" fill-rule="evenodd">
        <g id="Code-of-Ethics" transform="translate(-879.000000, -1467.000000)">
            <g id="undraw_google_docs_jf93" transform="translate(811.000000, 1417.000000)">
                <rect id="Rectangle" fill="#E6E8EC" fill-rule="nonzero" x="180" y="59.7145594" width="182" height="234"></rect>
                <rect id="Rectangle" fill="#3F3D56" fill-rule="nonzero" x="222" y="101.714559" width="93" height="1"></rect>
                <rect id="Rectangle" fill="#3F3D56" fill-rule="nonzero" x="222" y="108.714559" width="93" height="1"></rect>
                <rect id="Rectangle" fill="#3F3D56" fill-rule="nonzero" x="222" y="116.714559" width="93" height="1"></rect>
                <rect id="Rectangle" fill="#1800AD" fill-rule="nonzero" x="222" y="155.714559" width="93" height="1"></rect>
                <rect id="Rectangle" fill="#1800AD" fill-rule="nonzero" x="222" y="163.714559" width="93" height="1"></rect>
                <rect id="Rectangle" fill="#3F3D56" fill-rule="nonzero" x="222" y="170.714559" width="93" height="1"></rect>
                <rect id="Rectangle" fill="#3F3D56" fill-rule="nonzero" x="222" y="189.714559" width="93" height="1"></rect>
                <rect id="Rectangle" fill="#3F3D56" fill-rule="nonzero" x="222" y="196.714559" width="93" height="1"></rect>
                <rect id="Rectangle" fill="#3F3D56" fill-rule="nonzero" x="222" y="203.714559" width="93" height="1"></rect>
                <rect id="Rectangle" fill="#3F3D56" fill-rule="nonzero" x="222" y="222.714559" width="93" height="1"></rect>
                <rect id="Rectangle" fill="#1800AD" fill-rule="nonzero" x="222" y="229.714559" width="93" height="1"></rect>
                <rect id="Rectangle" fill="#3F3D56" fill-rule="nonzero" x="222" y="236.714559" width="93" height="1"></rect>
                <rect id="Rectangle" fill="#3F3D56" fill-rule="nonzero" x="222" y="255.714559" width="93" height="1"></rect>
                <rect id="Rectangle" fill="#3F3D56" fill-rule="nonzero" x="222" y="262.714559" width="93" height="1"></rect>
                <rect id="Rectangle" fill="#3F3D56" fill-rule="nonzero" x="222" y="269.714559" width="93" height="1"></rect>
                <path d="M375,310.714559 L179,310.714559 L179,50.7145594 L375,50.7145594 L375,310.714559 Z M179.873051,309.843538 L374.126949,309.843538 L374.126949,51.5855812 L179.873051,51.5855812 L179.873051,309.843538 Z" id="Shape" fill="#3F3D56" fill-rule="nonzero"></path>
                <path d="M331.003105,70.2145594 C331.003515,68.2510928 332.146073,66.4371364 334,65.4566083 C331.481223,64.1167237 328.27737,64.6314544 326.404587,66.6768868 C324.531804,68.7223191 324.531804,71.7067997 326.404587,73.752232 C328.27737,75.7976643 331.481223,76.312395 334,74.9725105 C332.146073,73.9919824 331.003515,72.178026 331.003105,70.2145594 L331.003105,70.2145594 Z" id="Path" fill="#3F3D56" fill-rule="nonzero"></path>
                <path d="M339.003105,70.2145594 C339.003515,68.2510928 340.146073,66.4371364 342,65.4566083 C339.481223,64.1167237 336.27737,64.6314544 334.404587,66.6768868 C332.531804,68.7223191 332.531804,71.7067997 334.404587,73.752232 C336.27737,75.7976643 339.481223,76.312395 342,74.9725105 C340.146073,73.9919824 339.003515,72.178026 339.003105,70.2145594 L339.003105,70.2145594 Z" id="Path" fill="#1800AD" fill-rule="nonzero"></path>
                <circle id="Oval" fill="#3F3D56" fill-rule="nonzero" cx="346.5" cy="70.2145594" r="5.5"></circle>
                <path d="M340.305709,310.714559 L339.845602,310.540278 C339.744496,310.501788 329.681672,306.606332 324.967807,297.773522 C320.253736,288.940301 322.561996,278.305076 322.585862,278.1989 L322.694504,277.714559 L323.154396,277.888836 C323.255502,277.927331 333.318117,281.822783 338.032192,290.655592 C342.746266,299.488813 340.438003,310.124043 340.414137,310.230214 L340.305709,310.714559 Z M325.722643,297.36236 C329.708045,304.830538 337.660008,308.658745 339.674793,309.532678 C340.057862,307.35081 341.259199,298.527742 337.277355,291.066755 C333.295931,283.606616 325.340831,279.772483 323.325209,278.896437 C322.941931,281.079573 321.741014,289.901797 325.722643,297.36236 Z" id="Shape" fill="#3F3D56" fill-rule="nonzero"></path>
                <path d="M329.142697,295.260117 C337.70311,300.325073 341,310.385475 341,310.385475 C341,310.385475 330.417716,312.233957 321.857303,307.169001 C313.29689,302.104044 310,292.043642 310,292.043642 C310,292.043642 320.582284,290.195164 329.142697,295.260117 Z" id="Path" fill="#1800AD" fill-rule="nonzero"></path>
                <path d="M215.999998,119.714565 C215.99621,137.026048 206.482437,152.935891 191.233706,161.131131 C190.672302,161.435761 190.102203,161.727335 189.523409,162.005853 C176.509481,168.309996 161.320142,168.282718 148.328941,161.931872 C147.223575,161.392222 146.14432,160.809074 145.091176,160.182428 C144.020624,159.555761 142.980536,158.881224 141.97091,158.16752 C128.465376,148.67177 120.931294,132.787032 122.122948,116.320399 C123.314602,99.8537653 133.05729,85.2193189 147.789313,77.7670733 C150.650108,76.3129498 153.654577,75.1607463 156.754093,74.329111 C158.120569,73.9592037 159.510255,73.6516729 160.923151,73.4065186 C163.590573,72.9439242 166.292945,72.712417 169.000182,72.7145743 C169.557217,72.7145743 170.1099,72.723278 170.662583,72.7493891 C171.067304,72.7580928 171.472024,72.7755002 171.876745,72.8016113 C176.107677,73.054496 180.284556,73.8816762 184.29253,75.2604072 C184.636325,75.3779071 184.98012,75.499759 185.319563,75.6259626 C186.503262,76.0611477 187.66085,76.5456538 188.792327,77.0794809 C205.388597,84.782154 216.00471,101.417861 215.999998,119.714565 Z" id="Path" fill="#3F3D56" fill-rule="nonzero"></path>
                <path d="M187.30777,72.0434389 C183.012101,61.8803156 172.077175,59.9609094 172.077175,59.9609094 C172.077175,59.9609094 161.548447,57.1444623 152.755568,70.5576684 C144.5599,83.0598804 133.991091,94.7733454 147.394445,99.7635867 L150.934946,92.307832 L151.359685,100.888201 C153.308722,101.295192 155.278512,101.594929 157.260219,101.786066 C172.127132,103.300492 186.141512,105.818553 186.401066,100.431187 C186.74612,93.2694573 191.441071,81.8224135 187.30777,72.0434389 Z" id="Path" fill="#2F2E41" fill-rule="nonzero"></path>
                <path d="M149,155.07344 L148.669226,157.725115 L148.040756,162.714559 C146.990549,162.202379 145.965151,161.648914 144.96456,161.054165 C143.947431,160.459396 142.959244,159.819195 142,159.14182 L142.099232,156.568621 L142.210868,153.714559 L146.800354,154.635624 L149,155.07344 Z" id="Path" fill="#FFB8B8" fill-rule="nonzero"></path>
                <path d="M198,157.30704 C195.898836,158.965973 193.660756,160.440526 191.310255,161.714559 L189.042839,153.794116 L188.744267,152.751149 L188,150.145912 L188.800519,150.01936 L196.996106,148.714559 L197.260108,150.961958 L198,157.30704 Z" id="Path" fill="#FFB8B8" fill-rule="nonzero"></path>
                <circle id="Oval" fill="#FFB8B8" fill-rule="nonzero" cx="172" cy="79.7145594" r="13"></circle>
                <path d="M163.17071,84.7145594 C163.17071,84.7145594 164.102721,101.304922 161.30669,102.280825 C158.510659,103.256728 175.752854,102.280825 175.752854,102.280825 C175.752854,102.280825 173.422828,92.0338373 175.752854,89.1061279 C178.08288,86.1784185 163.17071,84.7145594 163.17071,84.7145594 Z" id="Path" fill="#FFB8B8" fill-rule="nonzero"></path>
                <path d="M175.780486,99.139338 C175.780486,99.139338 163.414633,98.1835862 161.036586,99.139338 C158.658538,100.09509 152,104.873849 152,104.873849 L155.329267,134.980048 L182.439024,140.714559 L186.719514,134.502173 L191,125.422526 L189.097562,113.953495 L188.621952,107.263233 L175.780486,99.139338 Z" id="Path" fill="#D0CDE1" fill-rule="nonzero"></path>
                <path d="M149.941176,107.714559 C149.941176,107.714559 143.823532,109.14313 143.352944,113.905033 C142.882356,118.666936 142.882356,130.571701 143.352944,132.476462 C143.823532,134.381223 143.352944,135.333608 142.882356,135.809798 C142.411768,136.285989 141.470588,135.333608 142.411764,136.762179 C143.35294,138.19075 143.352944,138.19075 142.882356,139.61932 C142.411768,141.047891 141,139.14313 141.941176,141.524082 C142.882352,143.905033 143.352944,144.381228 142.882356,144.857418 C142.411768,145.333608 141,156.285989 141,156.285989 L149,157.714559 L157,129.61932 L149.941176,107.714559 Z" id="Path" fill="#D0CDE1" fill-rule="nonzero"></path>
                <path d="M187.387104,106.714559 C189.258454,106.817964 190.925802,107.918723 191.74194,109.589558 C193.193552,112.464557 197.064522,131.152059 196.580647,132.589563 C196.096771,134.027067 195.12903,132.110396 196.096771,134.985395 C197.064513,137.860394 196.096771,137.381228 196.580647,139.297893 C197.064522,141.214559 194.645159,139.297893 196.580647,141.214564 C198.516134,143.131234 199.483871,143.610396 198.516129,144.568729 C197.548388,145.527062 196.096771,143.610396 197.548388,145.527062 C199.000004,147.443728 199,150.318727 199,150.318727 L187.387099,152.714559 L184,125.881223 L187.387104,106.714559 Z" id="Path" fill="#D0CDE1" fill-rule="nonzero"></path>
                <path d="M188.81777,153.256399 L189.387284,162.014192 C176.386521,168.307171 161.212548,168.279941 148.23449,161.940342 C147.130242,161.401648 146.052079,160.819533 145,160.193996 C145.365184,158.851656 145.734716,157.51366 146.112943,156.201728 C146.382483,155.267737 146.654923,154.348227 146.93026,153.443197 C149.064849,146.462158 151.364641,140.523714 153.520967,138.216973 C153.520967,138.216973 153.520967,132.990968 154.473055,132.513113 C154.930681,132.15474 155.279831,131.676526 155.481659,131.131675 C155.836068,130.346878 156.135316,129.538357 156.37723,128.711987 L154.80346,125.054218 L147.76062,108.668108 C147.344479,107.695223 147.757745,106.566739 148.704012,106.092031 L151.038583,104.923456 C151.516286,104.686496 152.068798,104.649532 152.57385,104.820744 C153.078902,104.991957 153.494849,105.357229 153.729644,105.835726 L164.463454,127.760619 L176.353682,135.367215 L184.692057,131.66166 L184.913776,131.561745 C184.913776,131.561745 191.100172,122.056759 189.195997,117.304266 C188.383027,115.27555 187.487456,112.564805 186.71796,110.119052 C186.270175,108.676796 185.870211,107.325767 185.557196,106.265796 C185.456169,105.920894 185.581817,105.54968 185.87162,105.336865 C186.161423,105.12405 186.553488,105.115085 186.852731,105.314429 L188.474323,106.396121 C188.841883,106.642484 189.132649,106.987225 189.313377,107.39093 C189.388447,107.548659 189.443927,107.714971 189.47858,107.886162 L193,124.910861 L188.243909,134.889359 L188.243909,144.394346 L188.574314,149.498714 L188.748211,152.170363 L188.81777,153.256399 Z" id="Path" fill="#2F2E41" fill-rule="nonzero"></path>
                <polygon id="Path" fill="#2F2E41" fill-rule="nonzero" points="184.473537 68.3919369 173.420906 62.7145594 158.157895 65.0369657 155 78.7145594 162.860786 78.4183672 165.057026 73.3930449 165.057026 78.3353469 168.684064 78.1987093 170.789474 70.1984931 172.10519 78.7145594 185 78.4568506"></polygon>
                <ellipse id="Oval" fill="#FFB8B8" fill-rule="nonzero" cx="158.5" cy="80.2145594" rx="1.5" ry="2.5"></ellipse>
                <path d="M443.999978,198.214567 C443.999978,219.057752 429.844439,236.697629 410.33777,242.60053 C407.45767,243.477714 404.500912,244.083167 401.506662,244.408867 C399.67829,244.613035 397.839848,244.715092 395.999989,244.714557 C395.315527,244.714557 394.635525,244.70163 393.959951,244.667203 L393.951094,244.667203 C387.088408,244.401725 380.360052,242.693695 374.208859,239.655528 C369.887842,237.52086 365.91445,234.751508 362.422184,231.440522 C353.228299,222.807142 348.012345,210.79058 348,198.214567 C348,178.508029 360.653317,161.664696 378.519958,154.896373 C380.657771,154.083443 382.851577,153.424427 385.084412,152.92442 C393.311834,151.07537 401.877976,151.349561 409.968844,153.720938 C410.582219,153.893172 411.191065,154.086927 411.79111,154.293584 C411.79556,154.293584 411.800006,154.297893 411.804457,154.297893 C413.247901,154.780569 414.665985,155.335254 416.053318,155.959842 C416.528847,156.166502 417.004434,156.386087 417.471119,156.61862 C418.404384,157.06639 419.319929,157.547175 420.217753,158.060976 C420.564443,158.254731 420.906665,158.452765 421.244446,158.659456 C426.75806,161.959799 431.543003,166.335997 435.311065,171.524461 C438.73831,176.241733 441.227416,181.567102 442.644397,187.213905 C443.548401,190.811572 444.003685,194.506245 443.999978,198.214567 L443.999978,198.214567 Z" id="Path" fill="#1800AD" fill-rule="nonzero"></path>
                <path d="M447.875098,123.064659 L454.43415,121.055827 L455,115.381523 C455,115.381523 439.046954,109.462137 433.946725,119.932459 C432.145901,123.629382 429.876268,125.849623 427.693352,127.175051 C424.642407,128.954895 420.96232,129.266223 417.660001,128.023854 C406.603691,124.057494 404,135.336876 404,135.336876 C404,135.336876 404.955763,136.942507 411.771072,137.337285 C415.162804,137.533756 417.938082,140.040902 419.870463,142.510185 C424.008304,147.797757 432.507827,146.269635 434.594858,139.923273 C434.628484,139.820982 434.661604,139.717388 434.694217,139.612491 C437.954402,129.121708 452.796892,137.47442 452.796892,137.47442 L453.744428,127.972448 L447.875098,123.064659 Z" id="Path" fill="#2F2E41" fill-rule="nonzero"></path>
                <circle id="Oval" fill="#2F2E41" fill-rule="nonzero" cx="403" cy="140.714559" r="8"></circle>
                <ellipse id="Oval" fill="#2F2E41" fill-rule="nonzero" cx="399.5" cy="160.714559" rx="21.5" ry="21"></ellipse>
                <circle id="Oval" fill="#A0616A" fill-rule="nonzero" cx="398.5" cy="168.214559" r="14.5"></circle>
                <path d="M393,179.492334 L395.666669,193.714559 L409,191.93678 C409,191.93678 406.777779,180.825669 408.111113,177.714559 L393,179.492334 Z" id="Path" fill="#A0616A" fill-rule="nonzero"></path>
                <path d="M418.950371,149.229653 C418.950371,149.229653 408.229887,141.361283 403.763016,144.421204 C399.296146,147.481125 415.823575,157.535168 417.61031,156.660895 C419.397044,155.786622 418.950371,149.229653 418.950371,149.229653 Z" id="Path" fill="#A0616A" fill-rule="nonzero"></path>
                <path d="M428.999669,207.774517 C429.001053,207.847105 428.998095,207.919712 428.990811,207.991941 L428.990811,207.996293 C428.716462,214.249358 417.003356,233.386876 410.246314,242.579471 C407.378779,243.465394 404.434921,244.076877 401.453733,244.405821 C399.633338,244.612024 397.802916,244.715097 395.971084,244.714557 C395.289609,244.714557 394.612573,244.701501 393.939947,244.666732 L393.931106,244.666732 C387.709511,242.692517 380.319636,240.100862 374.929898,238.057088 C372.389921,237.087367 370.292451,236.243758 368.973794,235.643704 C368.482858,235.440512 368.011772,235.19157 367.566657,234.900112 C365.34084,233.147674 370.239351,231.834461 372.465168,231.399618 C374.690929,230.960423 371.575729,226.151042 371.575729,226.151042 C363.561961,217.836816 373.354608,210.840154 373.354608,210.840154 C373.354608,210.840154 377.359248,202.525928 377.359248,200.338673 C377.370065,200.176392 377.430366,200.021458 377.531885,199.895112 C379.208943,197.564349 392.497396,193.341998 392.497396,193.341998 L392.497396,186.341036 L393.873579,186.114913 L407.414234,183.897214 L408.520495,183.714559 L410.746312,187.215053 L420.543386,188.528292 C420.543386,188.528292 428.999669,199.903843 428.999669,207.774517 Z" id="Path" fill="#D0CDE1" fill-rule="nonzero"></path>
                <path d="M387,208.472776 C387,208.472776 381.173572,224.161943 375.85241,236.876328 C375.667897,237.320218 375.483329,237.759806 375.30316,238.195152 C375.08346,238.70732 374.868161,239.215185 374.652861,239.714559 C370.380901,237.59851 366.452618,234.853313 363,231.571206 C365.390354,224.021108 369.18237,212.023757 370.645545,207.188103 C372.258176,201.857373 375.988647,200.880009 377.886879,200.739161 C378.271395,200.703716 378.658497,200.706578 379.042444,200.747704 L387,208.472776 Z" id="Path" fill="#D0CDE1" fill-rule="nonzero"></path>
                <path d="M419.745391,190.593325 L421.067245,189.28107 C421.067245,189.28107 437.810717,171.346948 437.370104,166.972793 C437.370104,166.972793 428.55775,156.037351 417.542308,159.099273 C417.542308,159.099273 412.695512,147.288999 420.186012,147.726417 C427.676512,148.163835 455.43543,146.414163 454.994813,159.099273 C454.554197,171.784383 428.117133,210.714559 428.117133,210.714559 L419.745391,190.593325 Z" id="Path" fill="#D0CDE1" fill-rule="nonzero"></path>
                <path d="M402,244.399984 C400.168669,244.610085 398.327251,244.715107 396.484415,244.714557 C395.798845,244.714557 395.117742,244.701254 394.441075,244.665828 L394.432203,244.665828 C387.55841,244.392636 380.819164,242.634977 374.658015,239.508533 C372.698825,238.514741 370.808412,237.385244 369,236.12794 L369.324962,235.47221 L369.324962,235.467776 L369.703392,234.714559 L375.873303,236.562136 L402,244.399984 Z" id="Path" fill="#2F2E41" fill-rule="nonzero"></path>
                <ellipse id="Oval" fill="#2F2E41" fill-rule="nonzero" transform="translate(399.057115, 157.611189) rotate(-72.248620) translate(-399.057115, -157.611189) " cx="399.057115" cy="157.611189" rx="9.14023089" ry="14.67066"></ellipse>
                <path d="M68.0000029,296.714475 C67.9991529,299.130034 68.1824526,301.542143 68.5483085,303.929832 C70.3070915,315.210126 76.1068819,325.466203 84.8669271,332.78691 C85.1062668,332.987095 85.3499582,333.18728 85.5980012,333.383113 C86.1114937,333.796518 86.6336895,334.198338 87.1645886,334.588574 C87.9304758,335.154313 88.7137695,335.695393 89.5144697,336.211811 C102.285582,344.440593 118.242811,345.999607 132.364986,340.398285 C132.69571,340.26773 133.026434,340.132823 133.352807,339.993564 C133.875002,339.77162 134.388495,339.540972 134.901987,339.297269 C136.203125,338.692363 137.472351,338.02653 138.709665,337.299772 C139.984693,336.555607 141.217655,335.754868 142.408552,334.897555 C142.952506,334.505889 143.479053,334.109871 144.005601,333.696446 L144.014304,333.692094 C150.977028,328.223618 156.258539,320.904252 159.253718,312.572595 L159.253718,312.568243 C166.625138,291.926857 158.771959,268.929203 140.315417,257.108342 C139.902012,256.847232 139.484256,256.586121 139.062147,256.342418 C138.626984,256.072604 138.183118,255.820197 137.7349,255.576493 C131.702597,252.228883 125.002328,250.262404 118.117744,249.819004 C117.086408,249.749374 116.046368,249.714559 114.997624,249.714559 C114.945405,249.714559 114.893185,249.714559 114.840966,249.718911 C113.431037,249.718911 112.038515,249.784189 110.663399,249.914744 C86.4897856,252.153261 67.9994719,272.436262 68.0000029,296.714475 L68.0000029,296.714475 Z" id="Path" fill="#3F3D56" fill-rule="nonzero"></path>
                <path d="M164,312.979041 C164,312.979041 177.808419,298.873097 181.490664,307.518671 C185.17291,316.164245 167.682246,320.714559 167.682246,320.714559 L164,312.979041 Z" id="Path" fill="#FFB8B8" fill-rule="nonzero"></path>
                <path d="M86,333.569906 C86.5103266,333.975837 87.0293027,334.370392 87.5569285,334.753572 C88.3180936,335.309083 89.0965578,335.84038 89.8923213,336.347462 C102.584693,344.427467 118.443537,345.958293 132.478641,340.458244 C132.807326,340.330049 133.136011,340.197581 133.460371,340.06084 C133.979347,339.842909 134.489673,339.616431 135,339.377134 L133.80203,337.676415 C132.933427,336.873133 131.960458,336.187679 130.908764,335.638117 C122.713265,331.241033 107.278049,331.377774 96.8336535,332.099938 C95.3459218,332.202494 93.9619853,332.31787 92.7164425,332.433245 C91.9379783,332.501616 91.2114117,332.574259 90.549717,332.64263 C90.2815793,332.672542 90.0264161,332.698181 89.7842272,332.72382 C87.4531592,332.98021 86.0562484,333.181049 86.0562484,333.181049 L86,333.569906 Z" id="Path" fill="#2F2E41" fill-rule="nonzero"></path>
                <circle id="Oval" fill="#FFB8B8" fill-rule="nonzero" cx="126" cy="256.714559" r="13"></circle>
                <path d="M117.418074,261.714559 L107.759574,271.868409 L105,287.560715 L129.376201,291.714559 L127.536488,277.40687 C127.536488,277.40687 127.996414,270.483793 129.836131,269.099177 C131.675849,267.71456 117.418074,261.714559 117.418074,261.714559 Z" id="Path" fill="#FFB8B8" fill-rule="nonzero"></path>
                <g id="Group" transform="translate(0.000000, 0.714559)"></g>
                <path d="M89,335.064977 C89.8045265,334.806453 90.6217635,334.589324 91.4484986,334.414445 C93.5291027,333.961926 95.6451752,333.691668 97.7726955,333.606739 C102.807507,333.341392 107.830618,334.31427 112.402584,336.440262 C119.089036,339.649259 127.023743,340.522456 132.479399,340.688363 C132.876571,340.701461 133.260649,340.710193 133.62727,340.714559 C134.151013,340.491894 134.666027,340.260497 135.181041,340.016002 C136.486034,339.40913 137.75902,338.741135 139,338.012016 L138.982542,336.396602 L138.694483,304.437604 L138.694483,304.433238 L138.559183,289.156663 L129.843226,279.058143 L127.604225,276.534605 L126.539281,277.490755 L120.206355,283.192729 L110.975384,274.639768 L107.815468,271.714559 L92.6574721,322.75727 L90.7021648,329.341173 L89.5499302,333.218166 L89.3709846,333.81194 L89.3709846,333.816306 L89,335.064977 Z" id="Path" fill="#575A89" fill-rule="nonzero"></path>
                <path d="M124.001498,290.196741 C124.023425,292.4886 124.215345,294.775643 124.575666,297.038923 C126.141578,307.070923 127.485652,323.748741 130.813215,335.792378 C131.24819,337.380741 131.722314,338.881832 132.235585,340.282559 L132.392176,340.714559 C132.722758,340.58365 133.053339,340.448378 133.379571,340.308741 C133.901541,340.086196 134.414812,339.854923 134.928083,339.610559 C136.22866,339.004014 137.497339,338.336378 138.734119,337.60765 C140.008598,336.861468 141.241028,336.058559 142.431411,335.198923 L142.292219,334.649105 L142.292219,334.644741 L140.126041,325.94365 C140.126041,325.94365 141.517963,318.660741 142.6315,310.513832 L142.6315,310.509468 C143.910328,301.184378 144.823777,290.737832 142.870737,288.778559 L127.546549,274.714559 L127.542199,274.718923 C127.064756,275.481746 126.654333,276.28477 126.315568,277.118923 C125.271627,279.601832 123.949301,283.982923 124.001498,290.196741 Z" id="Path" fill="#D0CDE1" fill-rule="nonzero"></path>
                <path d="M76,323.790268 C78.4405172,327.329338 81.3537461,330.519868 84.6591158,333.27362 C84.9002558,333.474742 85.1457801,333.675864 85.3956887,333.872614 C85.9130435,334.287955 86.439167,334.691657 86.9740592,335.08372 C87.745707,335.652109 88.5348922,336.195722 89.3416149,336.714559 C89.9378882,335.888209 90.5385459,335.048742 91.1392035,334.204903 C91.4943369,333.710863 91.8494702,333.212429 92.2046036,332.709603 C92.765802,331.913859 93.3270267,331.113742 93.87943,330.309253 C93.9495798,330.213064 94.0153453,330.116875 94.0811107,330.020686 C94.7826087,329.010702 95.475338,327.996347 96.1505298,326.986363 C101.131166,319.566701 105.261235,312.44435 105.734746,308.190177 C106.304713,303.096537 107.457801,295.217791 108.628425,287.693195 C109.382536,282.80505 110.145415,278.06556 110.754841,274.344798 C111.491414,269.82392 112,266.798341 112,266.798341 C112,266.798341 87.842163,264.389247 84.4574351,266.754619 L84.4530508,266.754619 C84.2565448,266.867096 84.1177078,267.058065 84.0716113,267.279286 C83.7033248,269.841409 85.6762879,293.652513 86.4917793,303.271404 L86.4917793,303.275776 C86.7022287,305.74171 86.838144,307.271988 86.838144,307.271988 C86.838144,307.271988 85.4570698,309.112694 83.4314943,312.063944 C81.3664596,315.076428 78.6262331,319.243156 76,323.790268 Z" id="Path" fill="#D0CDE1" fill-rule="nonzero"></path>
                <path d="M141.915759,301.714559 L144.224032,319.675087 L164.536837,310.925085 L171,324.28035 L137.760848,336.714559 C137.760848,336.714559 131.759359,304.938243 141.915759,301.714559 Z" id="Path" fill="#D0CDE1" fill-rule="nonzero"></path>
                <path d="M139.150342,259.007547 C139.150342,259.007547 140.920838,257.102023 140.74164,254.71653 C140.62356,253.359549 140.710651,251.992588 141,250.661393 C141,250.661393 140.445868,246.756968 139.627645,244.493801 C138.809422,242.230633 139.499192,241.443028 135.981972,240.207481 C132.464752,238.971933 134.703862,234.503879 124.334048,238.065195 C123.527566,238.87685 122.31027,239.125093 121.248734,238.694382 C119.334252,237.995572 118.180516,240.616955 118.180516,240.616955 C118.180516,240.616955 116.986355,239.640469 116.316275,240.655681 C115.646194,241.670894 112.405394,239.357009 111.217015,246.742665 C110.028636,254.128322 114.108311,260.714559 114.108311,260.714559 C114.108311,260.714559 114.680743,248.895751 121.415323,248.681492 C128.149903,248.467234 135.765827,245.924762 136.710429,250.901696 C137.204083,253.689163 138.022943,256.40957 139.150342,259.007547 Z" id="Path" fill="#2F2E41" fill-rule="nonzero"></path>
                <path d="M85,333.546379 C85.2342448,333.74807 85.4727485,333.949761 85.7155113,334.147068 C86.2180727,334.563584 86.7291522,334.968428 87.2487496,335.3616 C87.9983329,335.931597 88.7649521,336.476748 89.5486072,336.997052 C93.3220959,339.510519 97.43514,341.437097 101.754888,342.714559 C102.811119,339.925959 100.281276,336.457748 97.4661012,333.669148 C97.1083456,333.313996 96.742072,332.967613 96.3843164,332.638769 C95.5325173,331.862696 94.6934951,331.161161 93.9566889,330.573626 C93.9226169,330.547319 93.892804,330.525396 93.862991,330.499088 C92.4702995,329.394171 91.4609175,328.714559 91.4609175,328.714559 L90.5665285,329.385402 L85,333.546379 Z" id="Path" fill="#FFB8B8" fill-rule="nonzero"></path>
                <path d="M68,304.07536 C69.7867109,315.348464 75.6785969,325.598003 84.5777439,332.914044 C84.8208841,333.114102 85.0684451,333.314159 85.3204268,333.509867 C85.8420732,333.923008 86.372561,334.324572 86.9118902,334.714559 L89.0073171,333.244574 L89.0073171,333.240225 L89.9710366,332.566119 L93.7772866,329.891441 L94.0778963,329.678336 L97,327.625575 L96.1644817,326.660082 L92.336128,322.228379 L83.339939,311.816705 L81.1958841,309.337735 L86.4256098,303.075074 L86.4256098,303.070725 L91.8852134,296.534073 L87.2390244,267.26918 C86.3591482,266.815977 85.3608809,266.634109 84.3743902,266.747292 L84.3699695,266.747292 C83.3178354,266.925603 82.2435976,267.638851 81.660061,269.552442 C80.6035061,273.018651 72.0714939,294.081197 68,304.07536 Z" id="Path" fill="#D0CDE1" fill-rule="nonzero"></path>
            </g>
        </g>
    </g>
</svg>