<?xml version="1.0" encoding="UTF-8"?>
<svg width="232px" height="184px" viewBox="0 0 232 184" version="1.1" xmlns="http://www.w3.org/2000/svg" xmlns:xlink="http://www.w3.org/1999/xlink">
    <!-- Generator: Sketch 53.2 (72643) - https://sketchapp.com -->
    <title>undraw_gradma_wanr (2)</title>
    <desc>Created with Sketch.</desc>
    <g id="Portfolio" stroke="none" stroke-width="1" fill="none" fill-rule="evenodd">
        <g id="Code-of-Ethics" transform="translate(-929.000000, -668.000000)" fill-rule="nonzero">
            <g id="undraw_gradma_wanr-(2)" transform="translate(929.000000, 668.000000)">
                <path d="M194.516298,105.822172 L195.558641,105.179136 L195.857854,104.986712 C191.255425,104.201915 187.821765,100.344023 187.602502,95.7114051 C187.526602,94.1644632 187.821645,92.6217311 188.463354,91.210153 C189.669497,88.5391263 192.00418,86.5352656 194.840037,85.7370396 L194.810606,89.809601 L197.062066,85.3789854 L197.089045,85.3789854 C199.725436,85.2566269 202.302768,86.1795324 204.253919,87.9446241 C206.20507,89.7097159 207.370171,92.172368 207.492849,94.7906944 C207.492849,94.9782466 207.492849,95.1657988 207.492849,95.3509152 C208.28634,94.4917467 208.947513,93.5207456 209.454905,92.4694318 C210.406503,90.3552073 210.435934,87.9633082 210.350094,85.0574674 C210.200487,79.2945007 209.950325,73.4876906 209.614323,67.7003664 C204.758063,67.1622926 201.01529,63.199459 200.785068,58.3519867 C200.770353,58.0499547 200.785068,57.7503583 200.785068,57.4556335 C200.785068,57.3801255 200.785068,57.3070532 200.785068,57.2339809 C200.802236,56.9465633 200.831667,56.6615814 200.873361,56.3814711 C200.873361,56.335192 200.892982,56.2913486 200.900339,56.2450695 C200.93958,56.0079905 200.988632,55.7741593 201.047494,55.5435756 C201.067114,55.4558889 201.089187,55.3706379 201.113713,55.2829512 C201.182385,55.0393769 201.260867,54.7811882 201.35897,54.537614 C201.388401,54.4572345 201.422737,54.376855 201.45462,54.2940397 C201.524927,54.1137948 201.600957,53.9359856 201.682709,53.7606121 C201.726856,53.6680539 201.768549,53.5754957 201.812696,53.4853732 C201.812696,53.4634516 201.834769,53.4390941 201.847032,53.4147367 L201.847032,53.4147367 C204.015077,49.1644037 208.929369,47.0570698 213.531078,48.4044144 L213.462406,53.7021543 L215.691792,49.3178178 C219.446735,51.4561929 221.367777,55.7691035 220.435064,59.966884 L220.435064,59.966884 C220.420349,60.0375205 220.398275,60.1057213 220.381107,60.1739221 C220.351677,60.3054522 220.317341,60.4345466 220.280552,60.5636409 C220.233953,60.7292714 220.182449,60.8900304 220.12604,61.0507894 C220.084346,61.1725765 220.045105,61.2943637 219.998506,61.4137151 C219.929834,61.5890885 219.853805,61.7595905 219.777775,61.9300925 C219.731176,62.0299579 219.691935,62.1322591 219.642884,62.2296888 C219.517803,62.473263 219.380459,62.7338875 219.233304,62.9774617 C219.1818,63.0627127 219.122939,63.1430922 219.068982,63.221036 C218.961069,63.3842307 218.855609,63.5474255 218.737885,63.7081845 C218.666761,63.8056142 218.590731,63.8981724 218.514701,63.9931664 C218.406788,64.1295679 218.296422,64.2659695 218.178699,64.3950639 C218.060976,64.5241582 218.011924,64.5801803 217.933442,64.6703028 C217.85496,64.7604252 217.688185,64.913877 217.558199,65.0429714 C217.472359,65.1233509 217.386519,65.2061661 217.298226,65.2865456 C217.151072,65.41564 216.99656,65.5301199 216.842048,65.6592142 C216.763566,65.7201078 216.687536,65.7834371 216.596791,65.8418949 C216.351534,66.0148326 216.11854,66.1780274 215.86102,66.3290434 C215.814421,66.3582723 215.76537,66.3826297 215.716318,66.4094229 C215.50785,66.53121 215.292023,66.6529972 215.073745,66.7552983 C214.980547,66.8015774 214.882444,66.8405493 214.786794,66.8843927 C214.605304,66.9647722 214.423814,67.042716 214.239871,67.1133525 C214.131958,67.1547601 214.021592,67.1912962 213.911226,67.2278324 C213.729736,67.2911617 213.543341,67.3471838 213.356945,67.3983344 C213.244127,67.429999 213.133761,67.4592279 213.020943,67.4860211 C212.81738,67.5347359 212.611364,67.5737078 212.400443,67.610244 L212.361202,67.610244 C212.498546,70.0459864 212.620357,72.4890362 212.726635,74.9393931 C213.925275,72.4945398 216.086043,70.6488018 218.699375,69.8374508 C221.312707,69.0260999 224.147272,69.3209566 226.534607,70.6524863 L224.776114,75.4362846 L228.393656,71.9872732 C230.332902,73.7477937 231.489329,76.2007149 231.608976,78.8073522 C231.657232,79.7220221 231.574658,80.6388671 231.363719,81.5305123 C230.433952,85.4751679 227.172958,88.4559342 223.137717,89.0496259 C219.102476,89.6433175 215.111377,87.729528 213.069995,84.2220078 C213.069995,84.465582 213.087163,84.7091562 213.09452,84.9649092 C213.16074,87.5321818 213.244127,90.7230045 211.956527,93.5728232 C211.083412,95.5068027 209.678089,97.0754209 208.292387,98.4808443 C207.388206,99.3966835 206.455412,100.282482 205.494004,101.138239 C204.558154,102.400031 203.334359,103.423437 201.923061,104.12446 C200.346876,105.32934 198.711829,106.457901 197.01792,107.510142 L195.963315,108.160485 C195.016622,108.742627 194.045404,109.34182 193.093807,109.96537 C193.260582,109.94832 193.427357,109.928834 193.596584,109.921527 C197.924057,109.720037 201.885906,112.321151 203.394604,116.354323 L197.177337,121.376824 L204.015104,119.803334 C204.00954,123.199029 202.250086,126.354409 199.354904,128.160875 C196.459722,129.967342 192.833761,130.172223 189.750953,128.703537 L190.212037,129.273501 C190.518608,129.651041 190.822727,130.026145 191.119488,130.398814 C195.166229,135.48708 196.289507,140.317157 194.288209,144 L191.867522,142.694442 C193.817315,139.109029 190.886494,134.52009 188.963678,132.103834 C188.671822,131.736037 188.372609,131.373111 188.073395,130.998007 C185.490838,127.80962 182.547754,124.194978 182.623783,119.759491 C182.731696,113.075813 189.265344,109.054402 194.516298,105.822172 Z" id="Path" fill="#F2F2F2"></path>
                <path d="M152.778156,63.2761155 L152.250352,62.1694042 C152.20193,62.0641197 152.155929,61.9563868 152.105085,61.8486538 C156.339345,63.6275654 161.227307,62.2064449 163.880871,58.4249752 C166.534435,54.6435056 166.247236,49.5082953 163.188968,46.0535338 L161.060804,49.535267 L161.545028,44.5722057 C161.538231,44.5659111 161.530944,44.5601795 161.523238,44.5550664 C159.391728,43.0403654 156.752524,42.4440243 154.186236,42.8972349 C151.619948,43.3504456 149.3368,44.8160823 147.839073,46.9717124 C147.730123,47.1259664 147.635699,47.2875658 147.538855,47.4467168 C147.33392,46.2919426 147.299651,45.1127972 147.437168,43.9478443 C147.768861,41.6438282 149.027843,39.6042475 150.640308,37.1778076 C153.836185,32.3690003 157.138591,27.5773323 160.496683,22.8419794 C164.832015,24.9887809 170.06732,23.6298693 172.84439,19.636924 C173.018711,19.3920764 173.173663,19.1325379 173.328614,18.8754479 C173.364931,18.8117875 173.401248,18.7456787 173.435143,18.6795698 C173.573147,18.4347222 173.701466,18.1702868 173.815259,17.9107483 L173.866103,17.780979 C173.958105,17.5581677 174.042844,17.3329079 174.108214,17.1051996 C174.137268,17.0195029 174.166321,16.9362547 174.190533,16.860352 C174.268008,16.6155044 174.3358,16.3559659 174.391485,16.1013244 C174.410854,16.0156277 174.425381,15.929931 174.442329,15.8564767 C174.478646,15.6654956 174.51012,15.472066 174.534331,15.2810848 C174.548858,15.1782488 174.563385,15.0778613 174.573069,14.9774738 C174.573069,14.9505405 174.573069,14.9260558 174.573069,14.8991225 L174.573069,14.8991225 C175.045446,10.1294372 172.078152,5.7003376 167.522771,4.37557179 L164.755432,8.90770125 L165.239656,4.01074884 C160.97104,3.80986543 157.069838,6.4413775 155.613286,10.5041077 L155.613286,10.5041077 C155.589075,10.5726651 155.572127,10.6412224 155.547916,10.7097797 C155.504336,10.8371005 155.463177,10.9546274 155.424439,11.0941905 C155.385701,11.2337537 155.334858,11.4247348 155.293699,11.5838858 C155.264645,11.708758 155.233171,11.8287334 155.206538,11.9609511 C155.170222,12.1445868 155.143589,12.330671 155.116957,12.5167552 C155.100009,12.6244881 155.08064,12.7322211 155.068535,12.839954 C155.03706,13.1239773 155.017691,13.410449 155.012849,13.6944722 C155.012849,13.7948598 155.012849,13.8952473 155.012849,13.9956348 C155.012849,14.1915129 155.012849,14.387391 155.029797,14.5808206 C155.029797,14.7032444 155.051587,14.8256683 155.066114,14.9431951 C155.083061,15.1170369 155.10243,15.2933272 155.129063,15.4647205 C155.148432,15.5895928 155.170222,15.7095682 155.194433,15.831992 C155.228329,16.0058338 155.267066,16.1796756 155.308225,16.3510689 C155.337279,16.4661473 155.366332,16.5812257 155.397807,16.6963041 C155.451071,16.8823883 155.514021,17.0684725 155.579391,17.2545567 C155.610865,17.3475987 155.639919,17.4430893 155.676236,17.5361314 C155.780344,17.8079123 155.894136,18.0772447 156.022456,18.3392316 C156.046667,18.3882011 156.07572,18.4371707 156.102352,18.4861402 C156.211303,18.7016061 156.327517,18.9146235 156.453415,19.122744 C156.506679,19.2108891 156.567207,19.2990343 156.622893,19.3871794 C156.731843,19.5512273 156.840794,19.7128268 156.957007,19.8768747 C157.02722,19.9699168 157.097432,20.0605104 157.170066,20.151104 C157.288701,20.3004611 157.412178,20.4473696 157.542918,20.5918297 C157.617973,20.6775264 157.693028,20.7632231 157.772925,20.8366773 C157.918192,20.9860344 158.070722,21.1304945 158.225674,21.2725061 L158.254727,21.3018878 C156.83918,23.2998444 155.434931,25.3067787 154.04198,27.3226908 C154.343826,24.608388 153.526063,21.8882749 151.781358,19.8032214 C150.036654,17.7181678 147.519287,16.4525483 144.822359,16.3045479 L143.737698,21.3067848 L142.561034,16.444111 C140.006082,16.898836 137.734597,18.3618609 136.246756,20.51103 C135.720025,21.2634936 135.301823,22.0879118 135.004722,22.9595062 C133.680711,26.8018982 134.809007,31.0723349 137.851667,33.7347849 C140.894328,36.3972349 145.23537,36.9126884 148.8051,35.0353909 C148.667096,35.2435114 148.526671,35.4491834 148.388667,35.6548554 C146.965049,37.797272 145.195211,40.4612142 144.756989,43.5683305 C144.454349,45.6764685 144.788463,47.7576733 145.19279,49.689521 C145.459113,50.9496701 145.764174,52.2008414 146.107973,53.443035 C146.224341,55.015639 146.708101,56.5378617 147.519486,57.8845709 C148.192557,59.7503097 148.947946,61.5866669 149.795337,63.3789515 L150.325563,64.4930081 C150.809786,65.4944349 151.29401,66.5227949 151.756444,67.5609488 C151.625703,67.4581128 151.497384,67.3528284 151.35938,67.2548893 C147.86079,64.768396 143.174022,64.8545188 139.767063,67.4679067 L142.2705,75.058183 L137.411314,70.0632915 C135.606618,72.9466662 135.391327,76.5648952 136.841106,79.646318 C138.290885,82.7277408 141.20287,84.8411787 144.553615,85.243844 L143.866017,85.4886916 L142.51019,85.9587991 C136.428339,88.1110097 132.915296,91.6074337 132.62234,95.8041219 L135.34852,96 C135.634212,91.9134932 140.522452,89.5898893 143.413268,88.5688747 C143.85149,88.4121722 144.296976,88.2603667 144.744883,88.1061127 C148.596884,86.7839356 152.976688,85.2854681 155.267066,81.4829846 C158.726845,75.7388594 155.424439,68.8292595 152.778156,63.2761155 Z" id="Path" fill="#F2F2F2"></path>
                <path d="M51.1341013,45.1064719 L49.9133397,45.0158868 L49.5617603,44.9816113 C53.2347375,42.1625599 54.4723652,37.1693898 52.5429608,32.9540506 C50.6135564,28.7387115 46.0311021,26.424145 41.5047334,27.3787171 L43.4433029,30.9800881 L39.3976988,28.0789157 C39.3888878,28.0814786 39.3806148,28.0856264 39.3732835,28.0911569 C36.9914832,29.2032019 35.1480074,31.2187745 34.2486669,33.6941796 C33.3493265,36.1695846 33.4678447,38.9019014 34.5781318,41.2896552 C34.6562605,41.4610325 34.7490384,41.6226167 34.8369332,41.7793045 C33.7355979,41.3819515 32.698938,40.8234186 31.7606138,40.1218415 C29.9245883,38.6945136 28.8039291,36.5694354 27.5099218,33.9498114 C24.9609714,28.7497353 22.4803837,23.4639705 20.0779248,18.1610681 C24.1121988,15.4322034 25.5705772,10.1679983 23.5180311,5.74356051 C23.3910719,5.46690863 23.2470221,5.20494622 23.0980891,4.94543207 L22.9857791,4.75446882 C22.8344046,4.50964414 22.6781471,4.26481947 22.509682,4.03958077 C22.4828253,4.00040882 22.4510855,3.96613336 22.4242287,3.92940966 C22.2777373,3.73599817 22.1239213,3.54993141 21.9676638,3.3712094 L21.7869911,3.17045317 C21.6087599,2.97948992 21.4256457,2.79342317 21.2327653,2.6171494 C21.1692857,2.55839148 21.1009231,2.50453005 21.0374435,2.44577213 C20.8909521,2.3184633 20.7395776,2.20094745 20.5857616,2.07608687 C20.5051914,2.0148807 20.4270626,1.95122628 20.3416093,1.89246836 L20.2781297,1.84350342 L20.2781297,1.84350342 C16.3903594,-0.936146165 11.0776216,-0.535537982 7.64812961,2.79587141 L10.1726647,7.48181571 L6.171008,4.62226349 C3.85071926,8.26331844 4.16236679,12.9945562 6.94008785,16.2979523 L6.94008785,16.2979523 C6.98647679,16.354262 7.03774878,16.4032269 7.08413772,16.4570883 C7.17203256,16.5599147 7.26236892,16.6602928 7.35514681,16.7557744 C7.44792469,16.8512561 7.59929914,17.0005991 7.71649226,17.1205632 C7.83368538,17.2405273 7.90204803,17.2992852 7.99970896,17.3849738 C8.14131732,17.5073862 8.28780871,17.6297985 8.43430011,17.7399696 C8.51975343,17.8085205 8.60276522,17.8795197 8.69066006,17.9456224 C8.92016325,18.1145514 9.15699101,18.2712392 9.40114334,18.4205822 C9.48659666,18.4719954 9.5744915,18.5160638 9.66238634,18.5650288 C9.83085145,18.6629587 10.0017581,18.7584403 10.1775478,18.8441289 C10.2874163,18.8979903 10.3972849,18.944507 10.5071534,18.993472 C10.6682939,19.0669194 10.826993,19.1354703 10.9954581,19.1966764 C11.1126512,19.2431931 11.2274028,19.2848133 11.3470374,19.3239853 C11.513061,19.3827432 11.6815261,19.4341564 11.8499912,19.4831213 L12.194246,19.5761547 C12.3846848,19.6226714 12.5751237,19.6618433 12.768004,19.6961188 C12.8656649,19.7157048 12.9608843,19.737739 13.0585453,19.7524285 C13.346645,19.7964969 13.6371863,19.8307724 13.9301691,19.8479101 C13.9838826,19.8479101 14.0400376,19.8479101 14.0961927,19.8479101 C14.340345,19.8479101 14.5844973,19.8625996 14.8286497,19.8479101 C14.9311936,19.8479101 15.0361792,19.8356688 15.1411647,19.8283241 C15.3364865,19.8283241 15.5342499,19.8013934 15.7295718,19.7793592 L16.071385,19.7303942 C16.2618239,19.7010153 16.4522627,19.6642916 16.64026,19.6226714 C16.75257,19.6006372 16.8648801,19.5761547 16.9771902,19.5467757 C17.1798366,19.4953625 17.3800415,19.4341564 17.5802464,19.370502 L17.6217523,19.3582607 C18.6357984,21.5959583 19.6644935,23.8271271 20.7078378,26.0517674 C18.5138539,24.4341637 15.7522743,23.7941816 13.0729488,24.2824205 C10.3936233,24.7706594 8.03315418,26.3440046 6.54700259,28.6322194 L10.3240392,32.0793509 L5.49958909,30.6936432 C4.60864855,33.1599876 4.73071491,35.880141 5.83896083,38.2562775 C6.22370363,39.0920259 6.72518134,39.8685716 7.32829005,40.5625259 C9.98319055,43.6440564 14.2455393,44.7872935 18.0801177,43.4463556 C21.9146961,42.1054178 24.5437489,38.552283 24.711936,34.4835292 C24.8193631,34.7087679 24.9267901,34.9340066 25.0366586,35.1592453 C26.171967,37.4728385 27.5831675,40.3544249 30.044223,42.2958846 C31.7142249,43.6105931 33.6796512,44.3573084 35.5571826,44.9669218 C36.7795719,45.3635378 38.0141689,45.7201657 39.2609735,46.0368057 C40.6785532,46.7194596 42.2374368,47.0550852 43.8095314,47.0161044 C45.76275,47.3588589 47.7281763,47.6134766 49.7033687,47.7628196 L50.9241303,47.8534047 C52.0301404,47.9341969 53.1654487,48.0174373 54.2934325,48.1300566 C54.1396165,48.193711 53.983359,48.2549172 53.8319846,48.3259164 C49.921831,50.155786 47.6418782,54.3123903 48.1945073,58.6036563 L56.0073819,60.1974649 L49.2468038,61.9626508 C50.8298938,64.9848493 53.849493,66.9803734 57.2434445,67.247289 C60.6373961,67.5142046 63.9303191,66.0151255 65.9639139,63.2773593 C65.917525,63.522184 65.8711361,63.7670087 65.8223056,63.9995921 C65.7295277,64.4892415 65.6343083,64.9519601 65.5464135,65.4220235 C64.3476255,71.826637 65.6025685,76.6472349 69.0817392,79 L70.6223404,76.708441 C67.2359476,74.4193303 67.6925124,68.9744295 68.2565043,65.9361553 C68.3419577,65.4734367 68.4347355,65.0058215 68.5275134,64.5382064 C69.3332161,60.4937028 70.2292552,55.9105848 68.1124545,51.99339 C64.8969683,46.1029083 57.2647664,45.5496045 51.1341013,45.1064719 Z" id="Path" fill="#F2F2F2"></path>
                <rect id="Rectangle" fill="#3F3D56" x="18.6223404" y="134" width="23" height="47"></rect>
                <rect id="Rectangle" fill="#000000" opacity="0.1" x="18.6223404" y="134" width="23" height="47"></rect>
                <path d="M146.955674,69.1813954 L146.955674,69.1813954 C146.694323,38.1204165 121.445904,13.0171072 90.3280876,13.0000085 C58.9415933,12.9829098 33.6223404,38.7310837 33.6223404,70.1047243 L33.6223404,172.985057 C33.6223404,178.516157 38.1059256,183 43.6367082,183 L146.955674,183 C178.251794,183 203.62234,157.139463 203.62234,125.841545 C203.62234,94.5436276 178.251794,69.1813954 146.955674,69.1813954 Z" id="Path" fill="#1800AD"></path>
                <path d="M33.6223404,146 L59.6223404,146 L59.6223404,183 L43.6746945,183 C38.1310453,183 33.6370297,178.472106 33.6370297,172.886667 L33.6370297,146 L33.6223404,146 Z" id="Path" fill="#5F5478"></path>
                <rect id="Rectangle" fill="#D4A1A1" x="41.6223404" y="128" width="28" height="28"></rect>
                <rect id="Rectangle" fill="#000000" opacity="0.1" x="41.6223404" y="130" width="28" height="28"></rect>
                <path d="M91.4821475,127 C91.4821475,127 118.439135,139.575844 117.603297,145.863766 C116.76746,152.151689 111.248976,153 111.248976,153 L95.008796,145.012975 L83.6223404,135.835337 L91.4821475,127 Z" id="Path" fill="#5F5478"></path>
                <path d="M65.4507049,140.11627 C65.6384261,141.357882 65.7505712,142.669025 65.3068666,143.841107 C64.8192791,145.127418 63.734397,146.07601 63.1395403,147.317622 C62.2496931,149.160175 62.5836905,151.432326 63.5661793,153.227697 C64.5486681,155.023069 66.0943204,156.423608 67.6838556,157.697502 C70.0486549,159.579787 72.618241,161.270863 75.4852554,162.152408 C78.9203092,163.205295 82.5869671,163.046369 86.1707351,162.877509 C86.7623212,162.881576 87.350492,162.785922 87.9114224,162.594422 C88.3029566,162.415 88.6713996,162.187325 89.0084943,161.916501 C90.8808302,160.530862 92.7824214,159.088108 94.0477109,157.113944 C95.7803659,154.365871 96.1036043,150.934715 94.9156167,147.90118 C93.7380929,144.978424 91.2318932,142.706273 90.3786151,139.669289 C89.759379,137.464185 90.0860626,135.115055 90.0787488,132.820555 C90.1069003,132.435485 90.0336825,132.049737 89.8666483,131.703104 C89.527775,131.131962 88.7915179,130.987935 88.1405886,130.903505 C83.7279218,130.314981 79.2738101,129.87545 74.8172605,130.031893 C72.5606291,130.101536 70.3134244,130.359832 68.098305,130.804176 C66.9012777,131.052499 64.0196357,131.275989 63.7100176,132.842904 C63.5296102,133.77908 64.3463193,135.184585 64.5949889,136.071096 C64.9618988,137.400211 65.2476839,138.751186 65.4507049,140.11627 L65.4507049,140.11627 Z" id="Path" fill="#FBBEBE"></path>
                <path d="M65.4507049,140.11627 C65.6384261,141.357882 65.7505712,142.669025 65.3068666,143.841107 C64.8192791,145.127418 63.734397,146.07601 63.1395403,147.317622 C62.2496931,149.160175 62.5836905,151.432326 63.5661793,153.227697 C64.5486681,155.023069 66.0943204,156.423608 67.6838556,157.697502 C70.0486549,159.579787 72.618241,161.270863 75.4852554,162.152408 C78.9203092,163.205295 82.5869671,163.046369 86.1707351,162.877509 C86.7623212,162.881576 87.350492,162.785922 87.9114224,162.594422 C88.3029566,162.415 88.6713996,162.187325 89.0084943,161.916501 C90.8808302,160.530862 92.7824214,159.088108 94.0477109,157.113944 C95.7803659,154.365871 96.1036043,150.934715 94.9156167,147.90118 C93.7380929,144.978424 91.2318932,142.706273 90.3786151,139.669289 C89.759379,137.464185 90.0860626,135.115055 90.0787488,132.820555 C90.1069003,132.435485 90.0336825,132.049737 89.8666483,131.703104 C89.527775,131.131962 88.7915179,130.987935 88.1405886,130.903505 C83.7279218,130.314981 79.2738101,129.87545 74.8172605,130.031893 C72.5606291,130.101536 70.3134244,130.359832 68.098305,130.804176 C66.9012777,131.052499 64.0196357,131.275989 63.7100176,132.842904 C63.5296102,133.77908 64.3463193,135.184585 64.5949889,136.071096 C64.9618988,137.400211 65.2476839,138.751186 65.4507049,140.11627 L65.4507049,140.11627 Z" id="Path" fill="#000000" opacity="0.1"></path>
                <circle id="Oval" fill="#D4A1A1" cx="46.6223404" cy="118" r="21"></circle>
                <circle id="Oval" fill="#FBBEBE" cx="77.6223404" cy="120" r="21"></circle>
                <path d="M89.1765046,108.661264 C88.2592432,109.061134 87.4702012,109.702388 86.5775973,110.153461 C84.0107449,111.448161 80.9285494,111.031224 78.1151214,110.411913 C76.6233387,110.082752 74.8726517,109.436621 74.5890897,107.954178 C74.2858017,106.379081 75.86142,105.106325 76.3644343,103.58487 C73.9789724,103.144254 71.5129661,103.588718 69.4381246,104.833244 C66.8466146,106.401025 64.9529137,109.178169 62.0161978,109.938897 C61.4751126,110.111377 60.8928974,110.111377 60.3518122,109.938897 C59.7917506,109.680447 59.3482053,109.22622 59.1066052,108.663703 C57.7603022,105.910941 59.5997565,102.760748 60.060853,99.734905 C60.4381137,97.2137754 59.9252364,94.3000908 61.6488001,92.4055862 C63.4290762,90.4550024 66.5334635,90.7353988 69.1323708,90.1672913 C70.9120216,89.7774387 72.5566459,88.9315122 73.9011437,87.7144321 C74.2656336,87.344585 74.6634428,87.0083449 75.0896382,86.7098814 C75.6400699,86.3959792 76.2489644,86.1952801 76.8797774,86.1198298 C79.33298,85.7481618 81.8400322,86.2474299 83.9564983,87.5291266 C85.4359521,88.423957 86.7033509,89.6967129 88.3603392,90.174606 C89.2480115,90.4330583 90.1874647,90.440373 91.1022603,90.5695992 C94.9463377,91.1684446 98.1352415,93.8303371 99.3773388,97.4771042 C99.5943254,98.1451792 99.7472023,98.8473894 100.136792,99.4276881 C100.908574,100.590724 102.407753,101.027167 103.465563,101.943941 C104.523372,102.860716 105.073236,104.231001 105.531867,105.547645 C106.740838,109.106262 107.437258,112.81543 107.600636,116.566005 C107.689404,118.606804 107.556253,120.825593 106.234607,122.393375 C105.921533,122.719788 105.625268,123.061572 105.346935,123.417431 C104.432139,124.770649 104.925291,126.58713 104.725564,128.193923 C104.56052,129.491432 103.937977,130.68981 102.96748,131.578186 C102.739021,131.828515 102.420208,131.980012 102.079808,132 C101.685287,131.980494 101.379533,131.653771 101.165012,131.32461 C100.410491,130.164013 100.218162,128.737649 99.6633666,127.469769 C99.1085714,126.20189 97.917611,124.990089 96.5343217,125.182709 C96.1817185,125.231474 95.8488414,125.368015 95.4962382,125.426532 C94.5099357,125.582579 93.4965098,125.031539 92.8776049,124.246429 C92.2587001,123.461319 91.9652751,122.473836 91.7581515,121.500982 C91.1713015,118.733592 91.1934933,115.893054 91.4178772,113.076899 C91.5041786,111.989448 92.137878,110.055932 91.844453,109.026999 C91.551028,107.998066 90.0321221,108.285777 89.1765046,108.661264 Z" id="Path" fill="#FFFFFF"></path>
                <path d="M79.5647861,159.365634 C76.2293063,158.04315 73.4313993,155.661244 71.6100226,152.59361 C70.2744623,150.329819 69.5077969,147.756449 67.9915575,145.599076 C65.781901,142.454922 61.6140737,144.039092 57.7538892,144.019743 C52.8096302,143.995557 48.7687666,143.349796 44.7083701,146.145675 C42.0030669,148.005563 39.0926685,150.150844 38.3601857,153.32644 C37.7131592,156.078784 38.8680404,159.01494 38.2210139,161.769703 C37.7839658,163.627173 38.3406528,165.33469 38.0232436,167.218764 C37.576429,169.879202 37.2175124,172.363084 38.5921385,174.68734 L43.3386272,182.712189 L94.8565859,182.905675 C94.824845,182.905675 94.7613631,183 94.7296222,183 L131.62234,183 C131.556417,181.270715 131.446545,179.570453 130.889858,177.935493 C130.30143,176.242487 129.459074,174.646224 128.621602,173.059635 L119.314187,155.45479 C117.536696,152.088127 115.590733,148.547325 112.270144,146.646321 C110.456028,145.60875 108.363569,145.151639 106.437139,144.3656 C103.910074,143.342541 103.233748,144.05844 100.59681,143.357052 C97.9598714,142.655664 93.0668862,140.827217 91.6287782,143.115194 C90.4958715,144.924292 90.8279303,147.241292 90.4079735,149.328527 C90.0270825,151.224693 89.0113729,152.937048 87.885791,154.5188 C86.8529902,155.969948 85.6883425,157.370306 84.2233769,158.388528 C82.7584112,159.40675 81.234847,160.025907 79.5647861,159.365634 Z" id="Path" fill="#3F3D56"></path>
                <path d="M79.6223404,169 C79.6223404,169 62.4597077,170.284767 62.6235055,173.817875 C62.6235055,173.817875 78.9623318,178.155134 78.9623318,177.99571 C78.9623318,177.836287 79.6223404,169 79.6223404,169 Z" id="Path" fill="#FBBEBE"></path>
                <path d="M57.9837607,161.100531 C57.9837607,161.100531 59.3158959,171.795044 64.1436706,173.831858 C68.9714452,175.868673 84.2982927,176.208142 84.2982927,176.208142 L94.6223404,183 L43.6584456,183 C43.6584456,183 41.327209,155 43.6584456,155 C45.9896822,155 57.9837607,161.100531 57.9837607,161.100531 Z" id="Path" fill="#3F3D56"></path>
                <path d="M98.6172625,157 L110.664625,167.196127 L77.8907223,168.046838 C77.8907223,168.046838 73.1362121,173.999332 75.0961051,175.695793 C77.0559982,177.392254 86.2501665,178.582753 86.2501665,178.582753 L94.7780199,183 L130.62234,182.955356 L118.692132,161.079939 L98.6172625,157 Z" id="Path" fill="#3F3D56"></path>
                <path d="M98.6172625,157 L110.664625,167.196127 L77.8907223,168.046838 C77.8907223,168.046838 73.1362121,173.999332 75.0961051,175.695793 C77.0559982,177.392254 86.2501665,178.582753 86.2501665,178.582753 L94.7780199,183 L130.62234,182.955356 L118.692132,161.079939 L98.6172625,157 Z" id="Path" fill="#000000" opacity="0.1"></path>
                <polygon id="Path" fill="#5F5478" points="105.715329 142 84.6223404 158.999581 100.101952 171 117.62234 148.500126"></polygon>
                <path d="M94.1241161,160.016243 C94.1241161,160.016243 108.031439,157.534951 110.545813,156.376372 C113.060186,155.217792 123.11768,150.918978 120.427203,154.228172 C117.736725,157.537365 116.574928,157.699083 116.574928,157.699083 C116.574928,157.699083 126.962617,158.526985 126.627531,160.511053 C126.292444,162.495121 125.120863,162.825799 125.120863,162.825799 C125.120863,162.825799 129.476991,165.30709 128.471731,165.963619 C127.46647,166.620147 128.136644,168.93972 127.967878,169.436944 C127.799111,169.934168 129.141904,172.574764 127.801557,172.91027 C126.46121,173.245775 112.216355,172.579592 109.212803,171.918236 C106.209252,171.25688 92.6223404,172.082368 92.6223404,172.082368 L94.1241161,160.016243 Z" id="Path" fill="#E0AAAA"></path>
                <path d="M30.0137762,138 C30.0137762,138 24.6330457,144.531182 30.0137762,152.401844 C35.3945067,160.272505 46.4947181,169.316433 52.5504946,170.822124 C58.6062711,172.327816 98.7997389,173 98.7997389,173 C98.7997389,173 100.650592,154.912145 98.7997389,154.242405 C96.9488854,153.572666 64.1539221,155.750541 59.6127034,152.401844 C55.0714847,149.053146 41.4478285,139.339479 37.4147354,139.004609 C34.9321929,138.795323 32.461994,138.460017 30.0137762,138 Z" id="Path" fill="#5F5478"></path>
                <path d="M59.7023904,102.380434 C58.2284574,101.759584 56.6989774,101.280199 55.134532,100.94873 C47.4216712,99.3254779 39.9933817,108.40194 41.8332817,115.948468 C42.5692417,118.993601 44.6446489,121.812805 44.3159201,124.931611 C44.0068169,127.895704 41.5855085,130.272873 41.0850557,133.209953 C40.9365144,133.875916 41.0008787,134.571774 41.2690457,135.199113 C41.7351537,136.144578 42.8268277,136.630817 43.3763445,137.529622 C44.3012009,139.042366 43.2684037,141.122388 41.7277941,142.001548 C40.1871845,142.880707 38.3325653,142.915088 36.5760741,143.059977 C34.3708598,143.242118 32.186722,143.624329 30.0505621,144.201902 C28.8386813,144.530973 27.6169877,144.938628 26.6381609,145.724469 C24.3223401,147.581018 24.0034241,151.075554 24.8497781,153.921771 C25.6961321,156.767988 27.4550765,159.240931 28.7233809,161.925069 C29.9916853,164.609207 30.7497241,167.818875 29.4985921,170.507924 C28.1885833,173.324673 24.8203397,175.331023 24.9577189,178.43755 C24.9945169,179.274961 25.3036201,180.095183 25.2447433,180.930139 C25.1147237,182.86036 22.9657205,184.179099 21.0424117,183.980184 C19.1191029,183.781268 17.4779121,182.460073 16.2464057,180.964519 C14.1992455,178.478576 12.9386211,175.438301 12.6254825,172.231863 C12.3261921,169.117968 12.9345857,165.920578 12.2035321,162.877901 C11.5239957,160.056241 9.76259811,157.642236 8.24406731,155.169293 C3.36224715,147.205763 0.728930781,138.066133 0.624428122,128.723293 C0.602349322,126.368226 0.747088122,123.981235 1.45851612,121.736677 C2.35148092,118.92484 4.08834652,116.469087 5.38363611,113.816874 C6.75497491,111.009949 9.96130731,102.797912 12.8585365,95.1924462 C15.7946928,87.4554097 23.4791375,82.5862318 31.7211913,83.240298 C32.7690059,83.3546045 33.8273145,83.3298327 34.8686469,83.1666254 C36.7379853,82.803174 38.4552253,81.8822668 40.2975785,81.3862047 C45.4492984,80.0011602 51.3958552,82.4446341 54.0894688,87.0639049 C54.8720396,88.4072016 55.3994776,89.9027549 56.3169744,91.1576446 C57.1363432,92.2774678 58.2280172,93.159083 59.1774056,94.1683973 C59.7045699,94.7285909 60.1876559,95.3287663 60.6223404,95.9635525" id="Path" fill="#3F3D56"></path>
                <path d="M146.927047,68.247775 L146.927047,68.247775 C146.665564,37.1500921 121.404398,12.0171189 90.2708722,12 C73.2476272,12 58.0132158,19.5665485 47.6223404,31.5081957 C57.4602638,23.9158292 69.5385606,19.8067792 81.9620819,19.8257774 C113.095608,19.8428963 138.356774,44.9758695 138.618257,76.0735524 L138.618257,76.0735524 C169.930177,76.0735524 195.313532,101.475537 195.313532,132.810438 C195.332259,146.478308 190.401974,159.690119 181.435408,170 C195.43356,159.272168 203.636561,142.628985 203.622322,124.984661 C203.622322,93.6497593 178.238968,68.247775 146.927047,68.247775 Z" id="Path" fill="#000000" opacity="0.1"></path>
            </g>
        </g>
    </g>
</svg>