<?xml version="1.0" encoding="UTF-8"?>
<svg width="457px" height="276px" viewBox="0 0 457 276" version="1.1" xmlns="http://www.w3.org/2000/svg" xmlns:xlink="http://www.w3.org/1999/xlink">
    <!-- Generator: Sketch 53.2 (72643) - https://sketchapp.com -->
    <title>undraw_spread_love_r9jb</title>
    <desc>Created with Sketch.</desc>
    <g id="Portfolio" stroke="none" stroke-width="1" fill="none" fill-rule="evenodd">
        <g id="Code-of-Ethics" transform="translate(-156.000000, -2028.000000)">
            <g id="undraw_spread_love_r9jb" transform="translate(157.000000, 2028.000000)">
                <path d="M301.333893,94.3906342 L147.438212,0 L124.019389,38.372748 C137.171412,46.9365993 141.128566,64.4425799 132.943861,77.8535567 C124.759155,91.2645334 107.40975,95.7023095 93.8161725,87.8619642 L86.2165605,100.314255 L151.086527,100.314255 L151.086527,179.06085 L309.137312,276 L342.216561,221.79823 L301.333893,221.79823 L301.333893,94.3906342 Z" id="Path" fill="#F2F2F2" fill-rule="nonzero"></path>
                <ellipse id="Oval" fill="#1800AD" fill-rule="nonzero" cx="225.216561" cy="206.5" rx="28" ry="4.5"></ellipse>
                <path d="M226.475683,168 L254.785603,135.939398 C263.495603,127.124699 263.33828,112.988991 254.434213,104.366412 C245.530146,95.743832 231.251124,95.8995754 222.541124,104.714274 C216.781203,99.136443 208.452909,97.0243541 200.693431,99.1736111 C192.933952,101.322868 186.922138,107.406948 184.922581,115.134036 C182.923023,122.861124 185.239503,131.057293 190.999425,136.635124 L222.495709,168" id="Path" fill="#1800AD" fill-rule="nonzero"></path>
                <rect id="Rectangle" stroke="#3F3D56" stroke-width="2" x="0.21656051" y="100" width="152" height="138"></rect>
                <rect id="Rectangle" stroke="#3F3D56" stroke-width="2" x="302.216561" y="83" width="152" height="138"></rect>
                <circle id="Oval" fill="#1800AD" fill-rule="nonzero" cx="109.216561" cy="63" r="19"></circle>
                <path d="M154.216561,166.384745 C154.216561,166.384745 177.923878,158.345976 188.021439,169.346397 C198.119,180.346817 226.216561,163 226.216561,163" id="Path" stroke="#3F3D56" stroke-width="2"></path>
                <path d="M347.216561,169.327214 C347.216561,169.327214 342.818953,158.716113 312.915226,168.442955 C283.011498,178.169797 240.794471,177.727668 230.240214,162.695276 L258.392735,130.316231 C267.054309,121.41398 266.897861,107.13787 258.043299,98.4296461 C249.188738,89.7214225 234.989105,89.8787129 226.327531,98.7809641 C217.472969,90.0727406 203.273336,90.230031 194.611763,99.1322822 C185.950189,108.034533 186.106637,122.310644 194.961199,131.018867 L226.282368,162.695276" id="Path" stroke="#3F3D56" stroke-width="2"></path>
                <ellipse id="Oval" stroke="#3F3D56" stroke-width="2" cx="229.216561" cy="203.5" rx="28" ry="4.5"></ellipse>
                <ellipse id="Oval" fill="#1800AD" fill-rule="nonzero" cx="226.216561" cy="233.5" rx="22" ry="3.5"></ellipse>
                <ellipse id="Oval" fill="#1800AD" fill-rule="nonzero" cx="226.216561" cy="259.5" rx="15" ry="2.5"></ellipse>
                <ellipse id="Oval" stroke="#3F3D56" stroke-width="2" cx="229.216561" cy="230.5" rx="22" ry="3.5"></ellipse>
                <ellipse id="Oval" stroke="#3F3D56" stroke-width="2" cx="229.216561" cy="257.5" rx="15" ry="2.5"></ellipse>
                <circle id="Oval" fill="#2F2E41" fill-rule="nonzero" cx="88.7165605" cy="157.5" r="14.5"></circle>
                <path d="M81.5237759,165 C81.5237759,165 76.6992278,175.333332 75.3207824,175.666665 C73.9423369,175.999998 86.6929386,182 86.6929386,182 C86.6929386,182 89.1052148,169.33333 90.1390456,168.666669 C91.1728763,168.000008 81.5237759,165 81.5237759,165 Z" id="Path" fill="#9F616A" fill-rule="nonzero"></path>
                <circle id="Oval" fill="#9F616A" fill-rule="nonzero" cx="89.2165605" cy="162" r="10"></circle>
                <path d="M97.2165605,237 L55.2165605,237 C56.620963,231.972535 58.1222209,226.988447 58.9675039,224.220955 C59.3945479,222.832872 59.6542964,222 59.6542964,222 C59.6542964,222 91.330397,228.710517 92.0083844,229.048862 C92.3897338,229.449823 92.7276188,229.888864 93.0165605,230.358866 C94.0071265,231.790344 95.5876297,234.249885 97.2165605,237 Z" id="Path" fill="#2F2E41" fill-rule="nonzero"></path>
                <path d="M45.2165605,141.552109 L34.7238016,125.813486 C34.7238016,125.813486 37.3185791,109.303499 33.8209943,112.382797 C30.3234095,115.462096 29.2165605,127.897249 29.2165605,127.897249 L41.3692132,146 L45.2165605,141.552109 Z" id="Path" fill="#9F616A" fill-rule="nonzero"></path>
                <path d="M137.882163,170.241662 L146.867561,169.5619 C146.867561,169.5619 157.516944,158.005928 158.182529,161.744624 C158.848115,165.483319 149.529907,173.640476 149.529907,173.640476 L137.216561,175 L137.882163,170.241662 Z" id="Path" fill="#9F616A" fill-rule="nonzero"></path>
                <path d="M70.2165605,173.484953 L70.2165605,170.069034 C70.2165605,170.069034 61.2868759,164.26197 61.6303293,163.237191 C61.9737826,162.212412 60.943427,161.529234 60.943427,161.529234 C60.943427,161.529234 59.9130803,160.162864 59.9130803,159.821272 C59.9130803,159.479681 58.5392803,159.138089 58.5392803,159.138089 L49.9530535,149.231924 C49.9530535,149.231924 45.1447601,139.667345 44.1144134,140.008937 C43.0840667,140.350528 37.5888711,142.400081 38.2757733,143.766474 C38.9626756,145.132866 58.1958359,174.509749 58.1958359,174.509749 C58.1958359,174.509749 59.226187,181 60.9434315,181 C62.6606759,181 70.2165605,173.484953 70.2165605,173.484953 Z" id="Path" fill="#3F3D56" fill-rule="nonzero"></path>
                <path d="M93.5671965,177.186828 C93.5671965,177.186828 100.995732,176.839382 101.333392,177.186828 C101.671052,177.534274 106.398302,177.186828 106.398302,177.186828 C106.398302,177.186828 119.229412,174.059812 120.242388,173.017475 C121.255364,171.975138 138.138399,167.458335 138.81372,169.543013 C139.48904,171.627692 141.177345,175.797045 139.48904,176.491937 C137.800735,177.186828 92.2165605,189 92.2165605,189 L93.5671965,177.186828 Z" id="Path" fill="#3F3D56" fill-rule="nonzero"></path>
                <circle id="Oval" fill="#2F2E41" fill-rule="nonzero" cx="83.2165605" cy="142" r="6"></circle>
                <path d="M75.5373148,138 C75.5375156,134.928287 77.9886672,132.352699 81.2165605,132.032439 C80.9971702,132.010882 80.7767507,132.000054 80.5561813,132 C78.291253,132 76.1983728,133.143593 75.0659087,135 C73.9334445,136.856406 73.9334445,139.143594 75.0659087,141 C76.1983728,142.856407 78.291253,144 80.5561813,144 C80.7767508,143.999948 80.9971704,143.989121 81.2165605,143.967561 C77.9886672,143.647301 75.5375156,141.071713 75.5373148,138 L75.5373148,138 Z" id="Path" fill="#2F2E41" fill-rule="nonzero"></path>
                <ellipse id="Oval" fill="#2F2E41" fill-rule="nonzero" cx="90.2165605" cy="154" rx="10" ry="6"></ellipse>
                <path d="M78.8680818,169.341912 C78.8680818,169.341912 75.810002,171.735146 75.1304297,172.077014 C74.4508574,172.418882 70.3734148,169 69.6938424,169 C69.0142701,169 60.1798125,179.256717 60.1798125,179.256717 C60.1798125,179.256717 61.8216196,181.159529 60.1798125,190.880995 C59.5640882,194.526839 58.3424954,210.114066 58.3424954,212.165411 C58.3424954,214.216755 51.6851455,219.257908 57.8013095,223.702482 C63.9174734,228.147056 93.1391223,232.933507 93.4789084,230.198405 C93.8186946,227.463303 90.0810425,220.283582 91.7799732,216.864678 C93.478904,213.445774 93.4789084,200.795822 93.4789084,200.795822 L95.5176297,187.462095 L97.2165605,176.863487 C97.2165605,176.863487 89.2315749,174.6412 88.5520026,174.6412 C87.8724303,174.6412 84.8143461,179.427682 78.8680818,169.341912 Z" id="Path" fill="#3F3D56" fill-rule="nonzero"></path>
                <polygon id="Rectangle" fill="#1800AD" fill-rule="nonzero" transform="translate(381.814841, 141.897680) rotate(-2.220710) translate(-381.814841, -141.897680) " points="378.333499 137.421668 385.296183 137.421668 385.296183 146.373693 378.333499 146.373693"></polygon>
                <path d="M353.978494,168.188309 C353.978494,168.188309 344.059731,163.702066 344.218445,167.576525 C344.377159,171.450984 354.216561,174 354.216561,174 L353.978494,168.188309 Z" id="Path" fill="#FFB9B9" fill-rule="nonzero"></path>
                <path d="M398.755667,221 L353.216561,221 C354.166843,216.58007 355.975445,211.248367 357.38992,207.405893 C358.510991,204.366648 359.378069,202.256544 359.378069,202.256544 C364.549882,196.473296 372.055798,196.325675 379.097522,197.75412 C379.938325,197.92345 380.774748,198.114488 381.598034,198.327235 C381.694376,198.348944 381.790718,198.374995 381.88706,198.401045 C383.533632,198.822198 385.132034,199.308477 386.642851,199.794756 C389.248464,200.637061 391.600084,201.48805 393.500649,202.065506 C394.456238,202.378911 395.438159,202.607037 396.434701,202.747165 C396.652842,202.770181 396.872279,202.778884 397.091578,202.773216 C397.844797,202.742823 398.365919,203.546052 398.703116,204.948447 C399.465094,208.113629 399.289927,214.348396 398.755667,221 Z" id="Path" fill="#2F2E41" fill-rule="nonzero"></path>
                <path d="M389.419499,129 C389.419499,129 394.710621,137.403759 396.773172,139.348804 C398.835722,141.293849 393.033051,145.576283 393.033051,145.576283 L382.647384,147 C382.647384,147 382.778039,137.368694 382.243154,136.376556 C381.708269,135.384419 389.419499,129 389.419499,129 Z" id="Path" fill="#FFB9B9" fill-rule="nonzero"></path>
                <path d="M380.163613,140.265187 C380.163613,140.265187 382.28535,144.148118 384.254377,144.071342 C386.223405,143.994565 396.408077,139.631792 396.843068,138.127708 C397.278058,136.623625 400.216561,148.901735 400.216561,148.901735 L375.295437,193 L369.216561,188.775648 L372.162002,162.884008 L374.581056,148.909876 L380.163613,140.265187 Z" id="Path" fill="#1800AD" fill-rule="nonzero"></path>
                <path d="M397.838526,179.765457 C396.795194,181.778131 396.263185,184.013667 396.288847,186.277305 C396.292717,186.376428 396.296587,186.475515 396.305447,186.574449 C396.544487,191.161172 398.245705,196.465838 398.856041,200.323557 C399.298904,203.090847 399.172861,205.11076 397.542393,205.585514 C393.589458,206.730406 398.118739,207.548597 382.825296,212.604514 C367.531853,217.66043 364.862963,213.296345 364.824265,212.305179 C364.785567,211.314013 366.990109,203.784317 366.47181,203.307959 C365.95351,202.8316 359.219683,209.543122 357.185173,208.628841 C355.150663,207.71456 356.95299,202.681942 356.95299,202.681942 C356.95299,202.681942 361.53621,192.082693 361.439465,189.60482 C361.342721,187.126947 368.382014,175.440457 368.382014,175.440457 L373.16986,144.484211 C373.16986,144.484211 375.01089,140.442741 377.486308,139.85108 C379.045757,139.529234 380.670102,139.822664 382.015589,140.669271 L377.873277,149.762577 L373.502891,165.813139 L374.234047,171.74082 C374.234047,171.74082 379.316217,161.122354 382.654108,157.023231 C385.991998,152.924107 393.108678,143.219923 393.108678,143.219923 C393.108678,143.219923 394.770175,137.651723 393.51591,135.987725 C392.261451,134.318792 398.747842,134.068963 401.513498,140.910926 C402.979304,144.537157 405.359124,149.944733 406.849945,154.979564 C408.178406,159.439931 408.805925,163.609672 407.48981,165.993073 C405.478201,169.634139 400.418159,174.419993 397.838526,179.765457 Z" id="Path" fill="#575A89" fill-rule="nonzero"></path>
                <path d="M407.512502,165.236931 C405.563743,168.875526 400.661698,173.658146 398.162591,179 C397.509838,176.59063 396.71355,174.097718 396.71355,174.097718 C396.71355,174.097718 393.659372,157.355574 402.693524,153.028769 C404.190426,152.88048 405.687541,153.309066 406.892608,154.230861 C408.179598,158.688203 408.787523,162.855127 407.512502,165.236931 Z" id="Path" fill="#000000" fill-rule="nonzero" opacity="0.1"></path>
                <path d="M371.435645,164 L363.448003,166.378707 L352.357481,166.817912 L351.216561,176.659412 L369.442888,178 C369.442888,178 373.99532,164.929811 371.435645,164 Z" id="Path" fill="#575A89" fill-rule="nonzero"></path>
                <path d="M383.637867,197 C383.637867,197 373.184815,198.668296 375.570612,201.694251 C377.956408,204.720205 387.216561,201.538933 387.216561,201.538933 L383.637867,197 Z" id="Path" fill="#FFB9B9" fill-rule="nonzero"></path>
                <path d="M396.681185,186 C396.918799,190.566755 398.609866,195.848327 399.216561,199.689251 C395.867397,202.842708 392.68254,205.624136 391.482288,205.67046 C389.002406,205.766127 385.015358,205.425782 383.546662,205.976599 C382.077966,206.527416 381.216561,197.171622 381.216561,197.171622 C381.216561,197.171622 382.093116,194.172849 386.003217,192.539523 C388.642471,191.434555 393.701488,188.437509 396.681185,186 Z" id="Path" fill="#000000" fill-rule="nonzero" opacity="0.1"></path>
                <path d="M403.150244,150.033475 C403.150244,150.033475 411.658218,148.713588 411.198586,162.649523 C410.738954,176.585458 412.095414,185.481017 408.673556,188.097431 C405.251698,190.713846 394.136563,202.57226 391.622746,202.66851 C389.108929,202.764761 385.067336,202.422384 383.578544,202.97646 C382.089752,203.530537 381.216561,194.119388 381.216561,194.119388 C381.216561,194.119388 382.105109,191.102872 386.068712,189.459883 C390.032314,187.816893 399.370364,181.991501 399.292377,180.006153 C399.214391,178.020804 396.930394,171.149076 396.930394,171.149076 C396.930394,171.149076 393.753718,154.369861 403.150244,150.033475 Z" id="Path" fill="#575A89" fill-rule="nonzero"></path>
                <circle id="Oval" fill="#FFB9B9" fill-rule="nonzero" cx="382.216561" cy="130" r="11"></circle>
                <path d="M375.111235,114.181037 C374.844124,114.405469 374.524248,114.562006 374.180088,114.636714 C373.820433,114.699233 373.476479,114.46689 373.410081,114.116567 C373.211008,114.655438 372.840892,115.118354 372.353531,115.43803 C371.83622,115.70096 371.036307,115.480486 370.961744,114.916279 C370.886216,115.34467 370.69187,115.744724 370.399777,116.073066 C370.082857,116.399959 369.555158,116.41716 369.216561,116.111635 C369.44311,117.318955 369.303281,118.560557 369.374423,119.785957 C369.445565,121.011357 369.780649,122.310467 370.730026,123.116252 C372.114593,124.291393 374.19664,124.001373 376.017922,123.778734 C376.293342,123.722371 376.579117,123.737616 376.846589,123.822942 C377.528518,124.106264 377.497598,125.032006 377.506793,125.754806 C377.621655,128.37364 379.65929,130.528583 382.326679,130.852177 C383.049581,130.960989 383.787209,130.785434 384.377432,130.364101 C384.894538,129.936673 385.158675,129.240022 385.751216,128.918933 C386.715077,128.396648 387.884054,129.158352 388.588764,129.985397 C389.293474,130.812442 389.98801,131.829796 391.079698,131.981189 C392.523525,132.181414 393.623211,130.746519 394.162736,129.42529 C395.666531,125.684123 395.557031,121.509241 393.859084,117.847933 C390.844332,111.439371 380.545886,110.425735 375.111235,114.181037 Z" id="Path" fill="#2F2E41" fill-rule="nonzero"></path>
            </g>
        </g>
    </g>
</svg>