<?xml version="1.0" encoding="UTF-8"?>
<svg width="277px" height="200px" viewBox="0 0 277 200" version="1.1" xmlns="http://www.w3.org/2000/svg" xmlns:xlink="http://www.w3.org/1999/xlink">
    <!-- Generator: Sketch 53.2 (72643) - https://sketchapp.com -->
    <title>undraw_Graduation_ktn0</title>
    <desc>Created with Sketch.</desc>
    <defs>
        <linearGradient x1="-2.31387508e-13%" y1="50.000002%" x2="100%" y2="50.000002%" id="linearGradient-1">
            <stop stop-color="#808080" stop-opacity="0.25" offset="0%"></stop>
            <stop stop-color="#808080" stop-opacity="0.12" offset="53.514%"></stop>
            <stop stop-color="#808080" stop-opacity="0.1" offset="100%"></stop>
        </linearGradient>
    </defs>
    <g id="Portfolio" stroke="none" stroke-width="1" fill="none" fill-rule="evenodd">
        <g id="About-Me" transform="translate(-266.000000, -1201.000000)" fill-rule="nonzero">
            <g id="undraw_Graduation_ktn0" transform="translate(266.000000, 1201.000000)">
                <ellipse id="Oval" fill="#E0E0E0" transform="translate(10.354407, 99.856682) rotate(-63.610790) translate(-10.354407, -99.856682) " cx="10.3544068" cy="99.8566825" rx="12.2080091" ry="1.83172323"></ellipse>
                <ellipse id="Oval" fill="#E0E0E0" transform="translate(162.954839, 175.608659) rotate(-63.610790) translate(-162.954839, -175.608659) " cx="162.954839" cy="175.608659" rx="12.2080091" ry="1.24456638"></ellipse>
                <polygon id="Rectangle" fill="#F55F44" transform="translate(71.748172, 152.712664) rotate(39.547320) translate(-71.748172, -152.712664) " points="68.0879092 140.504308 75.4140825 140.502614 75.4084356 164.921019 68.0822623 164.922713"></polygon>
                <polygon id="Rectangle" fill="#000000" opacity="0.05" transform="translate(76.163991, 155.019116) rotate(-166.768900) translate(-76.163991, -155.019116) " points="72.043026 142.812376 80.2875188 142.811511 80.2849562 167.225856 72.0404634 167.226721"></polygon>
                <polygon id="Rectangle" fill="#F55F44" transform="translate(76.610381, 155.124023) rotate(-166.768900) translate(-76.610381, -155.124023) " points="72.9479664 142.917235 80.2753578 142.916466 80.2727953 167.330811 72.9454039 167.33158"></polygon>
                <polygon id="Rectangle" fill="url(#linearGradient-1)" transform="translate(86.660991, 137.699866) rotate(-63.610790) translate(-86.660991, -137.699866) " points="73.8266117 52.5223427 99.4634287 52.5271509 99.4953695 222.87739 73.8585524 222.872582"></polygon>
                <path d="M157.176518,187 C154.198376,185.561306 2.8419447,109.879186 5.02335388,110.969236 C13.4240838,98.0559986 15.8468356,89 15.8468356,89 L168,165.030764 C168,165.030764 162.656716,174.474941 157.176518,187 Z" id="Path" fill="#F5F5F5"></path>
                <polygon id="Rectangle" fill="#000000" opacity="0.05" transform="translate(83.379000, 136.072205) rotate(26.389210) translate(-83.379000, -136.072205) " points="76.3596845 123.865514 90.402894 123.862881 90.3983147 148.278896 76.3551052 148.281529"></polygon>
                <polygon id="Rectangle" fill="#F55F44" transform="translate(83.378998, 136.072204) rotate(26.389210) translate(-83.378998, -136.072204) " points="76.9702563 123.865399 89.7923191 123.862995 89.7877398 148.27901 76.965677 148.281414"></polygon>
                <polygon id="Rectangle" fill="#000000" opacity="0.05" transform="translate(83.105498, 135.936566) rotate(26.389210) translate(-83.105498, -135.936566) " points="78.8337675 123.72936 87.3818082 123.727757 87.3772289 148.143772 78.8291882 148.145375"></polygon>
                <polygon id="Rectangle" fill="#F55F44" transform="translate(83.105498, 135.936566) rotate(26.389210) translate(-83.105498, -135.936566) " points="79.4443426 123.729245 86.7712331 123.727872 86.7666538 148.143886 79.4397633 148.14526"></polygon>
                <circle id="Oval" fill="#DBDBDB" cx="91" cy="196" r="1"></circle>
                <g id="Group" opacity="0.5" transform="translate(7.000000, 168.000000)" fill="#47E6B1">
                    <rect id="Rectangle" x="2.875565" y="0" width="1.16666667" height="6"></rect>
                    <polygon id="Rectangle" transform="translate(3.458898, 3.000000) rotate(90.000000) translate(-3.458898, -3.000000) " points="2.92948657 -0.305555556 3.9883101 -0.305555556 3.9883101 6.30555556 2.92948657 6.30555556"></polygon>
                </g>
                <g id="Group" opacity="0.5" transform="translate(270.000000, 94.000000)" fill="#47E6B1">
                    <rect id="Rectangle" x="2.875565" y="0" width="1.16666667" height="6"></rect>
                    <polygon id="Rectangle" transform="translate(3.458898, 3.000000) rotate(90.000000) translate(-3.458898, -3.000000) " points="2.92948657 -0.305555556 3.9883101 -0.305555556 3.9883101 6.30555556 2.92948657 6.30555556"></polygon>
                </g>
                <g id="Group" opacity="0.5" transform="translate(13.000000, 21.000000)" fill="#47E6B1">
                    <rect id="Rectangle" x="2.875565" y="0" width="1.16666667" height="6"></rect>
                    <polygon id="Rectangle" transform="translate(3.458898, 3.000000) rotate(90.000000) translate(-3.458898, -3.000000) " points="2.92948657 -0.305555556 3.9883101 -0.305555556 3.9883101 6.30555556 2.92948657 6.30555556"></polygon>
                </g>
                <g id="Group" opacity="0.5" transform="translate(239.000000, 11.000000)" fill="#47E6B1">
                    <rect id="Rectangle" x="2.875565" y="0" width="1.16666667" height="6"></rect>
                    <polygon id="Rectangle" transform="translate(3.458898, 3.000000) rotate(90.000000) translate(-3.458898, -3.000000) " points="2.92948657 -0.305555556 3.9883101 -0.305555556 3.9883101 6.30555556 2.92948657 6.30555556"></polygon>
                </g>
                <path d="M4.59071812,87.5422278 C3.95117877,87.2636987 3.62209705,86.5499215 3.82560949,85.8827097 C3.84151711,85.8332974 3.85153877,85.7821807 3.85546662,85.7304197 L3.85546662,85.7304197 C3.87392508,85.4272102 3.69149928,85.1477313 3.4065013,85.0425986 C3.12150332,84.9374659 2.8012836,85.0315242 2.61841351,85.274084 L2.61841351,85.274084 C2.58778772,85.315997 2.56221313,85.3613765 2.5422199,85.4092818 C2.26368941,86.0488198 1.54991328,86.3779009 0.882701452,86.1743903 C0.833289223,86.1584817 0.782172507,86.1484588 0.730411393,86.1445294 L0.730411393,86.1445294 C0.427204452,86.1260766 0.147730585,86.3085027 0.0425988617,86.5934979 C-0.0625328621,86.878493 0.0315213913,87.1987096 0.274075582,87.3815823 L0.274075582,87.3815823 C0.315988257,87.4122077 0.361367891,87.4377811 0.40927346,87.4577722 C1.04880774,87.7363065 1.3778873,88.450079 1.17438209,89.1172903 C1.15847327,89.1667025 1.14845035,89.2178192 1.14452122,89.2695803 L1.14452122,89.2695803 C1.12606276,89.5727898 1.30848857,89.8522687 1.59348654,89.9574014 C1.87848452,90.0625341 2.19870424,89.9684758 2.38157433,89.725916 L2.38157433,89.725916 C2.4122015,89.6840039 2.43777618,89.6386242 2.45776794,89.5907182 C2.73629843,88.9511802 3.45007457,88.6220991 4.11728639,88.8256097 C4.16670039,88.8415164 4.21781811,88.8515393 4.26958018,88.8554706 L4.26958018,88.8554706 C4.57278973,88.873929 4.85226862,88.6915033 4.95740136,88.4065053 C5.06253411,88.1215074 4.96847583,87.8012878 4.725916,87.6184177 L4.725916,87.6184177 C4.68400185,87.5877946 4.63862249,87.5622214 4.59071812,87.5422278 Z" id="Path" fill="#4D8AF0" opacity="0.5"></path>
                <path d="M64.5907181,19.5422278 C63.9511788,19.2636987 63.6220971,18.5499215 63.8256095,17.8827097 C63.8415171,17.8332974 63.8515388,17.7821807 63.8554666,17.7304197 L63.8554666,17.7304197 C63.8739251,17.4272102 63.6914993,17.1477313 63.4065013,17.0425986 C63.1215033,16.9374659 62.8012836,17.0315242 62.6184135,17.274084 L62.6184135,17.274084 C62.5877877,17.315997 62.5622131,17.3613765 62.5422199,17.4092818 C62.2636894,18.0488198 61.5499133,18.3779009 60.8827015,18.1743903 C60.8332892,18.1584817 60.7821725,18.1484588 60.7304114,18.1445294 L60.7304114,18.1445294 C60.4272045,18.1260766 60.1477306,18.3085027 60.0425989,18.5934979 C59.9374671,18.878493 60.0315214,19.1987096 60.2740756,19.3815823 L60.2740756,19.3815823 C60.3159883,19.4122077 60.3613679,19.4377811 60.4092735,19.4577722 C61.0488077,19.7363065 61.3778873,20.450079 61.1743821,21.1172903 C61.1584733,21.1667025 61.1484504,21.2178192 61.1445212,21.2695803 L61.1445212,21.2695803 C61.1260628,21.5727898 61.3084886,21.8522687 61.5934865,21.9574014 C61.8784845,22.0625341 62.1987042,21.9684758 62.3815743,21.725916 L62.3815743,21.725916 C62.4122015,21.6840039 62.4377762,21.6386242 62.4577679,21.5907182 C62.7362984,20.9511802 63.4500746,20.6220991 64.1172864,20.8256097 C64.1667004,20.8415164 64.2178181,20.8515393 64.2695802,20.8554706 L64.2695802,20.8554706 C64.5727897,20.873929 64.8522686,20.6915033 64.9574014,20.4065053 C65.0625341,20.1215074 64.9684758,19.8012878 64.725916,19.6184177 L64.725916,19.6184177 C64.6840018,19.5877946 64.6386225,19.5622214 64.5907181,19.5422278 Z" id="Path" fill="#4D8AF0" opacity="0.5"></path>
                <path d="M137.590718,197.542228 C136.951179,197.263699 136.622097,196.549922 136.825609,195.88271 C136.841517,195.833297 136.851539,195.782181 136.855467,195.73042 L136.855467,195.73042 C136.873925,195.42721 136.691499,195.147731 136.406501,195.042599 C136.121503,194.937466 135.801284,195.031524 135.618414,195.274084 L135.618414,195.274084 C135.587788,195.315997 135.562213,195.361377 135.54222,195.409282 C135.263689,196.04882 134.549913,196.377901 133.882701,196.17439 C133.833289,196.158482 133.782173,196.148459 133.730411,196.144529 L133.730411,196.144529 C133.427204,196.126077 133.147731,196.308503 133.042599,196.593498 C132.937467,196.878493 133.031521,197.19871 133.274076,197.381582 L133.274076,197.381582 C133.315988,197.412208 133.361368,197.437781 133.409273,197.457772 C134.048808,197.736306 134.377887,198.450079 134.174382,199.11729 C134.158473,199.166702 134.14845,199.217819 134.144521,199.26958 L134.144521,199.26958 C134.126063,199.57279 134.308489,199.852269 134.593487,199.957401 C134.878485,200.062534 135.198704,199.968476 135.381574,199.725916 L135.381574,199.725916 C135.412201,199.684004 135.437776,199.638624 135.457768,199.590718 C135.736298,198.95118 136.450075,198.622099 137.117286,198.82561 C137.1667,198.841516 137.217818,198.851539 137.26958,198.855471 L137.26958,198.855471 C137.57279,198.873929 137.852269,198.691503 137.957401,198.406505 C138.062534,198.121507 137.968476,197.801288 137.725916,197.618418 L137.725916,197.618418 C137.684002,197.587795 137.638622,197.562221 137.590718,197.542228 L137.590718,197.542228 Z" id="Path" fill="#4D8AF0" opacity="0.5"></path>
                <circle id="Oval" fill="#F55F44" opacity="0.5" cx="265" cy="155" r="2"></circle>
                <circle id="Oval" fill="#4D8AF0" opacity="0.5" cx="218" cy="168" r="2"></circle>
                <circle id="Oval" fill="#47E6B1" opacity="0.5" cx="36" cy="189" r="2"></circle>
                <circle id="Oval" fill="#F55F44" opacity="0.5" cx="143" cy="2" r="2"></circle>
                <path d="M71.3617021,125.055172 L63,137.524138 C63,137.524138 65.787234,150.339464 127.454787,149.993104 C189.12234,149.646743 194,137.524138 194,137.524138 L182.50266,120.898851 L147.31383,97 L71.3617021,125.055172 Z" id="Path" fill="#1800AD"></path>
                <path d="M71.3617021,125.055172 L63,137.524138 C63,137.524138 65.787234,150.339464 127.454787,149.993104 C189.12234,149.646743 194,137.524138 194,137.524138 L182.50266,120.898851 L147.31383,97 L71.3617021,125.055172 Z" id="Path" fill="#000000" opacity="0.15"></path>
                <polygon id="Path" fill="#1800AD" points="249 77.6521739 139.493562 126 6 77.6521739 128.369099 22 188.437725 49.7113043 190.589614 50.706087"></polygon>
                <polygon id="Path" fill="#000000" opacity="0.15" points="249 77.6521739 139.493562 126 6 77.6521739 128.369099 22 188.437725 49.7113043 190.589614 50.706087"></polygon>
                <polygon id="Path" fill="#F5F5F5" points="193 89.8736953 190.639654 90 188 50 190.43509 51.0034208"></polygon>
                <path d="M72.7553191,77.0616377 L63,136 C63,136 133.029255,113.464744 194,136 L184.941489,73.5946752 C184.941489,73.5946752 103.066489,63.540484 72.7553191,77.0616377 Z" id="Path" fill="#1800AD"></path>
                <ellipse id="Oval" fill="#F5F5F5" cx="193" cy="94" rx="10" ry="7"></ellipse>
            </g>
        </g>
    </g>
</svg>