<?xml version="1.0" encoding="UTF-8"?>
<svg width="431px" height="277px" viewBox="0 0 431 277" version="1.1" xmlns="http://www.w3.org/2000/svg" xmlns:xlink="http://www.w3.org/1999/xlink">
    <!-- Generator: Sketch 53.2 (72643) - https://sketchapp.com -->
    <title>undraw_choice_9385</title>
    <desc>Created with Sketch.</desc>
    <g id="Portfolio" stroke="none" stroke-width="1" fill="none" fill-rule="evenodd">
        <g id="Code-of-Ethics" transform="translate(-153.000000, -957.000000)">
            <g id="undraw_choice_9385" transform="translate(154.000000, 958.000000)">
                <ellipse id="Oval" fill="#F2F2F2" fill-rule="nonzero" cx="67.8247423" cy="267.5" rx="54.5" ry="8.5"></ellipse>
                <ellipse id="Oval" stroke="#3F3D56" cx="72.8247423" cy="261.5" rx="54.5" ry="8.5"></ellipse>
                <rect id="Rectangle" fill="#1800AD" fill-rule="nonzero" x="33.3247423" y="11" width="164" height="98" rx="22.84021"></rect>
                <rect id="Rectangle" fill="#F2F2F2" fill-rule="nonzero" x="248.324742" y="89" width="164" height="98" rx="22.84021"></rect>
                <rect id="Rectangle" stroke="#3F3D56" x="20.3247423" y="0" width="164" height="98" rx="22.84021"></rect>
                <rect id="Rectangle" stroke="#3F3D56" x="235.324742" y="78" width="164" height="98" rx="22.84021"></rect>
                <path d="M390.168715,29 C386.597521,29.1983002 383.447067,31.3637477 382.031624,34.5929863 C379.996934,39.4279738 382.616744,45.1073887 386.549551,48.6331061 C390.482358,52.1588236 395.534299,54.1741036 400.124409,56.8230455 C406.289689,60.3810142 411.829697,65.320064 414.914535,71.6600901 C417.999373,78.0001162 418.327474,85.8535759 414.701388,91.9104518 C411.335761,97.5322692 405.215939,100.896904 399.379216,104" id="Path" stroke="#3F3D56"></path>
                <ellipse id="Oval" fill="#1800AD" fill-rule="nonzero" cx="395.324742" cy="29.5" rx="7" ry="3.5"></ellipse>
                <ellipse id="Oval" fill="#1800AD" fill-rule="nonzero" cx="401.324742" cy="52.5" rx="7" ry="3.5"></ellipse>
                <ellipse id="Oval" fill="#1800AD" fill-rule="nonzero" cx="388.324742" cy="55.5" rx="7" ry="3.5"></ellipse>
                <ellipse id="Oval" fill="#1800AD" fill-rule="nonzero" cx="408.324742" cy="74.5" rx="7" ry="3.5"></ellipse>
                <ellipse id="Oval" fill="#1800AD" fill-rule="nonzero" cx="422.324742" cy="74.5" rx="7" ry="3.5"></ellipse>
                <path d="M9.16871704,185 C5.59752213,185.1983 2.44706789,187.363748 1.0316239,190.592986 C-1.0030663,195.427974 1.6167447,201.107389 5.54955215,204.633106 C9.4823596,208.158824 14.5343103,210.174087 19.1244047,212.823045 C25.2896864,216.381014 30.8296958,221.320064 33.9145343,227.66009 C36.9993727,234.000116 37.327474,241.853576 33.7013878,247.910452 C30.3357592,253.532269 24.215936,256.896904 18.3792114,260" id="Path" stroke="#3F3D56"></path>
                <ellipse id="Oval" fill="#1800AD" fill-rule="nonzero" cx="14.3247423" cy="185.5" rx="7" ry="3.5"></ellipse>
                <ellipse id="Oval" fill="#1800AD" fill-rule="nonzero" cx="20.3247423" cy="208.5" rx="7" ry="3.5"></ellipse>
                <ellipse id="Oval" fill="#1800AD" fill-rule="nonzero" cx="7.32474227" cy="211.5" rx="7" ry="3.5"></ellipse>
                <ellipse id="Oval" fill="#1800AD" fill-rule="nonzero" cx="27.3247423" cy="231.5" rx="7" ry="3.5"></ellipse>
                <ellipse id="Oval" fill="#1800AD" fill-rule="nonzero" cx="41.3247423" cy="231.5" rx="7" ry="3.5"></ellipse>
                <path d="M103.778524,110.642105 C103.778524,110.642105 104.585246,116.8 102.56844,119.263158 C100.551633,121.726316 97.3247423,138.147368 97.3247423,138.147368 L97.3247423,148 C97.3247423,148 109.828944,129.526316 112.249112,122.136842 C114.66928,114.747368 112.249112,109 112.249112,109 L103.778524,110.642105 Z" id="Path" fill="#FFC1C7" fill-rule="nonzero"></path>
                <path d="M102.712728,80 L102.881518,80.1918704 C104.944195,82.5357294 106.562971,85.2426935 107.657174,88.1778597 C110.279382,95.2136588 115.915817,112.557075 113.896709,114.305811 C111.100713,116.727398 103.112156,118.341789 102.712728,117.938192 C102.3133,117.534594 94.3247423,92.5115313 94.3247423,92.5115313 L102.712728,80 Z" id="Path" fill="#3F3D56" fill-rule="nonzero"></path>
                <path d="M89.9428648,253.564358 C89.9428648,253.564358 99.7423137,255.544556 100.150624,253.564358 C100.411747,252.333322 100.822947,251.136793 101.375555,250 C101.375555,250 110.257465,250.358959 107.938565,257.911686 C107.706037,258.65598 107.198438,259.290829 106.513096,259.694506 C104.397836,260.950063 99.4152162,263.911169 96.8841411,265.445549 C94.981721,266.598817 92.2483158,265.737078 90.2971597,264.816242 C88.8590435,264.132698 88.0774573,262.5941 88.3949071,261.071548 L89.9428648,253.564358 Z" id="Path" fill="#3F3D56" fill-rule="nonzero"></path>
                <path d="M61.6260285,254.564356 C61.6260285,254.564356 51.8695481,256.544554 51.4630281,254.564356 C51.2030505,253.333321 50.7936531,252.136793 50.243468,251 C50.243468,251 41.4175118,251.358265 43.7025893,258.8899 C43.937438,259.648486 44.4522939,260.295484 45.1478574,260.70611 C47.2647576,261.968158 52.2029189,264.915857 54.7151882,266.445544 C56.7893794,267.708494 59.8557477,266.554957 61.8049583,265.553615 C62.9171551,264.987988 63.5139902,263.776201 63.2709793,262.577073 L61.6260285,254.564356 Z" id="Path" fill="#3F3D56" fill-rule="nonzero"></path>
                <path d="M49.8709608,115.641026 C49.8709608,115.641026 49.0642381,121.794872 51.0810448,124.25641 C53.0978515,126.717949 56.3247423,136.153846 56.3247423,136.153846 L56.3247423,146 C56.3247423,146 43.8205406,134.512821 41.4003725,127.128205 C38.9802045,119.74359 41.4003725,114 41.4003725,114 L49.8709608,115.641026 Z" id="Path" fill="#FFC1C7" fill-rule="nonzero"></path>
                <circle id="Oval" fill="#FFC1C7" fill-rule="nonzero" cx="78.3247423" cy="55" r="10"></circle>
                <path d="M86.0521475,59.6276596 C86.0521475,59.6276596 83.2642466,72.6489362 86.0521475,74.2765957 C88.8400484,75.9042553 69.3247423,74.2765957 69.3247423,74.2765957 C69.3247423,74.2765957 73.7057294,63.2898936 71.7143716,59.6276596 C69.7230138,55.9654255 86.0521475,59.6276596 86.0521475,59.6276596 Z" id="Path" fill="#FFC1C7" fill-rule="nonzero"></path>
                <path d="M95.6597637,146.361115 C95.6597637,146.361115 99.3229043,151.64242 98.1018574,167.892589 C96.8808105,184.142758 95.6597637,201.205435 95.6597637,201.205435 C95.6597637,201.205435 104.614107,252.393467 101.764998,253.61223 C98.9158886,254.830992 89.5545293,256.049755 88.3334825,254.830992 C87.1124356,253.61223 81.4142169,206.080486 81.4142169,206.080486 L76.1230138,167.08008 L67.9827014,211.768045 C67.9827014,211.768045 63.5055296,255.237246 60.2494046,257.268518 C57.9216823,258.720612 53.3059786,257.681365 50.8630627,256.970668 C49.9200539,256.700262 49.2851049,255.820618 49.3266682,254.84218 C49.6250473,248.006214 50.9647474,221.028057 54.1441703,204.455469 C57.8073109,185.36152 50.4810297,147.173623 56.9932796,146.361115 C63.5055296,145.548606 95.6597637,146.361115 95.6597637,146.361115 Z" id="Path" fill="#2F2E41" fill-rule="nonzero"></path>
                <path d="M67.0762058,72.5702429 C67.0762058,72.5702429 68.7037715,65.2496945 74.8071432,66.0630888 C80.9105148,66.876483 84.9794292,66.4697859 86.2001035,70.5367573 C87.4207778,74.6037286 100.441304,77.8573057 100.441304,77.8573057 C100.441304,77.8573057 103.696435,78.2640028 103.289544,83.5510656 C102.882653,88.8381284 94.7448238,108.359591 94.7448238,108.359591 C94.7448238,108.359591 95.1517152,124.627476 97.1861724,131.948025 C99.2206296,139.268573 99.2206296,148.21591 94.7448238,150.249396 C90.2690179,152.282882 62.1935085,159.60343 55.6832454,150.656093 C55.6832454,150.656093 52.0212224,137.641785 54.4625711,132.354722 C56.9039197,127.067659 54.0556797,106.326105 54.0556797,106.326105 L46.3247423,89.2448255 C46.3247423,89.2448255 48.7660909,81.1108828 55.6832454,78.6707 C59.7768741,77.2456182 63.6213206,75.1870767 67.0762058,72.5702429 L67.0762058,72.5702429 Z" id="Path" fill="#3F3D56" fill-rule="nonzero"></path>
                <path d="M49.885597,85 L46.6706845,88.6799571 C46.6706845,88.6799571 37.025947,112.80412 39.8389954,115.257425 C42.6520439,117.71073 50.6893251,119.346266 51.0911892,118.937382 C51.4930532,118.528498 58.3247423,97.6754077 58.3247423,97.6754077 L49.885597,85 Z" id="Path" fill="#3F3D56" fill-rule="nonzero"></path>
                <path d="M89.3247423,49.9011907 C89.3247423,49.9011907 87.7027525,51.100042 87.297255,53.8973616 C86.8917576,56.6946812 84.4017031,52.3034649 83.8219918,58.0956268 C83.2422805,63.8877887 73.5103417,67.8839596 69.8608646,65.08664 C66.2113876,62.2893204 60.1289258,44.7061686 68.6443723,41.908849 C77.1598188,39.1115295 85.6752652,39.5111465 87.297255,42.3084661 C88.9192448,45.1057857 89.3247423,49.9011907 89.3247423,49.9011907 Z" id="Path" fill="#2F2E41" fill-rule="nonzero"></path>
                <path d="M81.5834681,58.0969497 C82.1489479,52.3043429 84.5779963,56.6959115 84.9735585,53.8983751 C85.3691206,51.1008387 86.9513693,49.9018946 86.9513693,49.9018946 C86.9513693,49.9018946 86.5558071,45.1061179 84.9735585,42.3085816 C84.2165237,40.9700643 81.9179001,40.1822301 78.81854,40.0291449 C83.0944443,39.8312232 86.4070757,40.646845 87.3469314,42.3085816 C88.9291801,45.1061179 89.3247423,49.9018946 89.3247423,49.9018946 C89.3247423,49.9018946 87.7424936,51.1008387 87.3469314,53.8983751 C86.9513693,56.6959115 84.5223209,52.3043429 83.9568411,58.0969497 C83.4773564,63.007825 76.5823479,66.6257669 72.3247423,65.9094057 C76.3822489,65.3464495 81.1860705,62.1670214 81.5834681,58.0969497 Z" id="Path" fill="#000000" fill-rule="nonzero" opacity="0.1"></path>
            </g>
        </g>
    </g>
</svg>