<?xml version="1.0" encoding="UTF-8"?>
<svg width="418px" height="299px" viewBox="0 0 418 299" version="1.1" xmlns="http://www.w3.org/2000/svg" xmlns:xlink="http://www.w3.org/1999/xlink">
    <!-- Generator: Sketch 53.2 (72643) - https://sketchapp.com -->
    <title>undraw_security_o890</title>
    <desc>Created with Sketch.</desc>
    <defs>
        <linearGradient x1="49.9994739%" y1="100%" x2="49.9994739%" y2="0%" id="linearGradient-1">
            <stop stop-color="#808080" stop-opacity="0.25" offset="0%"></stop>
            <stop stop-color="#808080" stop-opacity="0.12" offset="54%"></stop>
            <stop stop-color="#808080" stop-opacity="0.1" offset="100%"></stop>
        </linearGradient>
        <linearGradient x1="49.9995454%" y1="100.007969%" x2="49.9995454%" y2="0.00176883159%" id="linearGradient-2">
            <stop stop-color="#808080" stop-opacity="0.25" offset="0%"></stop>
            <stop stop-color="#808080" stop-opacity="0.12" offset="54%"></stop>
            <stop stop-color="#808080" stop-opacity="0.1" offset="100%"></stop>
        </linearGradient>
    </defs>
    <g id="Portfolio" stroke="none" stroke-width="1" fill="none" fill-rule="evenodd">
        <g id="Code-of-Ethics" transform="translate(-801.000000, -2468.000000)">
            <g id="undraw_security_o890" transform="translate(802.000000, 2468.000000)">
                <path d="M410.400137,201.03867 C400.737033,221.010115 381.116238,234.364493 360.782622,243.171459 C333.408068,255.031895 303.262236,259.735988 273.531005,257.746496 C268.320615,257.399124 263.125984,256.844058 257.947112,256.081298 C239.960702,253.452324 222.42522,248.336315 205.841993,240.879534 C201.055901,238.719999 196.366792,236.362487 191.774666,233.806997 C184.104643,229.54767 176.755605,224.732368 169.786283,219.399573 C168.033323,218.05867 166.304608,216.683758 164.600138,215.274838 C163.418163,214.29831 162.247098,213.29992 161.057849,212.33068 C158.548424,210.286531 155.966262,208.344408 153.085878,206.890548 C152.216782,206.45158 151.325797,206.057537 150.416432,205.70997 C141.295217,202.233823 130.777453,203.545577 121.281644,206.256534 C114.058864,208.318901 107.017926,211.142815 99.8024203,213.157814 C96.5929205,214.081368 93.3226141,214.777827 90.0156627,215.242044 C82.6324077,216.17845 75.1345915,215.51869 68.0272806,213.307208 L67.419927,213.117732 C66.4016096,212.797082 65.3917782,212.446066 64.3904328,212.064686 L63.7830792,211.831485 C62.8132531,211.457393 61.8640358,211.055365 60.9354273,210.625401 L60.3280737,210.348475 C59.3582476,209.896649 58.4090303,209.419317 57.4804218,208.916478 C57.1458318,208.741577 56.8148787,208.552102 56.4875624,208.373558 C51.204194,205.417143 46.4016946,201.670808 42.2456662,197.263736 C42.1256502,197.143492 42.0129079,197.019604 41.8819814,196.89936 C41.3037226,196.272633 40.7363743,195.634975 40.1872103,194.982743 C39.9835468,194.742254 39.7798833,194.501766 39.5798567,194.253991 C38.9276487,193.457222 38.298474,192.642235 37.6923327,191.809028 C37.6014115,191.688784 37.5141271,191.564896 37.4268428,191.444652 C34.9434454,188.002541 32.8845936,184.272191 31.2951173,180.33483 C31.2442014,180.214586 31.1969224,180.090698 31.1532802,179.970454 C30.6683672,178.71943 30.225884,177.447758 29.8258308,176.155439 C29.6621726,175.616162 29.5057882,175.062311 29.367588,174.523034 C29.3203089,174.362709 29.2766668,174.19874 29.2366614,174.038414 C27.2291214,166.120526 27,157.889273 27,149.70539 C27,148.750725 27,147.797275 27,146.845039 C27.0581896,133.607262 27.261853,120.143571 29.2112035,107.087982 C29.2112035,106.996888 29.2366614,106.905794 29.2512088,106.818344 C29.9036451,102.423168 30.7911006,98.0662511 31.9097446,93.7663981 C33.080515,89.2546806 34.5767702,84.8341054 36.3867043,80.539552 C40.8709377,69.9726502 47.3918059,60.3567695 54.63277,51.4441344 C72.8715619,29.0167962 96.7911103,10.1894922 124.787565,3.1424618 C154.955218,-4.44748872 188.483318,2.82545474 212.817467,22.2357603 C220.236637,28.1532253 226.902979,35.1601743 235.234997,39.6966546 C242.508693,43.6464896 251.022554,45.2825375 258.812682,42.1744109 C265.249903,39.6055606 269.439551,38.3302449 276.669605,38.7201271 C291.63746,39.5684938 306.393169,42.6650238 320.442706,47.9060442 C321.010054,48.1137385 321.577402,48.3287203 322.141114,48.5437021 C358.767808,62.5831064 390.252,90.4760835 406.617816,126.319743 C407.051813,127.267121 407.472475,128.221786 407.879802,129.183738 C417.637465,152.019177 421.165207,178.782589 410.400137,201.03867 Z" id="Path" fill="#1800AD" fill-rule="nonzero" opacity="0.1"></path>
                <ellipse id="Oval" fill="#1800AD" fill-rule="nonzero" opacity="0.1" cx="44" cy="265.188482" rx="32" ry="5"></ellipse>
                <ellipse id="Oval" fill="#1800AD" fill-rule="nonzero" opacity="0.1" cx="332" cy="292.688482" rx="57" ry="5.5"></ellipse>
                <rect id="Rectangle" fill="url(#linearGradient-1)" fill-rule="nonzero" x="42" y="39.1884817" width="346" height="196" rx="12.49"></rect>
                <rect id="Rectangle" fill="#FFFFFF" fill-rule="nonzero" x="43" y="42.1884817" width="345" height="192" rx="12.49"></rect>
                <rect id="Rectangle" fill="#FFFFFF" fill-rule="nonzero" x="43" y="42.1884817" width="345" height="192" rx="12.49"></rect>
                <rect id="Rectangle" fill="#FFFFFF" fill-rule="nonzero" opacity="0.04" x="43" y="42.1884817" width="345" height="192" rx="12.49"></rect>
                <path d="M386.262946,40.1884817 L44.7516203,40.1884817 C43.7842271,40.1884817 43,40.9594281 43,41.9104387 L43,49.1884817 L388,49.1884817 L388,41.9104387 C388.000033,40.9649924 387.224646,40.196344 386.262946,40.1884817 Z" id="Path" fill="#5A5773" fill-rule="nonzero"></path>
                <g id="6c975d28-8d47-4ade-9154-b3b78f637b65" transform="translate(47.000000, 42.188482)" fill="#FFFFFF" fill-rule="nonzero">
                    <ellipse id="Oval" cx="2.41346939" cy="2.43571429" rx="2.3877551" ry="2.32142857"></ellipse>
                    <ellipse id="Oval" cx="8.84204082" cy="2.43571429" rx="2.3877551" ry="2.32142857"></ellipse>
                    <ellipse id="Oval" cx="15.2706122" cy="2.43571429" rx="2.3877551" ry="2.32142857"></ellipse>
                </g>
                <rect id="Rectangle" fill="#1800AD" fill-rule="nonzero" opacity="0.2" x="71" y="66.1884817" width="93" height="8"></rect>
                <rect id="Rectangle" fill="#5A5773" fill-rule="nonzero" opacity="0.1" x="71" y="97.1884817" width="288" height="121"></rect>
                <path d="M239.753201,105.610039 L234.79561,105.610039 L234.79561,96.0690486 C234.79561,85.3028097 226.131715,76.3526939 215.265259,76.1895691 C209.972879,76.1344779 204.87724,78.1747203 201.109426,81.8574213 C197.341612,85.5401222 195.213357,90.5605894 195.197073,95.8044239 L195.197073,105.610039 L190.250457,105.610039 C185.699693,105.62397 182.014061,109.275611 182,113.784405 L182,153.014115 C182.014061,157.52291 185.699693,161.17455 190.250457,161.188482 L239.753201,161.188482 C244.303368,161.17454 247.987947,157.522323 248,153.014115 L248,113.784405 C247.987947,109.276197 244.303368,105.62398 239.753201,105.610039 Z M217.892233,131.111888 L217.892233,145.162373 C217.902159,146.706221 216.702282,147.993307 215.148179,148.10587 C214.358086,148.142527 213.587277,147.857192 213.015007,147.316221 C212.442736,146.77525 212.118877,146.025787 212.118743,145.242123 L212.118743,131.104638 C209.362529,129.772883 207.898767,126.732591 208.588518,123.772222 C209.278269,120.811853 211.938983,118.714899 215.005488,118.714899 C218.071994,118.714899 220.732708,120.811853 221.422458,123.772222 C222.112209,126.732591 220.648447,129.772883 217.892233,131.104638 L217.892233,131.111888 Z M229.029436,105.610039 L200.970564,105.610039 L200.970564,95.8044239 C200.970564,88.1306423 207.249299,81.9098132 214.994512,81.9098132 C222.739725,81.9098132 229.01846,88.1306423 229.01846,95.8044239 L229.029436,105.610039 Z" id="Shape" fill="#000000" fill-rule="nonzero" opacity="0.1"></path>
                <path d="M239.753201,104.610039 L234.79561,104.610039 L234.79561,95.0690486 C234.79561,84.3028097 226.131715,75.3526939 215.265259,75.1895691 C209.972879,75.1344779 204.87724,77.1747203 201.109426,80.8574213 C197.341612,84.5401222 195.213357,89.5605894 195.197073,94.8044239 L195.197073,104.610039 L190.250457,104.610039 C185.699693,104.62397 182.014061,108.275611 182,112.784405 L182,152.014115 C182.014061,156.52291 185.699693,160.17455 190.250457,160.188482 L239.753201,160.188482 C244.303368,160.17454 247.987947,156.522323 248,152.014115 L248,112.784405 C247.987947,108.276197 244.303368,104.62398 239.753201,104.610039 L239.753201,104.610039 Z M217.892233,130.111888 L217.892233,144.162373 C217.902159,145.706221 216.702282,146.993307 215.148179,147.10587 C214.358086,147.142527 213.587277,146.857192 213.015007,146.316221 C212.442736,145.77525 212.118877,145.025787 212.118743,144.242123 L212.118743,130.104638 C209.362529,128.772883 207.898767,125.732591 208.588518,122.772222 C209.278269,119.811853 211.938983,117.714899 215.005488,117.714899 C218.071994,117.714899 220.732708,119.811853 221.422458,122.772222 C222.112209,125.732591 220.648447,128.772883 217.892233,130.104638 L217.892233,130.111888 Z M229.029436,104.610039 L200.970564,104.610039 L200.970564,94.8044239 C200.970564,87.1306423 207.249299,80.9098132 214.994512,80.9098132 C222.739725,80.9098132 229.01846,87.1306423 229.01846,94.8044239 L229.029436,104.610039 Z" id="Shape" fill="#1800AD" fill-rule="nonzero"></path>
                <rect id="Rectangle" fill="#5A5773" fill-rule="nonzero" opacity="0.1" x="330" y="86.1884817" width="29" height="7"></rect>
                <path d="M368.971891,294.259113 C368.778831,293.293134 368.448594,292.359451 367.991126,291.486187 L363.599642,284.956509 L363.625259,284.956509 C363.625259,284.956509 362.9336,281.677096 363.625259,280.066539 C364.316918,278.455983 361.158708,274.495179 361.158708,274.495179 C361.158708,274.495179 360.774454,273.500424 361.777176,272.276109 C362.779898,271.051795 361.158708,267.466303 361.158708,267.466303 C361.158708,267.466303 360.390199,259.978308 360.313348,258.834157 C360.236497,257.690006 359.618029,251.349806 359.618029,251.349806 L358.154201,237.907853 L355.548587,202.282488 L355.501013,201.615674 C355.823055,201.458991 355.995055,201.360609 355.995055,201.360609 L355.475396,181.662263 L355.925523,181.257802 C359.855901,177.716035 368.920657,169.517501 368.829168,169.338955 C368.737678,169.160409 367.731296,155.649224 367.61419,152.267784 C367.513539,149.864743 366.985708,147.498512 366.055213,145.278989 C365.82832,144.830803 365.173257,141.875687 364.902449,140.625865 C364.829257,140.283349 364.781683,140.068365 364.781683,140.068365 C364.781683,140.068365 362.124835,135.025356 362.355388,132.73341 C362.585941,130.441464 363.047047,128.725237 357.382032,127.923603 C357.382032,127.923603 352.624591,127.216707 349.792084,125.28914 C348.116913,124.134542 346.286048,123.221829 344.353962,122.578158 C344.353962,122.578158 342.765709,119.663124 341.660519,120.650592 C341.192524,119.610432 340.842696,118.521473 340.617541,117.403972 L340.584605,117.19992 C342.682533,115.743336 344.192285,113.591787 344.844345,111.129361 C344.88094,110.990896 344.910217,110.848788 344.943153,110.710324 C345.052961,110.747379 345.167621,110.768248 345.283493,110.772269 C346.24596,110.772269 346.83881,109.704637 347.739065,109.365765 C348.105022,109.223657 348.555149,109.201794 348.836936,108.913934 C349.024631,108.689675 349.111913,108.398672 349.078467,108.108656 C349.08758,108.009266 349.08758,107.909255 349.078467,107.809865 C349.080219,107.774663 349.080219,107.739397 349.078467,107.704195 L349.078467,107.740633 C348.833276,106.414292 347.801277,105.237347 347.914724,103.889144 C348.024511,102.621104 349.14434,101.506103 349.05285,100.270857 C349.05159,100.173191 349.043027,100.075754 349.027233,99.9793537 L349.027233,100.023079 C348.890848,99.5408224 348.639795,99.0983745 348.295319,98.7331764 C347.901378,98.1987795 347.384296,97.7664035 346.787576,97.472424 C346.278896,97.2501527 345.689705,97.1991396 345.213961,96.9331427 C343.816006,96.1752337 343.819665,94.2002979 342.988943,92.8520944 C342.263243,91.7045761 340.953026,91.0586248 339.596521,91.1795934 C338.557203,91.2816196 337.616694,91.8318324 336.588354,92.0103782 C335.18308,92.2581561 333.752188,91.802682 332.420104,91.2816196 C331.088021,90.7605572 329.737639,90.1884817 328.306747,90.1884817 C326.875855,90.1884817 325.327857,90.9172403 324.896028,92.2617999 C324.665475,92.9905586 324.778922,93.7739741 324.603262,94.5136641 C324.288539,95.818142 323.139434,96.750953 321.950074,97.3995482 C321.21816,97.8040092 320.347182,98.2667709 320.120289,99.0319675 C320.120289,99.0101047 320.120289,98.9918858 320.120289,98.9736668 C320.103889,99.0347173 320.091663,99.096804 320.083693,99.1595002 C320.076377,99.2407153 320.076377,99.3224193 320.083693,99.4036344 C320.083693,99.9283406 320.36182,100.42754 320.548458,100.92674 C320.896231,101.876456 320.888435,102.919182 320.526501,103.863637 C320.255693,104.555958 319.794587,105.164471 319.531098,105.853148 C319.406932,106.173952 319.325724,106.509636 319.289566,106.851547 L319.289566,106.793247 C319.280474,106.948583 319.280474,107.104316 319.289566,107.259652 C319.285037,107.791792 319.410637,108.317035 319.655523,108.790045 C319.994695,109.449905 320.587265,109.945307 321.29867,110.163755 C322.030584,110.33137 322.488031,109.617186 323.2602,109.799376 C323.398396,109.832507 323.534125,109.87512 323.666412,109.926909 C323.692029,110.090879 323.717646,110.25485 323.746923,110.415177 C324.21381,112.867495 325.526337,115.080407 327.457727,116.67157 C327.457727,116.759021 327.487003,116.846472 327.497982,116.937567 L327.497982,116.937567 C327.731714,118.3903 327.833374,119.861063 327.801727,121.331981 C327.801727,121.331981 326.648962,119.652193 325.068028,122.895168 C325.068028,122.895168 320.943692,125.263634 319.520119,125.533275 C318.096546,125.802915 313.04268,127.55558 313.04268,127.55558 C312.280355,128.104437 311.363169,128.399069 310.422428,128.397296 C308.845153,128.397296 307.535027,131.833393 307.725325,133.702659 C307.915622,135.571924 307.611878,136.949278 306.14439,137.025798 C304.676903,137.102318 305.478349,140.064721 305.489327,140.115734 L305.353923,140.753398 C305.068477,142.057876 304.44635,144.856309 304.226776,145.293564 C303.296279,147.513254 302.767258,149.879267 302.664139,152.28236 C302.550692,155.6638 301.566268,169.123971 301.452821,169.35353 C301.37597,169.502926 307.586261,175.154449 311.952128,179.10432 L312.585234,179.672752 L310.57613,198.358123 C310.694683,199.815169 311.44915,201.14711 312.640127,202.001916 C312.640127,202.220544 312.640127,202.442815 312.61817,202.672374 C312.53034,204.85865 312.354681,207.504044 312.003362,208.196364 C311.388554,209.420679 311.542256,215.986794 311.542256,215.986794 C311.542256,215.986794 310.923789,229.352227 310.155279,230.8061 C309.38677,232.259974 309.229408,235.309829 309.459961,235.907411 C309.690514,236.504993 308.687792,252.555901 308.687792,252.555901 L307.919282,259.737817 C307.919282,259.737817 308.149835,266.610011 307.454516,266.763051 C306.759198,266.91609 306.374943,271.653021 306.374943,271.653021 C306.374943,271.653021 303.912053,275.012598 304.987966,276.233269 C306.06388,277.453939 304.830605,277.993221 304.717158,278.295656 C304.603711,278.59809 302.367714,279.753173 303.985244,284.023698 C304.000098,284.065872 304.0172,284.107227 304.036478,284.147587 C302.521416,286.242768 297.72006,293.002005 298.012825,294.029554 C298.228911,294.683232 298.686896,295.230444 299.293675,295.559947 C300.424482,296.234049 302.364054,296.547415 305.449072,295.559947 C310.57247,293.916597 310.206513,292.732364 310.206513,292.732364 C310.260986,291.582628 311.20968,290.676449 312.36566,290.669977 C314.484551,290.516938 316.065485,288.571152 316.065485,288.571152 L315.816634,287.649272 L315.476294,286.373945 C315.51655,286.009566 315.776379,285.371902 316.940122,285.018454 C318.715014,284.482816 318.250248,281.123239 318.250248,281.123239 C318.250248,281.123239 318.096546,277.610623 318.865056,277.151505 C319.633566,276.692387 319.329822,270.887824 319.329822,270.887824 C319.329822,270.887824 320.178842,266.686531 321.408457,263.858947 C322.638073,261.031364 324.10922,244.233478 324.10922,244.233478 C324.10922,244.233478 325.108283,235.98393 326.034154,233.615465 C326.960025,231.246999 327.809046,224.604365 327.809046,224.604365 C327.809046,224.604365 333.514316,213.603753 333.587507,211.158768 C333.587507,211.158768 334.319421,208.866822 335.051335,211.388327 C335.783249,213.909832 337.839927,219.943953 337.839927,219.943953 L339.841712,227.351785 L342.231412,238.425272 L343.77575,247.746094 C343.77575,247.746094 343.541538,251.258711 344.141707,252.483025 C344.741877,253.70734 345.605535,256.527636 345.144429,257.063273 C344.683324,257.598911 346.066641,260.120416 346.454556,260.65241 C346.84247,261.184403 346.454556,272.491093 346.454556,272.491093 C346.454556,272.491093 348.225788,282.114351 350.769189,283.786852 C350.946567,283.902909 351.135409,284.000586 351.332763,284.078355 C351.296167,285.12048 351.259571,286.516053 351.307146,287.244811 C351.301514,287.407693 351.328896,287.570034 351.387656,287.722148 C351.618209,288.028227 354.238461,290.090614 354.780078,290.090614 C355.321694,290.090614 357.242968,291.427886 357.323479,292.076481 C357.403989,292.725076 362.955557,295.472496 363.742365,295.55266 C364.529173,295.632823 368.342445,296.314212 368.865763,295.246581 C368.995207,294.934292 369.032037,294.591603 368.971891,294.259113 Z M355.332673,156.625761 L355.727906,156.964634 C355.727906,156.964634 356.134119,160.116515 356.423225,161.060257 C356.712331,162.003999 356.364672,163.840471 356.364672,163.840471 C356.391256,164.525868 356.528412,165.202543 356.770884,165.844557 C357.114883,166.533234 356.075566,168.030833 356.075566,168.030833 L355.149694,168.030833 L354.860588,156.232231 L355.332673,156.625761 Z M327.801727,121.397569 L327.801727,121.328337 C327.794407,121.3502 327.790748,121.375707 327.790748,121.397569 L327.801727,121.397569 Z M313.584296,166.81745 C313.441842,166.512213 313.420918,166.164549 313.525743,165.844557 C313.60802,165.671573 313.672986,165.490941 313.719701,165.305276 C313.833421,164.826608 313.904449,164.338873 313.931956,163.847759 C313.932501,163.841698 313.932501,163.835601 313.931956,163.82954 C313.89902,163.654638 313.602594,161.963918 313.877062,161.067545 C314.15153,160.171172 314.568721,156.971921 314.568721,156.971921 L314.83221,156.74965 L315.443358,156.2213 C315.443358,156.2213 315.443358,156.024535 315.487273,155.700237 C315.615358,158.46952 315.717826,161.530306 315.553145,161.683346 C315.245741,161.985781 314.125913,164.962759 314.396721,165.079361 C314.484551,165.119443 314.363785,166.310963 314.158849,167.914232 C313.928666,167.570045 313.736056,167.202366 313.584296,166.81745 L313.584296,166.81745 Z" id="Shape" fill="url(#linearGradient-2)" fill-rule="nonzero"></path>
                <path d="M344,124.936929 L344,129.491314 L334.48629,134.188482 C334.48629,134.188482 325.039684,128.576044 327.369648,126.342785 C328.860825,124.929607 328.573773,121.048861 328.171156,118.379933 L328.171156,118.379933 C327.936295,116.827634 327.664155,115.689038 327.664155,115.689038 C327.664155,115.689038 344.63375,110.929632 342.068926,114.54312 C341.211499,115.751277 341.144396,117.314558 341.431448,118.863196 C342.013007,121.934843 344,124.936929 344,124.936929 Z" id="Path" fill="#C37098" fill-rule="nonzero"></path>
                <path d="M318,168.557866 L316.776718,183.188482 C316.776718,183.188482 314.943653,181.574492 312.571453,179.473056 C308.172842,175.577095 301.926294,170.005763 302.000658,169.857723 C302.115922,169.630248 303.116113,156.357262 303.22394,153.020961 C303.3256,150.652797 303.856768,148.320629 304.793013,146.131718 C305.016104,145.698432 305.644477,142.939846 305.908468,141.650821 C305.997705,141.250032 306.053477,140.99006 306.053477,140.99006 L308.105915,140.188482 C308.105915,140.188482 316.657736,149.453575 316.657736,149.623279 C316.657736,149.792982 316.073981,156.909701 316.073981,156.909701 L315.467917,157.422422 L315.203926,157.642676 C315.203926,157.642676 314.794926,160.751501 314.504908,161.683066 C314.21489,162.61463 314.527217,164.23223 314.560681,164.405544 L314.560681,164.405544 C314.533327,164.892033 314.462414,165.375286 314.348744,165.84983 C314.300223,166.032329 314.234249,166.210027 314.15168,166.380605 C314.046892,166.696686 314.068123,167.039452 314.211171,167.341055 C314.376403,167.75968 314.591009,168.158311 314.850699,168.52898 L318,168.557866 Z" id="Path" fill="#3F3D56" fill-rule="nonzero"></path>
                <path d="M368.999349,169.854364 C369.088648,170.031334 359.961577,178.117761 356.006389,181.610202 L354.212974,183.188482 L353,168.55418 L356.144058,168.55418 C356.144058,168.55418 357.193318,167.084249 356.843565,166.405263 C356.599752,165.772214 356.462803,165.105116 356.438,164.429705 C356.438,164.429705 356.784032,162.623892 356.493811,161.688482 C356.203591,160.753071 355.794305,157.647074 355.794305,157.647074 L355.396182,157.314805 L354.923643,156.913914 C354.923643,156.913914 354.33948,149.795403 354.33948,149.625656 C354.33948,149.45591 362.897272,140.188482 362.897272,140.188482 L364.936259,140.979427 C364.936259,140.979427 364.980908,141.192513 365.055324,141.532006 C365.330661,142.76357 365.989239,145.678151 366.216207,146.122381 C367.153106,148.311843 367.684644,150.644599 367.786376,153.01336 C367.883116,156.350501 368.880285,169.626832 368.999349,169.854364 Z" id="Path" fill="#3F3D56" fill-rule="nonzero"></path>
                <path d="M368.879364,295.603585 C368.358447,296.666385 364.701397,295.967558 363.946598,295.909322 C363.1918,295.851087 357.862145,293.095814 357.787728,292.451583 C357.713312,291.807352 355.867068,290.478852 355.349695,290.478852 C354.832321,290.478852 352.319871,288.426047 352.09662,288.123949 C352.040045,287.973261 352.014699,287.812106 352.022204,287.650785 C351.944243,286.402359 352.09662,283.188482 352.09662,283.188482 L362.816173,283.796316 L368.025344,291.843749 C368.46439,292.71196 368.781734,293.639562 368.967956,294.599021 C369.031169,294.935761 369.000459,295.283993 368.879364,295.603585 L368.879364,295.603585 Z" id="Path" fill="#3F3D56" fill-rule="nonzero"></path>
                <path d="M368.879364,295.603585 C368.358447,296.666385 364.701397,295.967558 363.946598,295.909322 C363.1918,295.851087 357.862145,293.095814 357.787728,292.451583 C357.713312,291.807352 355.867068,290.478852 355.349695,290.478852 C354.832321,290.478852 352.319871,288.426047 352.09662,288.123949 C352.040045,287.973261 352.014699,287.812106 352.022204,287.650785 C351.944243,286.402359 352.09662,283.188482 352.09662,283.188482 L362.816173,283.796316 L368.025344,291.843749 C368.46439,292.71196 368.781734,293.639562 368.967956,294.599021 C369.031169,294.935761 369.000459,295.283993 368.879364,295.603585 L368.879364,295.603585 Z" id="Path" fill="#000000" fill-rule="nonzero" opacity="0.1"></path>
                <path d="M368.879216,295.571914 C368.357657,296.692263 364.696101,295.955595 363.940373,295.894206 C363.184645,295.832817 357.848425,292.928351 357.773917,292.249236 C357.699408,291.57012 355.85089,290.169684 355.33288,290.169684 C354.814869,290.169684 352.299323,288.005722 352.075798,287.687267 C352.019153,287.528419 351.993776,287.358538 352.00129,287.188482 L355.478348,289.567305 C355.478348,289.567305 357.699408,291.102029 358.291927,292.011353 C358.884446,292.920678 363.553639,294.812225 363.940373,294.850594 C364.227763,294.881288 367.293251,294.244377 368.967916,294.512954 C369.031207,294.867928 369.000459,295.235016 368.879216,295.571914 L368.879216,295.571914 Z" id="Path" fill="#000000" fill-rule="nonzero" opacity="0.1"></path>
                <path d="M317,288.586047 C317,288.586047 315.422434,290.530193 313.314098,290.680024 C312.158677,290.688634 311.212503,291.592991 311.161531,292.737457 C311.161531,292.737457 311.530121,293.921486 306.432518,295.562317 C303.35479,296.545354 301.419691,296.234729 300.291805,295.562317 C299.686505,295.231178 299.229687,294.685592 299.012797,294.034773 C298.666322,292.817854 305.470498,283.553923 305.470498,283.553923 L311.662813,283.188482 L316.085896,285.169172 L316.764102,287.679753 L317,288.586047 Z" id="Path" fill="#3F3D56" fill-rule="nonzero"></path>
                <path d="M317,288.586047 C317,288.586047 315.422434,290.530193 313.314098,290.680024 C312.158677,290.688634 311.212503,291.592991 311.161531,292.737457 C311.161531,292.737457 311.530121,293.921486 306.432518,295.562317 C303.35479,296.545354 301.419691,296.234729 300.291805,295.562317 C299.686505,295.231178 299.229687,294.685592 299.012797,294.034773 C298.666322,292.817854 305.470498,283.553923 305.470498,283.553923 L311.662813,283.188482 L316.085896,285.169172 L316.764102,287.679753 L317,288.586047 Z" id="Path" fill="#000000" fill-rule="nonzero" opacity="0.1"></path>
                <path d="M316,289.052848 C316,289.052848 314.489301,290.877621 312.470329,291.018252 C311.363882,291.026333 310.457812,291.875161 310.409001,292.949356 C310.409001,292.949356 310.761968,294.060683 305.880432,295.600764 C302.933157,296.523441 301.080079,296.231889 300,295.600764 C302.777851,295.319502 308.91595,293.61478 309.530113,293.024816 C310.267814,292.307941 311.189058,290.339107 311.81381,290.304807 C312.247959,290.277367 314.454004,288.987677 315.777631,288.188482 L316,289.052848 Z" id="Path"></path>
                <path d="M316,289.052848 C316,289.052848 314.489301,290.877621 312.470329,291.018252 C311.363882,291.026333 310.457812,291.875161 310.409001,292.949356 C310.409001,292.949356 310.761968,294.060683 305.880432,295.600764 C302.933157,296.523441 301.080079,296.231889 300,295.600764 C302.777851,295.319502 308.91595,293.61478 309.530113,293.024816 C310.267814,292.307941 311.189058,290.339107 311.81381,290.304807 C312.247959,290.277367 314.454004,288.987677 315.777631,288.188482 L316,289.052848 Z" id="Path" fill="#000000" fill-rule="nonzero" opacity="0.1"></path>
                <path d="M362.90306,280.256099 C362.224209,281.858099 362.90306,285.138908 362.90306,285.138908 C362.90306,285.138908 352.792517,285.672908 350.322656,283.994099 C347.852794,282.315291 346.105115,272.699632 346.105115,272.699632 C346.105115,272.699632 346.466206,261.408822 346.105115,260.874822 C345.744024,260.340821 344.371879,257.824437 344.823242,257.290437 C345.274606,256.756437 344.462152,253.93282 343.844686,252.711204 C343.227221,251.489587 343.483595,247.982011 343.483595,247.982011 L341.974236,238.669927 L339.641589,227.609542 L337.6592,220.206692 C337.6592,220.206692 335.626259,214.179074 334.936575,211.66269 C334.246892,209.146306 333.517488,211.432265 333.517488,211.432265 C333.44527,213.875499 327.870028,224.862733 327.870028,224.862733 C327.870028,224.862733 327.039519,231.501159 326.136792,233.863927 C325.234065,236.226694 324.251898,244.470778 324.251898,244.470778 C324.251898,244.470778 322.807534,261.255205 321.615935,264.078822 C320.424335,266.902439 319.604659,271.097631 319.604659,271.097631 C319.604659,271.097631 319.907975,276.898482 319.153295,277.355674 C318.398615,277.812865 318.521386,281.324099 318.521386,281.324099 C318.521386,281.324099 318.97275,284.678058 317.239514,285.215716 C315.506278,285.753374 315.795151,286.894524 315.795151,286.894524 C315.795151,286.894524 306.154025,288.496525 304.572448,284.220866 C302.99087,279.945208 305.175469,278.807715 305.294629,278.500482 C305.413789,278.193249 306.616222,277.662906 305.561836,276.437632 C304.507451,275.212358 306.915927,271.862056 306.915927,271.862056 C306.915927,271.862056 307.295072,267.132864 307.970312,266.979247 C308.645552,266.825631 308.425287,259.960438 308.425287,259.960438 L309.176356,252.788012 C309.176356,252.788012 310.158523,236.764352 309.931035,236.153544 C309.703548,235.542735 309.855206,232.496009 310.609886,231.032995 C311.364566,229.569981 311.963977,216.227294 311.963977,216.227294 C311.963977,216.227294 311.812319,209.669334 312.41534,208.447717 C312.776431,207.756443 312.928089,205.097415 313.014751,202.928497 C313.079747,201.271634 313.094191,199.900058 313.094191,199.900058 L321.529273,196.696058 L332.361998,193.188482 L341.47593,197.614099 L354.811015,200.207291 L354.977117,202.537141 L357.522807,238.128612 L358.96717,251.555423 C358.96717,251.555423 359.570192,257.886616 359.646021,259.031424 C359.72185,260.176232 360.472919,267.655891 360.472919,267.655891 C360.472919,267.655891 362.054497,271.240275 361.075941,272.461892 C360.097384,273.683509 360.472919,274.656413 360.472919,274.656413 C360.472919,274.656413 363.581911,278.654098 362.90306,280.256099 Z" id="Path" fill="#3F3D56" fill-rule="nonzero"></path>
                <path d="M341.748053,114.606329 C340.929717,115.87171 340.865673,117.509035 341.139638,119.131022 C337.2962,122.053205 332.114106,121.844383 328.483886,118.621036 L328.483886,118.621036 C328.259733,116.995214 328,115.802689 328,115.802689 C328,115.802689 344.195947,110.825527 341.748053,114.606329 Z" id="Path" fill="#000000" fill-rule="nonzero" opacity="0.1"></path>
                <path d="M344.999879,109.688542 C344.999879,115.487499 340.298896,120.188482 334.499939,120.188482 C328.700983,120.188482 324,115.487499 324,109.688542 C324,103.889586 328.700983,99.1886029 334.499939,99.1886029 C337.288789,99.1751809 339.967296,100.277111 341.939333,102.249148 C343.911371,104.221186 345.013301,106.899692 344.999879,109.688542 L344.999879,109.688542 Z" id="Path" fill="#C37098" fill-rule="nonzero"></path>
                <polygon id="Path" fill="#000000" fill-rule="nonzero" opacity="0.1" points="347 127.380108 343.537181 189.188482 324.726138 185.229419 321 160.451836 324.690067 127.188482 327.467536 127.546424 332.365982 128.17192 337.217536 128.472013 342.476693 127.886289"></polygon>
                <polygon id="Path" fill="#1800AD" fill-rule="nonzero" points="347 128.376503 343.537181 190.188482 324.726138 186.229189 321 161.45016 324.690067 128.188482 327.467536 128.542829 332.365982 129.168362 337.217536 129.468472 342.476693 128.882714"></polygon>
                <path d="M332,129.188482 L339,129.417851 L337.031949,132.108385 C337.031949,132.108385 337.169862,137.544064 338.105431,139.102317 C339.041001,140.660569 338.765176,164.733385 338.765176,164.733385 L336.901491,168.188482 L333.71459,164.314695 L333.755591,132.530715 L332,129.188482 Z" id="Path" fill="#3F3D56" fill-rule="nonzero"></path>
                <path d="M332,129.188482 L339,129.417851 L337.031949,132.108385 C337.031949,132.108385 337.169862,137.544064 338.105431,139.102317 C339.041001,140.660569 338.765176,164.733385 338.765176,164.733385 L336.901491,168.188482 L333.71459,164.314695 L333.755591,132.530715 L332,129.188482 Z" id="Path" fill="#000000" fill-rule="nonzero" opacity="0.1"></path>
                <polygon id="Path" fill="#000000" fill-rule="nonzero" opacity="0.1" points="342.586466 122.188482 336 129.342354 339.763158 133.188482 346 127.225693"></polygon>
                <polygon id="Path" fill="#1800AD" fill-rule="nonzero" points="342.586466 122.188482 336 129.342354 339.763158 133.188482 346 127.225693"></polygon>
                <polygon id="Path" fill="#000000" fill-rule="nonzero" opacity="0.1" points="334 129.772884 327.602267 123.188482 327 126.634802 329.9356 134.188482"></polygon>
                <polygon id="Path" fill="#1800AD" fill-rule="nonzero" points="334 128.772884 327.602577 122.188482 327 125.634802 329.937113 133.188482"></polygon>
                <path d="M355,203.337763 C351.924861,204.789882 348.630962,205.734197 345.248517,206.133376 C339.032849,206.917294 334.966119,199.078121 334.966119,199.078121 L332.593258,202.13862 C331.838421,205.388834 320.349729,206.208547 315.679852,204.977188 C314.71087,204.739968 313.799657,204.312757 313,203.720773 C313.06501,202.099245 313.079457,200.756921 313.079457,200.756921 L321.516295,197.621252 L332.351277,194.188482 L341.467108,198.519714 L354.80497,201.057602 L355,203.337763 Z" id="Path" fill="#000000" fill-rule="nonzero" opacity="0.1"></path>
                <path d="M347,128.380119 L343.541748,190.188482 L324.732316,186.229189 L321,161.453776 L324.685437,128.188482 L327.462136,128.550061 C327.391154,129.761787 327.255127,130.9688 327.054646,132.165854 C326.603883,134.281093 329.387795,149.290249 329.387795,149.290249 C329.387795,149.290249 334.677947,166.121764 337.057975,163.695567 C339.438003,161.26937 342.827739,148.458616 342.827739,148.458616 C345.124827,143.707465 342.867406,130.379652 342.69792,130.112083 C342.579833,129.717946 342.507237,129.311525 342.481553,128.900793 L347,128.380119 Z" id="Path" fill="#000000" fill-rule="nonzero" opacity="0.1"></path>
                <polygon id="Path" fill="#000000" fill-rule="nonzero" opacity="0.1" points="355.836431 176.375905 356 182.571959 354.208178 184.188482 353 169.188482 355.67658 169.188482"></polygon>
                <path d="M314.137905,165.188482 L314.137905,165.188482 C314.111136,165.525319 314.041738,165.859915 313.930497,166.188482 C313.930497,166.095982 313.930497,166.043482 313.901387,166.035982 C313.792224,166.015982 313.923219,165.633482 314.137905,165.188482 Z" id="Path" fill="#000000" fill-rule="nonzero" opacity="0.1"></path>
                <path d="M318,169.390034 L316.873288,184.188482 C316.873288,184.188482 315.184932,182.555978 313,180.430436 L313.260274,177.808203 C313.260274,177.808203 314.181507,171.365838 314.517123,168.188482 C314.669311,168.611908 314.866975,169.015112 315.106164,169.390034 L318,169.390034 Z" id="Path" fill="#000000" fill-rule="nonzero" opacity="0.1"></path>
                <path d="M328.328476,122.048892 C328.328476,122.048892 327.185467,120.369518 325.617494,123.611186 C325.617494,123.611186 321.52904,125.978408 320.12226,126.245499 C318.715481,126.512589 313.711155,128.268797 313.711155,128.268797 C312.95537,128.814427 312.046313,129.107665 311.113741,129.106655 C309.545768,129.106655 308.245229,132.542237 308.435731,134.411867 C308.626232,136.281497 308.322162,137.657194 306.871421,137.734028 C305.420679,137.810862 306.21932,140.822028 306.21932,140.822028 L315.887267,151.889799 C315.887267,151.889799 316.49907,162.079466 316.195,162.386802 C315.890931,162.694139 314.780893,165.679693 315.048328,165.782138 C315.315763,165.884584 313.582933,177.153587 313.582933,177.153587 L311.252954,199.022039 C311.252954,199.022039 311.252954,202.680807 315.993508,203.943081 C320.734063,205.205356 332.394948,204.371157 333.145964,201.048996 L335.552876,197.917092 C335.552876,197.917092 339.677964,205.933451 345.982829,205.132181 C352.287693,204.330911 356.302877,202.040522 356.302877,202.040522 L355.614141,175.832772 L355.156205,156.942556 L365,140.789099 C365,140.789099 362.362288,135.750976 362.593088,133.471564 C362.823888,131.192152 363.27816,129.465214 357.662032,128.663944 C357.662032,128.663944 352.92514,127.957802 350.133562,126.029631 C348.474566,124.879214 346.661667,123.967774 344.748233,123.322143 C344.748233,123.322143 343.172933,120.39513 342.07755,121.397632 C342.07755,121.397632 343.176596,125.535698 343.085009,126.154029 C342.993422,126.772361 343.257193,129.567659 343.429377,129.856702 C343.601561,130.145744 345.894905,143.613667 343.561263,148.421287 C343.561263,148.421287 340.1359,161.3843 337.69968,163.839333 C335.26346,166.294366 329.907439,149.262804 329.907439,149.262804 C329.907439,149.262804 327.079226,134.071602 327.537162,131.934882 C327.995098,129.798162 328.328476,122.048892 328.328476,122.048892 Z" id="Path" fill="#3F3D56" fill-rule="nonzero"></path>
                <circle id="Oval" fill="#3F3D56" fill-rule="nonzero" cx="336.5" cy="170.688482" r="1.5"></circle>
                <circle id="Oval" fill="#3F3D56" fill-rule="nonzero" cx="336.5" cy="178.688482" r="1.5"></circle>
                <circle id="Oval" fill="#000000" fill-rule="nonzero" opacity="0.1" cx="336.5" cy="170.688482" r="1.5"></circle>
                <circle id="Oval" fill="#000000" fill-rule="nonzero" opacity="0.1" cx="336.5" cy="178.688482" r="1.5"></circle>
                <path d="M351,278.188482 C351,278.188482 358.239174,278.642185 358.957712,279.095889 C359.67625,279.549593 351,278.188482 351,278.188482 Z" id="Path" stroke="#1800AD" fill="#000000" fill-rule="nonzero" opacity="0.1"></path>
                <path d="M310,272.188482 C310,272.188482 311.470156,274.147753 310.84534,275.049017 C310.220523,275.950282 310,272.188482 310,272.188482 Z" id="Path" stroke="#1800AD" fill="#000000" fill-rule="nonzero" opacity="0.1"></path>
                <path d="M312,279.06208 C312,279.06208 314.743484,277.511442 315.840878,278.54197 C316.938272,279.572498 312,279.06208 312,279.06208 Z" id="Path" stroke="#1800AD" fill="#000000" fill-rule="nonzero" opacity="0.1"></path>
                <path d="M344.992833,109.563679 C344.994846,110.44927 344.881632,111.331439 344.655978,112.188482 C344.203399,111.984412 343.92636,111.52424 343.960767,111.03371 C344.007353,110.612183 344.290454,110.226079 344.229534,109.808094 C344.139945,109.163406 343.351561,108.901279 342.935867,108.391196 C342.423418,107.774846 342.534508,106.878658 342.577511,106.081653 C342.620514,105.284649 342.416251,104.310532 341.660119,104.037779 C341.434354,103.956307 341.187089,103.949223 340.968491,103.857124 C340.37362,103.609167 340.190858,102.879465 339.793082,102.376466 C338.997531,101.363385 337.41718,101.384638 336.209519,101.866383 C335.683867,102.115495 335.145625,102.337768 334.596915,102.532325 C334.041492,102.725981 333.429423,102.681023 332.909057,102.408347 C332.672542,102.259572 332.482613,102.054122 332.238931,101.905348 C331.429045,101.423603 330.368311,101.905348 329.665932,102.525241 C328.963554,103.145133 328.400934,103.977561 327.515794,104.356581 C327.118019,104.533693 326.62707,104.63996 326.440725,105.022523 C326.348489,105.230794 326.309123,105.458186 326.326051,105.684922 C326.326051,107.062855 326.490895,108.462041 326.200626,109.811636 C326.014281,110.679486 325.397908,111.66423 324.505601,111.557962 C324.394407,111.541699 324.285154,111.514404 324.179497,111.476491 C323.446966,107.607341 324.991834,103.661554 328.168575,101.287883 C331.345316,98.9142126 335.607138,98.5212223 339.173232,100.273124 C342.739327,102.025026 344.995885,105.620277 345,109.556595 L344.992833,109.563679 Z" id="Path" fill="#000000" fill-rule="nonzero" opacity="0.1"></path>
                <path d="M323.900571,111.220682 C324.169602,111.28117 324.424285,111.419935 324.700491,111.455516 C325.593675,111.562259 326.210653,110.573111 326.397181,109.70138 C326.687735,108.345749 326.537077,106.940305 326.526316,105.55621 C326.506282,105.328672 326.544532,105.099802 326.637516,104.890848 C326.84198,104.506575 327.33341,104.399832 327.713641,104.221928 C328.581715,103.837654 329.148474,103.019295 329.865891,102.382397 C330.583308,101.7455 331.627149,101.275833 332.43783,101.759732 C332.678164,101.902056 332.871867,102.115541 333.108614,102.264981 C333.631937,102.53486 334.243989,102.579879 334.801718,102.389514 C335.357715,102.225842 335.877843,101.937637 336.412318,101.720593 C337.610404,101.236694 339.195895,101.218903 339.999401,102.2294 C340.397568,102.738206 340.580509,103.467614 341.175965,103.71668 C341.394777,103.80919 341.642286,103.819864 341.868272,103.9017 C342.625146,104.182789 342.818849,105.154146 342.786565,105.954715 C342.754281,106.755285 342.646669,107.65548 343.145273,108.274587 C343.561375,108.779836 344.350534,109.043134 344.440211,109.697822 C344.497604,110.117676 344.217811,110.509065 344.171179,110.928919 C344.149593,111.244124 344.256196,111.554771 344.467172,111.791453 C344.678147,112.028135 344.975912,112.171128 345.293936,112.188482 C346.226578,112.188482 346.804099,111.153079 347.67576,110.822177 C348.034468,110.683411 348.468505,110.662063 348.751885,110.380974 C348.965095,110.107514 349.046414,109.754946 348.974284,109.416733 C348.798517,108.053986 347.697282,106.869143 347.815656,105.502839 C347.926856,104.193463 349.150051,103.051317 348.891781,101.76329 C348.760224,101.288356 348.513983,100.85237 348.174364,100.493054 C347.789857,99.9761229 347.288626,99.5557142 346.710834,99.2655142 C346.21223,99.0520291 345.634709,99.0022159 345.17915,98.7424756 C343.823232,98.0059519 343.826819,96.0845856 343.0269,94.77521 C342.327001,93.6720461 341.064757,93.048772 339.75548,93.1598391 C338.747509,93.2594655 337.832803,93.7896203 336.835594,93.9675246 C335.468915,94.2094744 334.084301,93.7647137 332.789364,93.2559074 C331.494427,92.7471011 330.185141,92.1884817 328.79694,92.1884817 C327.408739,92.1884817 325.905751,92.9000988 325.482475,94.2023582 C325.260076,94.9139754 325.371275,95.6754057 325.199095,96.3905809 C324.89778,97.6608176 323.764262,98.5645713 322.623569,99.1943525 C321.837998,99.628439 320.894595,100.126571 320.801331,101.012534 C320.740351,101.574712 321.052427,102.07996 321.249717,102.624347 C321.585267,103.545308 321.577633,104.554951 321.228194,105.470816 C320.966337,106.143294 320.528713,106.733936 320.263269,107.402856 C319.882185,108.321185 319.916139,109.357479 320.356533,110.249325 C320.694409,110.89903 321.287472,111.381746 321.99583,111.583607 C322.702485,111.750837 323.147284,111.05701 323.900571,111.220682 Z" id="Path" fill="#3F3D56" fill-rule="nonzero"></path>
                <g id="Group" opacity="0.1" transform="translate(319.000000, 100.188482)" fill="#000000" fill-rule="nonzero">
                    <path d="M6.80487805,8.73454545 C6.61463415,9.62545455 5.98170732,10.6363636 5.07073171,10.5272727 C4.78902439,10.4909091 4.53292683,10.3490909 4.25487805,10.2872727 C3.4902439,10.12 3.03658537,10.8327273 2.31585366,10.6509091 C1.59242915,10.4447076 0.986370454,9.95148798 0.640243902,9.28727273 C0.448899322,8.9171464 0.333256723,8.51299643 0.3,8.09818182 C0.227130411,8.74205012 0.345404645,9.39304014 0.640243902,9.97090909 C0.986370454,10.6351243 1.59242915,11.128344 2.31585366,11.3345455 C3.04756098,11.5018182 3.4902439,10.7890909 4.25487805,10.9709091 C4.52257521,11.0635387 4.79488568,11.1424306 5.07073171,11.2072727 C5.98170732,11.32 6.61463415,10.3090909 6.80487805,9.41818182 C6.95486917,8.63107801 7.01378869,7.82950476 6.9804878,7.02909091 C6.97695122,7.60184915 6.91814531,8.17294958 6.80487805,8.73454545 Z" id="Path"></path>
                    <path d="M1.79268293,3.25818182 C1.83928518,2.66230674 1.75695099,2.06342185 1.55121951,1.50181818 C1.38572069,1.12839442 1.24517198,0.744531633 1.1304878,0.352727273 C1.11477856,0.413809068 1.10256387,0.475726475 1.09390244,0.538181818 C1.03170732,1.10909091 1.35365854,1.62909091 1.55121951,2.18545455 C1.67896947,2.53087617 1.76016224,2.89158379 1.79268293,3.25818182 L1.79268293,3.25818182 Z" id="Path"></path>
                    <path d="M29.7439024,1.34181818 C29.5719512,2.37454545 28.7304878,3.34545455 28.6463415,4.43272727 C28.6260573,4.61884956 28.6260573,4.80660499 28.6463415,4.99272727 C28.8292683,3.72363636 29.9597561,2.6 29.7439024,1.34181818 Z" id="Path"></path>
                    <path d="M29.8060976,9.01454545 C29.7750721,9.16660206 29.7029821,9.3073942 29.597561,9.42181818 C29.3268293,9.70909091 28.8658537,9.73090909 28.5,9.87272727 C27.6109756,10.2109091 27.0365854,11.28 26.0707317,11.2690909 C25.5645341,11.2405916 25.1282457,10.9052401 24.9731707,10.4254545 C24.9508684,10.5042632 24.933759,10.5844332 24.9219512,10.6654545 C24.9009532,10.9869881 25.0101407,11.3035236 25.2252121,11.5446101 C25.4402835,11.7856966 25.7433912,11.9313278 26.0670732,11.9490909 C27.0219512,11.9490909 27.6073171,10.8909091 28.4963415,10.5563636 C28.8621951,10.4145455 29.3085366,10.3927273 29.5939024,10.1054545 C29.8113598,9.82597849 29.8942984,9.46565369 29.8207317,9.12 C29.8170732,9.07636364 29.8097561,9.04727273 29.8060976,9.01454545 Z" id="Path"></path>
                    <path d="M25.2182927,8.71272727 C25.1268293,8.05090909 24.3219512,7.78181818 23.897561,7.25818182 C23.637361,6.91422653 23.4961766,6.49579162 23.495122,6.06545455 C23.4658537,6.74181818 23.4768293,7.43272727 23.897561,7.94181818 C24.3182927,8.45090909 24.9585366,8.66909091 25.1634146,9.19272727 C25.2151824,9.03828131 25.2338754,8.87478032 25.2182927,8.71272727 L25.2182927,8.71272727 Z" id="Path"></path>
                    <path d="M23.5170732,4.90545455 C23.5463415,4.08727273 23.3487805,3.08727273 22.5768293,2.80727273 C22.35,2.72363636 22.097561,2.71272727 21.8743902,2.62181818 C21.2670732,2.36727273 21.0768293,1.61818182 20.6743902,1.10181818 C19.8585366,0.0654545455 18.245122,0.0836363636 17.0158537,0.578181818 C16.4670732,0.8 15.9439024,1.09454545 15.3731707,1.26181818 C14.806127,1.46061971 14.181253,1.41446676 13.65,1.13454545 C13.4085366,0.981818182 13.2109756,0.770909091 12.9658537,0.618181818 C12.1353659,0.123636364 11.052439,0.618181818 10.3390244,1.25454545 C9.62560976,1.89090909 9.04756098,2.74181818 8.14390244,3.13454545 C7.73414634,3.31636364 7.23658537,3.42545455 7.02439024,3.81818182 C6.93133152,4.03225586 6.89239413,4.26571274 6.91097561,4.49818182 C6.91097561,4.64 6.91097561,4.78181818 6.91097561,4.92363636 C6.91582373,4.77713992 6.95199106,4.63334739 7.01707317,4.50181818 C7.22926829,4.10909091 7.72682927,4 8.13658537,3.81818182 C9.02195122,3.42545455 9.6,2.58909091 10.3317073,1.93818182 C11.0634146,1.28727273 12.1280488,0.807272727 12.9585366,1.30181818 C13.2036585,1.44727273 13.4012195,1.66545455 13.6426829,1.81454545 C14.1734226,2.09623067 14.7990553,2.14243966 15.3658537,1.94181818 C15.925045,1.74397073 16.4733653,1.51698974 17.0085366,1.26181818 C18.2341463,0.767272727 19.847561,0.745454545 20.6670732,1.78181818 C21.0695122,2.29818182 21.2597561,3.04727273 21.8670732,3.30181818 C22.0902439,3.39636364 22.3426829,3.40727273 22.5695122,3.49090909 C23.195122,3.72363636 23.4439024,4.42181818 23.4987805,5.11272727 L23.5170732,4.90545455 Z" id="Path"></path>
                </g>
                <g id="Group" opacity="0.1" transform="translate(325.000000, 106.188482)" fill="#000000" fill-rule="nonzero">
                    <path d="M0.010754717,2.786 C0.0529536706,1.59268726 0.897367466,0.570013884 2.08283019,0.2765 C3.68141265,-0.1050051 5.35852746,-0.0309093923 6.91528302,0.49 C10.3173585,1.589 6.48509434,5.544 6.48509434,5.544 C6.48509434,5.544 3.93622642,7.994 1.55943396,6.2825 C0.857418027,5.76447874 0.365926936,5.02052446 0.172075472,4.1825 C0.0556995768,3.72594013 0.00145901592,3.25639767 0.010754717,2.786 L0.010754717,2.786 Z" id="Path"></path>
                    <path d="M18.7132075,2.786 C18.6705655,1.59168338 17.824428,0.568692332 16.6375472,0.2765 C15.0401001,-0.104320316 13.3643316,-0.0302291258 11.8086792,0.49 C8.40660377,1.589 12.2388679,5.544 12.2388679,5.544 C12.2388679,5.544 14.7841509,7.994 17.1645283,6.2825 C17.8665442,5.76447874 18.3580353,5.02052446 18.5518868,4.1825 C18.6682627,3.72594013 18.7225032,3.25639767 18.7132075,2.786 L18.7132075,2.786 Z" id="Path"></path>
                    <polygon id="Path" points="6.27358491 0.168 6.27358491 0.3325 12.4862264 0.3325 12.4862264 0.1365"></polygon>
                    <path d="M8.25603774,1.9215 L8.45320755,1.9215 L8.45320755,1.365 C8.45320755,1.365 9.08415094,0.8855 10.1309434,1.365 L10.1309434,1.862 L10.489434,1.862 L10.489434,1.5365 L10.3137736,1.5365 C10.3137736,1.5365 10.3854717,0.861 9.21679245,0.9695 C9.21679245,0.9695 8.27754717,0.882 8.2990566,1.463 L8.08396226,1.463 L8.25603774,1.9215 Z" id="Path"></path>
                </g>
                <path d="M325.001057,108.995881 C325.041664,107.776726 325.85422,106.731906 326.994957,106.432035 C328.533472,106.044872 330.146599,106.120539 331.645091,106.650159 C334.918812,107.776534 331.231132,111.813608 331.231132,111.813608 C331.231132,111.813608 328.778428,114.316665 326.491308,112.568101 C325.814438,112.040151 325.341143,111.279529 325.156292,110.422623 C325.043948,109.956243 324.991749,109.476483 325.001057,108.995881 L325.001057,108.995881 Z" id="Path" fill="#1800AD" fill-rule="nonzero"></path>
                <path d="M343.998943,108.995924 C343.95791,107.775756 343.143695,106.730622 342.001593,106.432105 C340.464246,106.044845 338.852195,106.120516 337.354909,106.650226 C334.081188,107.77659 337.768868,111.813622 337.768868,111.813622 C337.768868,111.813622 340.218122,114.316653 342.508692,112.568107 C343.185562,112.040163 343.658857,111.279548 343.843708,110.422652 C343.956052,109.956276 344.008251,109.476521 343.998943,108.995924 Z" id="Path" fill="#1800AD" fill-rule="nonzero"></path>
                <polygon id="Path" fill="#1800AD" fill-rule="nonzero" points="331 106.117526 331 106.292186 337 106.292186 337 106.084777"></polygon>
                <path d="M333.14307,107.188482 L333.307004,107.188482 L333.307004,106.610682 C333.307004,106.610682 333.831595,106.116464 334.701937,106.610682 L334.701937,107.130338 L335,107.130338 L335,106.788746 L334.853949,106.788746 C334.853949,106.788746 334.913562,106.091027 333.941878,106.200045 C333.941878,106.200045 333.160954,106.11283 333.178838,106.712433 L333,106.712433 L333.14307,107.188482 Z" id="Path" fill="#1800AD" fill-rule="nonzero"></path>
                <rect id="Rectangle" fill="#535461" fill-rule="nonzero" x="43" y="166.188482" width="2" height="47"></rect>
                <path d="M57.9936906,212.352552 L57.862973,214.464376 L57.6814209,217.445128 L57.605169,218.688024 L57.4236168,221.672442 L57.3437338,222.915339 L57.1621817,225.89609 L55.0815938,259.798931 C54.8973812,262.82742 52.4112404,265.188376 49.4062729,265.188482 L38.5930255,265.188482 C35.5887428,265.188261 33.1037043,262.826841 32.9213357,259.798931 L30.8298547,225.89609 L30.6483025,222.915339 L30.5720506,221.672442 L30.3941295,218.680692 L30.3178776,217.437795 L30.1363254,214.457044 L30.0056078,212.34522 C29.9554923,211.526004 30.2429732,210.722308 30.7999574,210.124496 C31.3569416,209.526683 32.1338824,209.187934 32.946753,209.188483 L55.0561765,209.188483 C55.8701033,209.187736 56.6479453,209.527594 57.2046007,210.127182 C57.7612561,210.726769 58.0469479,211.53247 57.9936906,212.352552 L57.9936906,212.352552 Z" id="Path" fill="#3F3D56" fill-rule="nonzero"></path>
                <polygon id="Path" fill="#9D9CB5" fill-rule="nonzero" points="58 215.188482 57.8166819 218.188482 30.1833181 218.188482 30 215.188482"></polygon>
                <polygon id="Path" fill="#9D9CB5" fill-rule="nonzero" points="57 219.188482 56.8198799 222.188482 30.1837225 222.188482 30 219.188482"></polygon>
                <polygon id="Path" fill="#9D9CB5" fill-rule="nonzero" points="57 223.188482 56.8163515 226.188482 30.1873215 226.188482 30 223.188482"></polygon>
                <path d="M26.7979309,183.529661 C38.9414317,192.365013 44,206.188482 44,206.188482 C44,206.188482 29.3639246,205.682655 17.2020691,196.847302 C5.04021358,188.01195 0,174.188482 0,174.188482 C0,174.188482 14.6507592,174.694308 26.7979309,183.529661 Z" id="Path" fill="#1800AD" fill-rule="nonzero"></path>
                <path d="M0,174.188482 C0,174.188482 15.1967282,182.679483 20.070111,189.693789 C24.9434939,196.708094 44,206.188482 44,206.188482" id="Path" stroke="#535461" stroke-width="2"></path>
                <path d="M34.6112559,166.15117 C41.2360067,170.836351 44,178.188482 44,178.188482 C44,178.188482 36.0134949,177.921787 29.3850636,173.225794 C22.7566324,168.5298 20,161.188482 20,161.188482 C20,161.188482 27.9865051,161.437157 34.6112559,166.15117 Z" id="Path" fill="#1800AD" fill-rule="nonzero"></path>
                <path d="M20,161.188482 C20,161.188482 28.2882993,165.693464 30.9455605,169.423589 C33.6028217,173.153714 44,178.188482 44,178.188482" id="Path" stroke="#535461" stroke-width="2"></path>
                <path d="M53.0336449,178.081339 C45.5753004,186.364867 44,197.188482 44,197.188482 C44,197.188482 54.5116155,194.582797 61.9663551,186.299269 C69.4210948,178.015741 71,167.188482 71,167.188482 C71,167.188482 60.4883845,169.794167 53.0336449,178.081339 Z" id="Path" fill="#1800AD" fill-rule="nonzero"></path>
                <path d="M71,167.188482 C71,167.188482 61.2886515,175.675611 58.8193591,181.525538 C56.3500668,187.375466 44,197.188482 44,197.188482" id="Path" stroke="#535461" stroke-width="2"></path>
            </g>
        </g>
    </g>
</svg>