<?xml version="1.0" encoding="UTF-8"?>
<svg width="417px" height="250px" viewBox="0 0 417 250" version="1.1" xmlns="http://www.w3.org/2000/svg" xmlns:xlink="http://www.w3.org/1999/xlink">
    <!-- Generator: Sketch 53.2 (72643) - https://sketchapp.com -->
    <title>undraw_project_feedback_2s92</title>
    <desc>Created with Sketch.</desc>
    <g id="Portfolio" stroke="none" stroke-width="1" fill="none" fill-rule="evenodd">
        <g id="Code-of-Ethics" transform="translate(-200.000000, -2931.000000)" fill-rule="nonzero">
            <g id="undraw_project_feedback_2s92" transform="translate(200.000000, 2931.000000)">
                <path d="M100.305711,197.789963 L99.8456084,197.610401 C99.7445047,197.570743 89.6816762,193.557232 84.9678027,184.456775 C80.2537441,175.35588 82.5619917,164.398374 82.5858542,164.288982 L82.6944958,163.789963 L83.1543916,163.969524 C83.2554953,164.009182 93.3181132,168.022694 98.0321973,177.12315 C102.746256,186.224046 100.438008,197.181551 100.414146,197.290944 L100.305711,197.789963 Z M85.7226512,184.033153 C89.7080514,191.72764 97.6600143,195.671855 99.6747978,196.572267 C100.057863,194.324283 101.259201,185.233866 97.2773597,177.546773 C93.2959354,169.860568 85.3408353,165.910252 83.3252131,165.007659 C82.941934,167.25695 81.7410164,176.346509 85.7226512,184.033153 Z" id="Shape" fill="#3F3D56"></path>
                <path d="M89.7602077,181.335521 C98.5967622,186.400479 102,196.460877 102,196.460877 C102,196.460877 91.0763505,198.309362 82.2397923,193.244408 C73.403234,188.179453 70,178.119048 70,178.119048 C70,178.119048 80.9236533,176.270563 89.7602077,181.335521 Z" id="Path" fill="#D0CDE1"></path>
                <rect id="Rectangle" fill="#3F3D56" x="0" y="196.789963" width="264" height="1"></rect>
                <rect id="Rectangle" fill="#3F3D56" x="153" y="248.789963" width="264" height="1"></rect>
                <path d="M196.694611,190.64166 L215.604095,162.719457 L196.733281,193.645551 L196.772743,196.7875 C195.392275,196.797954 194.025217,196.775128 192.671569,196.719024 L193.609437,156.331337 L193.583741,156.019762 L193.618347,155.959564 L193.708113,152.143169 L173,122.289196 L193.683685,149.286818 L193.757085,150.093484 L194.465474,119.579014 L176.579245,88.6272821 L194.516413,114.218497 L194.329198,51.0003756 L194.329595,50.7899628 L194.335681,50.9968961 L195.52301,100.821283 L211.824174,80.5825898 L195.57639,105.113545 L195.93217,132.408031 L210.932592,105.769647 L195.987288,136.42079 L196.185338,151.597898 L218,114.490952 L196.251651,156.892542 L196.694611,190.64166 Z" id="Path" fill="#3F3D56"></path>
                <path d="M32.6946095,191.64166 L51.6040952,163.719457 L32.7332794,194.645551 L32.7727408,197.7875 C31.3922726,197.797954 30.0252146,197.775128 28.6715668,197.719024 L29.6094349,157.331337 L29.5837388,157.019762 L29.6183454,156.959564 L29.708111,153.143169 L9,123.289196 L29.6836868,150.286818 L29.7570871,151.093484 L30.4654761,120.579014 L12.5792458,89.6272821 L30.5164143,115.218497 L30.3291994,52.0003756 L30.3295971,51.7899628 L30.3356825,51.9968961 L31.5230117,101.821283 L47.8241768,81.5825898 L31.5763886,106.113545 L31.9321682,133.408031 L46.9325909,106.769647 L31.987286,137.42079 L32.1853361,152.597898 L54,115.490952 L32.2516492,157.892542 L32.6946095,191.64166 Z" id="Path" fill="#3F3D56"></path>
                <path d="M164.999981,90.534469 L164.217633,90.534469 L164.217633,69.1605943 C164.217636,65.8796934 162.910713,62.7331692 160.584372,60.4132244 C158.258032,58.0932796 155.102838,56.789953 151.812899,56.7899628 L106.40473,56.7899628 C103.114792,56.789953 99.9595979,58.0932797 97.6332583,60.4132246 C95.3069186,62.7331696 93.999996,65.8796937 94,69.1605943 L94,186.419331 C93.999996,189.700232 95.3069186,192.846756 97.6332583,195.166701 C99.9595979,197.486646 103.114792,198.789973 106.40473,198.789963 L151.812881,198.789963 C155.102822,198.789978 158.258021,197.486653 160.584366,195.166708 C162.91071,192.846762 164.217636,189.700235 164.217633,186.419331 L164.217633,105.748754 L165,105.748754 L164.999981,90.534469 Z" id="Path" fill="#3F3D56"></path>
                <path d="M151.349586,196.789963 L105.650044,196.789963 C100.322063,196.783031 96.0051153,192.461441 96,187.129541 L96,69.4472872 C96.0058803,64.1162065 100.32288,59.7959506 105.650044,59.7899628 L111.751872,59.7899628 L111.540045,60.3055103 C111.341913,60.7887053 111.240581,61.3061502 111.241807,61.828443 C111.244278,64.0572958 113.049177,65.8635212 115.276393,65.8659941 L141.331664,65.8659941 C143.558756,65.8633647 145.36346,64.0571724 145.365887,61.828443 C145.367006,61.3061379 145.265807,60.7886784 145.068016,60.305331 L144.85655,59.7899628 L151.349586,59.7899628 C156.676824,59.7959194 160.993947,64.1161339 161,69.4472872 L161,187.129541 C160.994712,192.461514 156.67764,196.783062 151.349586,196.789963 L151.349586,196.789963 Z M105.650044,60.5371981 C100.735121,60.5428417 96.7522229,64.5287505 96.7466864,69.4472872 L96.7466864,187.129541 C96.7513942,192.048923 100.734277,196.036203 105.650044,196.042728 L151.349586,196.042728 C156.265478,196.036362 160.24856,192.049049 160.253314,187.129541 L160.253314,69.4472872 C160.247732,64.5286251 156.264635,60.5426831 151.349586,60.5371981 L145.936109,60.5371981 C146.338596,61.9788205 146.044188,63.5258571 145.140383,64.71852 C144.236578,65.9111829 142.827401,66.6122016 141.331668,66.6132294 L115.276393,66.6132294 C113.780593,66.6123198 112.371307,65.9113505 111.467416,64.7186702 C110.563524,63.5259898 110.269072,61.9788839 110.671578,60.5371981 L105.650044,60.5371981 Z" id="Shape" fill="#D0CDE1"></path>
                <rect id="Rectangle" fill="#D0CDE1" x="116" y="138.789963" width="38" height="2"></rect>
                <rect id="Rectangle" fill="#D0CDE1" x="116" y="143.789963" width="38" height="2"></rect>
                <rect id="Rectangle" fill="#D0CDE1" x="116" y="147.789963" width="38" height="2"></rect>
                <rect id="Rectangle" fill="#D0CDE1" x="104" y="139.789963" width="9" height="9"></rect>
                <rect id="Rectangle" fill="#D0CDE1" x="116" y="157.789963" width="38" height="2"></rect>
                <rect id="Rectangle" fill="#D0CDE1" x="116" y="162.789963" width="38" height="2"></rect>
                <rect id="Rectangle" fill="#D0CDE1" x="116" y="166.789963" width="38" height="2"></rect>
                <rect id="Rectangle" fill="#D0CDE1" x="104" y="158.789963" width="9" height="9"></rect>
                <path d="M137.43052,111.163699 C135.54473,118.343395 129.085477,122.789963 129.085477,122.789963 C129.085477,122.789963 125.68369,115.595941 127.56948,108.416226 C129.45527,101.236512 135.914523,96.7899628 135.914523,96.7899628 C135.914523,96.7899628 139.31631,103.984 137.43052,111.163699 Z" id="Path" fill="#D0CDE1"></path>
                <path d="M120.56948,111.163699 C122.455267,118.343395 128.914525,122.789963 128.914525,122.789963 C128.914525,122.789963 132.316308,115.595941 130.430522,108.416226 C128.544735,101.236512 122.085474,96.7899628 122.085474,96.7899628 C122.085474,96.7899628 118.68369,103.984 120.56948,111.163699 Z" id="Path" fill="#D0CDE1"></path>
                <path d="M123.112449,109.477853 C128.359154,114.724555 129,122.789963 129,122.789963 C129,122.789963 121.134259,122.348779 115.887554,117.102076 C110.64085,111.855374 110,103.789963 110,103.789963 C110,103.789963 117.865745,104.231128 123.112449,109.477853 Z" id="Path" fill="#6C63FF"></path>
                <path d="M134.887554,109.477853 C129.64085,114.724555 129,122.789963 129,122.789963 C129,122.789963 136.865745,122.348779 142.112446,117.102076 C147.359146,111.855374 148,103.789963 148,103.789963 C148,103.789963 140.134259,104.231128 134.887554,109.477853 Z" id="Path" fill="#6C63FF"></path>
                <polygon id="Rectangle" fill="#6C63FF" transform="translate(49.237808, 72.609362) rotate(-21.144190) translate(-49.237808, -72.609362) " points="43.4830962 67.0539108 54.9925196 67.0539108 54.9925196 78.1648125 43.4830962 78.1648125"></polygon>
                <path d="M55,74.2134231 L43.349762,78.7899628 L39,67.3665103 L50.6502418,62.7899628 L55,74.2134231 Z M43.7147793,77.9899624 L54.2,73.8710783 L50.2852207,63.5899632 L39.8,67.7088474 L43.7147793,77.9899624 Z" id="Shape" fill="#3F3D56"></path>
                <polygon id="Rectangle" fill="#6C63FF" transform="translate(89.349933, 9.395018) rotate(-21.144190) translate(-89.349933, -9.395018) " points="83.5952215 3.83956744 95.1046448 3.83956744 95.1046448 14.9504691 83.5952215 14.9504691"></polygon>
                <path d="M95,12.2134198 L83.349761,16.7899628 L79,5.36650195 L90.650239,0.789962825 L95,12.2134198 Z M83.714782,15.9899619 L94.2000002,11.8710747 L90.2852219,1.589956 L79.8000036,5.70883926 L83.714782,15.9899619 Z" id="Shape" fill="#3F3D56"></path>
                <path d="M315.000299,169.789963 C309.19823,169.789963 304.110571,175.703573 301.305043,184.534045 C301.106599,185.153725 300.920556,185.790355 300.746915,186.436662 C299.565441,190.963533 298.978628,195.618633 299.000595,200.289965 C299.000595,217.108531 306.176892,230.789963 315.000299,230.789963 C323.823706,230.789963 331,217.108549 331,200.289965 C331,183.47138 323.823703,169.789963 315.000299,169.789963 Z M315.000299,230.305836 C306.452233,230.305836 299.49671,216.839843 299.49671,200.289965 C299.47367,195.598874 300.068082,190.924316 301.26536,186.380991 C301.429073,185.773408 301.604367,185.177931 301.791242,184.594559 C304.522355,176.008575 309.421489,170.274101 315.000299,170.274101 C323.548361,170.274101 330.503885,183.740094 330.503885,200.289976 C330.503885,216.839858 323.548361,230.305836 315.000299,230.305836 L315.000299,230.305836 Z" id="Shape" fill="#3F3D56"></path>
                <path d="M318.5,218.789963 C315.415773,218.789963 313,210.883349 313,200.789963 C313,190.696577 315.415773,182.789963 318.5,182.789963 C321.584227,182.789963 324,190.696554 324,200.789963 C324,210.883372 321.584231,218.789963 318.5,218.789963 Z M318.5,183.284121 C315.789795,183.284121 313.5,191.300747 313.5,200.789974 C313.5,210.279202 315.789795,218.295827 318.5,218.295827 C321.210205,218.295827 323.500003,210.279206 323.500003,200.789974 C323.500003,191.300743 321.210205,183.284106 318.5,183.284106 L318.5,183.284121 Z" id="Shape" fill="#3F3D56"></path>
                <ellipse id="Oval" fill="#CFCCE0" cx="319.5" cy="200.789963" rx="2.5" ry="4"></ellipse>
                <polygon id="Path" fill="#3F3D56" points="315 144.915887 348 144.789963 348 158.396303 315 159.789963"></polygon>
                <polygon id="Path" fill="#3F3D56" points="286.491066 189.789963 286 189.763901 287.489416 163.789963 318 163.789963 318 164.262341 287.955589 164.262341"></polygon>
                <polygon id="Path" fill="#3F3D56" points="286.899754 232.789963 270 229.351166 270.100246 228.789963 287 232.229199"></polygon>
                <polygon id="Rectangle" fill="#3F3D56" transform="translate(299.934583, 239.511852) rotate(-85.292150) translate(-299.934583, -239.511852) " points="299.691479 229.149507 300.177686 229.149507 300.177686 249.874198 299.691479 249.874198"></polygon>
                <path d="M338,190.563865 C337.817869,191.087788 337.646261,191.622573 337.485177,192.168222 L336.977635,192.218215 L321.183274,193.789963 L285,190.529081 L322.64032,188.789963 L337.524026,190.509528 L338,190.563865 Z" id="Path" fill="#3F3D56"></path>
                <path d="M328.358492,103.059798 C328.358492,103.059798 323.075472,101.215814 319.679248,108.591755 C316.283023,115.967696 311,124.081231 311,124.081231 L314.01887,124.818825 C314.01887,124.818825 314.773587,119.655665 316.660378,118.918071 L315.905661,125.556418 C315.905661,125.556418 338.547173,133.30116 348.73585,124.818825 L348.358492,122.237247 C348.358492,122.237247 349.867929,122.606043 349.867929,124.818825 L351,123.712438 C351,123.712438 349.867929,121.499664 346.471697,118.549278 C344.242563,116.612783 343.476534,112.928613 343.213294,110.625224 C343.01608,108.701857 342.228688,106.881643 340.954385,105.403304 C338.697407,102.846944 334.584898,100.129911 328.358492,103.059798 Z" id="Path" fill="#2F2E41"></path>
                <path d="M300.639541,109.789963 L298.437844,86.4935691 C298.437844,86.4935691 294.034447,73.8540339 300.639541,74.8453704 C307.244635,75.836707 303.330504,85.5022326 303.330504,85.5022326 L307,109.789963 L300.639541,109.789963 Z" id="Path" fill="#A0616A"></path>
                <polygon id="Path" fill="#A0616A" points="282.424366 213.789963 280 221.950169 284.605813 225.789963 288 215.470103"></polygon>
                <path d="M302.439026,218.789963 L300,228.100309 L308.536588,233.789963 C308.536588,233.789963 308.780489,223.186515 310,221.117548 L302.439026,218.789963 Z" id="Path" fill="#A0616A"></path>
                <path d="M312.048074,172.957515 L310.846152,175.365893 C310.846152,175.365893 297.144228,169.104123 293.538459,177.774267 C289.93269,186.444411 282,213.89991 282,213.89991 L288.971159,216.789963 L301.711543,187.648609 L330.798078,186.926082 L332,170.789963 L312.048074,172.957515 Z" id="Path" fill="#2F2E41"></path>
                <path d="M323.157847,177.258143 C323.157847,177.258143 302.980161,173.162688 301.503748,183.039961 C300.027335,192.917234 302.24197,211.708142 302.488022,212.189961 C302.734075,212.671779 301.503748,221.585415 301.503748,221.585415 L310.362242,222.789963 C310.362242,222.789963 316.021838,196.53087 313.561143,189.785416 L330.210142,188.777178 C335.957246,188.42914 340.652294,183.984415 340.98279,178.356369 C341.109298,176.202016 340.558467,174.246781 338.660219,173.162688 C332.754552,169.789963 321.927502,169.789963 321.927502,169.789963 L323.157847,177.258143 Z" id="Path" fill="#2F2E41"></path>
                <path d="M284.116421,221.18968 C284.116421,221.18968 282.434326,217.539444 280.031338,219.242887 C277.62835,220.946329 272.101468,224.596564 272.101468,224.596564 C272.101468,224.596564 263.551869,227.645357 271.140275,229.706894 C277.89012,231.540621 279.550739,231.166989 279.550739,231.166989 C279.550739,231.166989 285.077596,232.140386 285.798506,231.653687 C286.519416,231.166989 287,223.37982 287,223.37982 C287,223.37982 283.635823,222.649775 284.116421,221.18968 Z" id="Path" fill="#2F2E41"></path>
                <path d="M302.862143,228.177412 C302.862143,228.177412 300.426869,224.657141 298.72218,226.16583 C297.017491,227.674519 290.929291,231.949132 290.929291,231.949132 C290.929291,231.949132 280.701151,234.96651 289.711656,237.732438 C298.722161,240.498366 308.706776,239.99547 308.950301,238.989677 C309.193827,237.983884 308.463247,230.691893 308.463247,230.691893 C308.463247,230.691893 303.349197,230.440447 302.862143,228.177412 Z" id="Path" fill="#2F2E41"></path>
                <circle id="Oval" fill="#A0616A" cx="331.5" cy="117.289963" r="8.5"></circle>
                <path d="M325.721528,122.789963 C325.721528,122.789963 325.240019,132.676529 322.832478,133.399935 C320.424937,134.123341 313.683812,142.080824 316.813618,144.492179 C319.943425,146.903535 338,145.2156 338,145.2156 L336.314721,132.676555 C336.314721,132.676555 332.462649,130.024062 335.592444,125.442482 L325.721528,122.789963 Z" id="Path" fill="#A0616A"></path>
                <path d="M325.771808,137.965217 L324.087738,129.970374 L318.554362,127.789963 L313.983313,138.449753 C313.983313,138.449753 308.810802,172.972945 310.254317,173.457482 C311.064273,173.745355 311.92282,173.868867 312.780422,173.82089 C312.780422,173.82089 320.479049,171.398209 322.884843,172.609551 C325.290637,173.820894 337.800897,174.789963 337.800897,174.789963 C337.800897,174.789963 346.461832,170.18687 345.980669,166.068314 C345.499506,161.949757 345.980669,138.934297 345.980669,138.934297 L344.898032,128.637908 L335.405443,130.133262 L325.771808,137.965217 Z" id="Path" fill="#CFCCE0"></path>
                <polygon id="Path" fill="#CFCCE0" points="318 129.501093 317.762144 128.03441 311.095234 119.723454 307.285884 105.789963 298 109.456671 304.66691 126.323155 314.19065 138.789963"></polygon>
                <path d="M320.378244,118.789963 C320.378244,118.789963 323.404261,114.789962 326.052022,114.062689 C328.699784,113.335417 329.078039,109.699052 329.078039,109.699052 C329.078039,109.699052 335.886572,116.971778 340.04734,117.335415 C344.208108,117.699051 340.425592,108.608144 340.425592,108.608144 L332.860563,106.789963 L325.673778,107.517235 L320,111.153597 L320.378244,118.789963 Z" id="Path" fill="#2F2E41"></path>
                <polygon id="Path" fill="#3F3D56" points="349.505446 175.161966 349.265754 165.271875 326.231075 165.271875 325.494933 191.789963 325 191.777038 325.749037 164.789963 349.744379 164.789963 349.752344 165.022979 350 175.145348"></polygon>
                <polygon id="Path" fill="#3F3D56" points="348.495918 161.789963 348 161.789963 348 142.789963 356 145.122533 355.861401 145.600413 348.495918 143.452816"></polygon>
                <path d="M351.000299,174.789963 C345.198234,174.789963 340.110571,180.703573 337.305043,189.534045 C337.106599,190.153725 336.920556,190.790355 336.746915,191.436658 C335.565441,195.963531 334.978628,200.618632 335.000595,205.289965 C335.000595,222.108531 342.176896,235.789963 351.000299,235.789963 C359.823703,235.789963 367,222.108531 367,205.289965 C367,188.471399 359.823703,174.789963 351.000299,174.789963 Z M351.000299,235.305836 C342.452233,235.305836 335.49671,221.839843 335.49671,205.289965 C335.47367,200.598874 336.068082,195.924316 337.26536,191.380991 C337.429073,190.773408 337.604367,190.177931 337.791242,189.594559 C340.522355,181.008575 345.421489,175.274101 351.000299,175.274101 C359.548361,175.274101 366.503885,188.740094 366.503885,205.289976 C366.503885,221.839858 359.548361,235.305836 351.000299,235.305836 Z" id="Shape" fill="#3F3D56"></path>
                <path d="M354.499998,222.789963 C351.415772,222.789963 349,214.88335 349,204.789965 C349,194.69658 351.415772,186.789963 354.499998,186.789963 C357.584224,186.789963 360,194.696576 360,204.789965 C360,214.883354 357.584228,222.789963 354.499998,222.789963 Z M354.499998,187.284125 C351.789794,187.284125 349.5,195.300749 349.5,204.789976 C349.5,214.279203 351.789794,222.295827 354.499998,222.295827 C357.210202,222.295827 359.5,214.279207 359.5,204.789976 C359.5,195.300746 357.210206,187.284137 354.499998,187.284137 L354.499998,187.284125 Z" id="Shape" fill="#3F3D56"></path>
                <ellipse id="Oval" fill="#CFCCE0" cx="354.5" cy="204.789963" rx="2.5" ry="4"></ellipse>
                <polygon id="Path" fill="#3F3D56" points="351 141.789963 356 143.895205 355.047497 146.789963 351 144.947624"></polygon>
                <polygon id="Path" fill="#3F3D56" points="331 162.789963 331 166.789963 346 166.789963 346 163.055812"></polygon>
                <polygon id="Path" fill="#3F3D56" points="294 161.789963 294 165.789963 309 165.789963 309 162.055429"></polygon>
                <path d="M320.999996,152.017991 L320.878785,152.017991 L320.878785,148.706546 C320.878785,147.648046 320.018338,146.789963 318.956922,146.789963 L311.921863,146.789963 C311.412153,146.789963 310.92332,146.991888 310.562901,147.351317 C310.202481,147.710746 310,148.198237 310,148.706546 L310,166.873379 C310,167.931879 310.860447,168.789963 311.921863,168.789963 L318.956926,168.789963 C320.018341,168.789963 320.878789,167.931879 320.878789,166.873379 L320.878789,154.375133 L321,154.375133 L320.999996,152.017991 Z" id="Path" fill="#3F3D56"></path>
                <circle id="Oval" fill="#D0CDE1" cx="315" cy="152.789963" r="1"></circle>
                <path d="M344.277971,163.56547 L321.281494,163.158849 C321.281494,163.158849 308.44042,165.922137 310.158155,159.88452 C311.87589,153.846903 320.868959,158.504765 320.868959,158.504765 L345,157.650913 L344.277971,163.56547 Z" id="Path" fill="#A0616A"></path>
                <path d="M342.045122,130.789734 L344.303585,129.052497 C344.303585,129.052497 348.067691,127.067082 348.820515,134.016033 C349.573338,140.964985 355.094022,164.04543 349.57335,164.293609 C344.052677,164.541788 330,164.789963 330,164.789963 L331.505643,157.096478 L343.0489,156.351934 L342.045122,130.789734 Z" id="Path" fill="#CFCCE0"></path>
                <polygon id="Path" fill="#000000" opacity="0.15" points="343 141.789963 342.234009 155.608094 331 157.789963 341.212949 153.910961"></polygon>
                <polygon id="Rectangle" fill="#6C63FF" transform="translate(189.715584, 27.874293) rotate(77.217740) translate(-189.715584, -27.874293) " points="183.960872 22.3188422 195.470295 22.3188422 195.470295 33.4297439 183.960872 33.4297439"></polygon>
                <path d="M186.854303,32.7899628 L184,20.4849319 L196.145689,17.7899628 L199,30.0949899 L186.854303,32.7899628 Z M184.749995,20.9654468 L187.318873,32.0399743 L198.250009,29.6145021 L195.681131,18.5399747 L184.749995,20.9654468 Z" id="Shape" fill="#3F3D56"></path>
                <path d="M298,81.7899628 L298,52.7899628 L384,52.7899628 L384,74.2357441 L305.665965,74.2357441 L298,81.7899628 Z M298.747826,53.5268621 L298.747826,80.0110282 L305.356302,73.4988338 L383.252174,73.4988338 L383.252174,53.5268621 L298.747826,53.5268621 Z" id="Shape" fill="#3F3D56"></path>
                <rect id="Rectangle" fill="#6C63FF" x="319" y="57.7899628" width="47" height="4"></rect>
                <rect id="Rectangle" fill="#6C63FF" x="319" y="63.7899628" width="47" height="4"></rect>
            </g>
        </g>
    </g>
</svg>