<?xml version="1.0" encoding="UTF-8"?>
<svg width="493px" height="158px" viewBox="0 0 493 158" version="1.1" xmlns="http://www.w3.org/2000/svg" xmlns:xlink="http://www.w3.org/1999/xlink">
    <title>Group 17</title>
    <defs>
        <polygon id="path-1" points="0 0.899124744 83.0859186 0.899124744 83.0859186 84.3322558 0 84.3322558"></polygon>
        <polygon id="path-3" points="0.504402273 0.220305993 86.3593636 0.220305993 86.3593636 123.999844 0.504402273 123.999844"></polygon>
    </defs>
    <g id="Portfolio" stroke="none" stroke-width="1" fill="none" fill-rule="evenodd">
        <g id="NestEgg_caseStudy" transform="translate(-474.000000, -704.000000)">
            <g id="Group-17" transform="translate(474.000000, 704.000000)">
                <g id="Group-3" transform="translate(0.000000, 31.880000)">
                    <mask id="mask-2" fill="white">
                        <use xlink:href="#path-1"></use>
                    </mask>
                    <g id="Clip-2"></g>
                    <path d="M73.8248721,73.4483023 C71.7571977,70.8864419 70.0038256,68.0853953 68.602314,65.1044651 C65.4691744,58.3894651 63.8877791,51.0557442 63.9688256,43.646907 C63.8620814,36.1253953 65.4474302,28.6750465 68.602314,21.8453953 C69.6420814,19.6492326 70.8597558,17.544 72.2454535,15.5494651 C71.9746395,14.7824884 71.6741744,14.0194651 71.3341744,13.2623721 C69.8733605,9.85248837 67.5328953,6.89132558 64.5539419,4.67934884 C62.7630116,3.44190698 60.7961512,2.48713953 58.7166163,1.84667442 C56.3168488,1.17260465 53.8301047,0.856325581 51.3354535,0.903767442 C46.7415,0.864232558 42.2977791,2.5484186 38.8819651,5.62423256 C35.003593,9.16260465 31.9811512,13.5351628 30.0439419,18.4137674 L29.1820814,18.2417907 L29.1820814,2.96353488 L-0.000593023256,2.96353488 L-0.000593023256,7.08306977 L6.52266279,7.08306977 C7.74231395,6.7845814 8.97184884,7.5317907 9.27033721,8.75144186 C9.35731395,9.10725581 9.35731395,9.47690698 9.27033721,9.83074419 L9.27033721,77.4630698 C9.56684884,78.6827209 8.81766279,79.9122558 7.59801163,80.2087674 C7.24417442,80.2957442 6.8765,80.2957442 6.52266279,80.2087674 L-0.000593023256,80.2087674 L-0.000593023256,84.3283023 L37.4211512,84.3283023 L37.4211512,80.2087674 L31.9317326,80.2087674 C30.7101047,80.5072558 29.4805698,79.7580698 29.1820814,78.5403953 C29.0970814,78.1865581 29.0970814,77.816907 29.1820814,77.4630698 L29.1820814,40.7312093 C29.1425465,35.0164419 30.0439419,29.3333023 31.8447558,23.9091163 C33.2620814,19.3112093 35.5017326,15.009814 38.4510349,11.2065581 C41.0860349,8.00423256 43.604407,6.40306977 46.0041744,6.39912474 C51.2682442,6.39912474 53.9012674,10.8052791 53.9012674,19.6176047 L53.9012674,77.4670233 C54.1977791,78.6866744 53.448593,79.9162093 52.2289419,80.2127209 C51.8751047,80.2996977 51.5074302,80.2996977 51.153593,80.2127209 L45.6621977,80.2127209 L45.6621977,84.3322558 L83.0859186,84.3322558 L83.0859186,81.6162093 C82.5719651,81.301907 82.0540581,80.9876047 81.5539419,80.6416744 C81.3582442,80.5033023 81.1724302,80.3530698 80.9767326,80.2127209" id="Fill-1" fill="#0816CA" mask="url(#mask-2)"></path>
                </g>
                <path d="M92.0246277,71.1342319 C92.0246277,59.186744 92.7991615,50.3425762 94.3462481,44.6017287 C95.8933347,38.8608812 98.7894175,35.9875093 103.032516,35.9816132 C107.273633,35.9816132 110.169715,38.854985 111.716802,44.6017287 C113.267851,50.3484724 114.040403,59.1926401 114.038426,71.1342319 L92.0246277,71.1342319 Z M129.422129,48.6110847 C127.777978,45.1539978 125.543517,42.0054741 122.815812,39.3050549 C118.073526,34.4820354 111.544463,31.7993046 104.753922,31.8818501 C98.4922818,31.8680925 92.3851524,33.8079133 87.2942271,37.428126 C81.7952354,41.3254559 77.4332831,46.5946145 74.6501119,52.7029863 C71.4866069,59.4933418 69.8999022,66.9008236 70.0048902,74.3790588 C69.9236731,81.7452678 71.5123587,89.0367928 74.6501119,95.7131568 C77.5125193,101.921763 81.9972877,107.253813 87.6389045,111.159004 C93.225056,114.979685 99.8729724,116.978467 106.657571,116.876267 C115.486464,116.876267 122.138342,113.888904 126.611225,107.916143 C130.981101,101.795979 133.516659,94.5732418 133.922745,87.0832144 L129.877737,87.1755868 C129.344874,93.354712 127.211439,99.2920966 123.685429,104.413852 C120.749728,109.036404 115.605318,111.815438 110.098403,111.752546 C106.336665,111.803646 102.687838,110.465229 99.8630679,107.998688 C96.8520927,105.35723 94.7681808,101.82939 93.9203536,97.9300948 C93.1121444,94.9427315 92.5931474,91.8846148 92.373267,88.798983 C92.1415011,85.6701129 92.0266086,81.3757782 92.0285895,75.9140132 L134,75.9140132 C134,73.8523395 133.970286,71.9478954 133.91284,70.1770964 C130.384849,65.9456535 128.532703,60.5821571 128.70108,55.092877 C128.685232,52.9113156 128.926903,50.7376157 129.422129,48.6110847 L129.422129,48.6110847 Z" id="Fill-4" fill="#0816CA"></path>
                <path d="M177.01613,39.7339903 C175.166475,39.5080095 173.405179,38.8025564 171.910925,37.6864076 C166.901933,34.1552118 160.981858,32.141035 154.859539,31.8855784 C148.835397,31.751955 143.007608,34.0235534 138.66033,38.1992858 C129.502376,47.9203909 129.845996,63.1966939 139.428074,72.4972781 C144.951513,77.3155821 151.120958,81.3360755 157.757725,84.4428204 C163.779904,87.4021865 168.241068,89.7602472 171.141217,91.5170024 C173.495502,92.8159008 175.578819,94.5530055 177.279245,96.635959 C178.49664,98.3573433 179.123009,100.424576 179.069994,102.531111 C179.042504,105.20751 177.937031,107.758145 176.00098,109.605293 C173.440523,111.898507 170.049489,113.040201 166.62311,112.763129 C157.30022,112.763129 144.847446,102.835694 140.661177,95.777232 L135.752326,87.0740231 L132,87.0740231 L132,116.870085 L138.043778,116.852399 L138.043778,113.197405 C138.043778,113.197405 137.774773,110.568167 138.913626,109.715335 C139.968048,108.941106 141.267911,108.571676 142.571702,108.677789 C144.819956,109.041323 146.934689,109.982582 148.70973,111.407244 C154.01718,114.798921 160.14539,116.68537 166.440501,116.868119 C172.621727,117.062659 178.638015,114.861803 183.23859,110.725371 C187.823458,106.408155 190.285737,100.294883 189.973534,94.0027913 C190.107055,89.907626 189.166519,85.8478315 187.246177,82.2282084 C185.06861,78.6675368 182.125263,75.6374289 178.632124,73.3540401 C173.226497,69.7933686 167.555792,66.6551828 161.667134,63.9689587 C149.616886,58.2821024 143.592743,52.082368 143.592743,45.3677902 C143.347301,42.6324399 144.462592,39.9521109 146.575361,38.2012509 C148.794162,36.6527911 151.458687,35.872666 154.162482,35.9827088 C158.602047,36.1104371 162.866857,37.7316038 166.269673,40.5887873 C170.781889,44.345964 174.394804,49.0699455 176.841375,54.4109529 L180.081217,60.8956197 L183.83158,60.8956197 L183.83158,38.712164 C182.553315,39.2093218 181.222034,39.5532057 179.863264,39.7359554" id="Fill-6" fill="#0816CA"></path>
                <path d="M186,39.7476156 L196.310137,38.5144734 L196.310137,95.640866 C196.310137,102.371931 198.289051,107.588161 202.246877,111.293498 C206.204703,114.998834 211.789196,116.852486 219.002334,116.852486 C225.748449,117.220853 232.150233,113.868125 235.67072,108.127907 C237.821798,104.205885 239.191206,99.9095864 239.709681,95.4694868 C240.60415,89.5244022 241.033574,83.5202214 240.997954,77.508161 L236.183258,77.508161 C236.262415,84.9050439 235.455018,92.2841979 233.778879,99.4900029 C232.17398,106.057568 228.966162,109.335441 224.155424,109.327562 C221.521491,109.648651 218.972651,108.275648 217.799155,105.905888 C216.657322,103.02593 216.130931,99.9391345 216.251645,96.84446 L216.251645,38.5144734 L233.778879,38.5144734 L233.778879,33.723736 L216.251645,33.723736 L216.251645,0.88 L208.003535,0.88 L208.003535,7.03783114 C208.278604,13.4596256 206.30167,19.7750468 202.409148,24.902633 L202.452684,24.8789945 C198.057518,30.5758747 192.449278,35.2326607 186.029684,38.5144734" id="Fill-8" fill="#0816CA"></path>
                <path d="M302.247988,44.589937 C303.790417,38.8451585 306.674086,35.9717865 310.90097,35.9698201 C315.12391,35.9678558 318.007579,38.8412277 319.548035,44.589937 C321.092436,50.3366809 321.861677,59.180849 321.859709,71.1224413 L299.936319,71.1224413 C299.936319,59.1788836 300.707533,50.3347155 302.247988,44.589937 M317.920793,111.748619 C314.175178,111.799718 310.541991,110.461301 307.729328,107.994761 C304.729286,105.353303 302.656278,101.825462 301.812085,97.9261667 C301.005367,94.9388033 300.488595,91.8806865 300.269657,88.7950545 C300.038884,85.6661844 299.926457,81.3718494 299.928429,75.9100843 L340,75.9100843 C339.234703,75.1573473 338.491103,74.3672683 337.777089,73.5221589 C334.321419,69.2907158 332.524549,63.9547344 332.723763,58.5027961 C332.682343,54.2399071 333.810564,50.0477714 335.988109,46.3803897 C334.520633,43.7880657 332.702067,41.4060365 330.587639,39.3050552 C325.865678,34.4820355 319.364601,31.7993045 312.603164,31.8818501 C306.368362,31.8680925 300.285436,33.8079134 295.218304,37.4281262 C289.742881,41.3234909 285.401597,46.5946151 282.630355,52.7029872 C279.480409,59.4933429 277.898533,66.900825 278.005043,74.3790605 C277.924174,81.7452698 279.504078,89.0367951 282.630355,95.7131593 C285.478521,101.9198 289.944067,107.253816 295.561504,111.159008 C301.123712,114.977723 307.741163,116.97847 314.496682,116.876271 C322.058919,116.876271 328.013638,114.665229 332.364784,110.243145 C331.457473,108.830043 330.84208,107.249885 330.560025,105.597009 C327.575762,109.541507 322.879443,111.827234 317.920793,111.748619" id="Fill-10" fill="#0816CA"></path>
                <path d="M389.019553,145.583803 C382.638899,148.888472 375.534421,150.536862 368.353234,150.37715 C361.341201,150.52306 354.378341,149.150716 347.942613,146.352789 C342.077288,143.669225 339.144626,139.818379 339.146592,134.796308 C339.146592,128.973704 342.506074,125.006524 349.223071,122.89477 C356.762235,120.666682 364.59447,119.59996 372.45424,119.728125 C378.667708,119.534892 384.863473,120.491195 390.730765,122.551684 C395.514289,124.434714 397.904084,127.54615 397.904084,131.88402 C397.904084,137.819015 394.941918,142.38561 389.019553,145.583803 L389.019553,145.583803 Z M361.435613,41.3921024 C362.714104,38.0420834 365.971306,35.8751201 369.549115,35.9973691 C373.056115,35.9027247 376.226773,38.0795469 377.406919,41.3921024 C378.998149,44.9866194 379.798685,50.722467 379.798685,58.5996451 C379.800648,66.4768232 379.002083,72.2126708 377.406919,75.8071878 C376.226773,79.1197433 373.056115,81.2965655 369.549115,81.2019211 C365.973273,81.3241701 362.714104,79.1572068 361.435613,75.8071878 C359.783409,72.2126708 358.957306,66.4768232 358.95927,58.5996451 C358.96124,50.7244388 359.787342,44.9885912 361.435613,41.3940741 L361.435613,41.3921024 Z M402.544024,128.632589 C404.446026,126.566185 406.763045,124.931597 409.345598,123.835299 C409.345598,122.650272 409.274789,121.465244 409.135138,120.286132 C407.654055,119.540807 406.294921,118.574645 405.106907,117.417223 C402.418142,114.897314 400.927224,111.346176 401.007868,107.657015 C401.007868,107.160131 401.035404,106.680994 401.062941,106.201856 C395.187782,102.270168 388.224922,100.290522 381.165683,100.548823 L354.175749,100.548823 C348.595627,100.548823 345.806549,98.5514305 345.806549,94.5566463 C345.806549,90.9049482 347.915076,88.4796844 352.126229,87.278883 C357.600139,85.9341432 363.231401,85.3288131 368.86463,85.4806386 C374.63751,85.5930289 380.35335,84.3015266 385.518454,81.7145785 C390.012843,79.5042364 393.866019,76.1719633 396.706236,72.0411277 C399.198311,68.5057634 400.569247,64.2980292 400.640056,59.9700178 C400.640056,52.8933739 398.81673,47.3586458 395.175981,43.3618898 C397.909985,38.5685432 400.811177,36.1708839 403.88939,36.1708839 C406.277219,36.1708839 407.4731,37.0838085 407.475067,38.9096575 C407.414092,39.7713163 407.117089,40.6014269 406.617494,41.3073167 C406.084461,42.1748908 405.453083,42.9773968 404.739095,43.7030042 C403.165568,45.3928018 402.203749,47.5637087 402.007058,49.8667235 C401.946084,51.5683517 402.709244,53.1950531 404.056578,54.2341702 C404.296541,54.4234591 405.740368,54.3402875 406,54.5 C406.5,52 406.614919,50.9731791 407.758302,49.0977374 C413,40.5 414.99155,39.6469149 416.639628,38.1321465 C417.02108,37.7815496 416.121136,36.3028316 414.988661,35.228383 C412.598866,32.9588882 409.39477,31.756115 406.108064,31.8901947 C401.208492,31.8901947 396.997339,34.8576923 393.468703,40.7946593 L392.953373,40.7946593 C386.48224,34.8655793 377.975356,31.6752729 369.212773,31.8901947 C363.931621,31.8487877 358.709476,32.9884646 353.923985,35.228383 C349.343052,37.3342219 345.395465,40.6112857 342.482471,44.7322625 C339.598982,48.7743689 338.07266,53.6327836 338.125767,58.6016169 C337.925142,64.0712769 339.718963,69.4246032 343.164989,73.6698008 C346.317945,77.5107878 350.32454,80.5591276 354.864168,82.5722937 L354.864168,83.2564942 C342.108759,85.7704872 335.732037,92.4488357 335.734004,103.29154 C335.653361,106.980701 337.144279,110.531839 339.833044,113.051748 C342.289714,115.547995 345.566586,117.070193 349.055883,117.332437 L349.055883,117.845094 C344.555594,118.700838 340.434918,120.946672 337.268194,124.265142 C334.569594,127.039408 333.041305,130.750259 333,134.624765 C333,141.243961 336.67222,146.437575 344.014694,150.201663 C352.407497,154.200391 361.630337,156.136659 370.918084,155.852725 C378.004859,156.022297 385.032628,154.498127 391.413282,151.400493 C394.440356,149.876323 397.243203,147.936112 399.737244,145.639012 C397.026843,139.938657 398.149948,133.147918 402.545991,128.626674 L402.544024,128.632589 Z" id="Fill-12" fill="#0816CA"></path>
                <g id="Group-16" transform="translate(406.000000, 33.880000)">
                    <mask id="mask-4" fill="white">
                        <use xlink:href="#path-3"></use>
                    </mask>
                    <g id="Clip-15"></g>
                    <path d="M45.1452886,44.0654667 C46.7468795,40.4773397 47.5496523,34.7516889 47.5516332,26.8885143 C47.5536068,19.0253397 46.7508341,13.3016571 45.1452886,9.7115619 C43.9609023,6.40489524 40.7735386,4.23194286 37.2480614,4.32641905 C33.6533795,4.2043873 30.3770386,6.36749841 29.0918114,9.7115619 C27.4309023,13.3016571 26.6004477,19.0253397 26.6004477,26.8885143 C26.6004477,34.7516889 27.4309023,40.4773397 29.0918114,44.0654667 C30.3770386,47.4095302 33.6533795,49.5726413 37.2480614,49.4506095 C40.7735386,49.5450857 43.958925,47.3741016 45.1452886,44.0674349 L45.1452886,44.0654667 Z M56.8210841,113.71607 C62.772675,110.52553 65.7484705,105.967054 65.7504477,100.04261 C65.7504477,95.7124508 63.3460841,92.6085143 58.5373568,90.7268635 C52.6391523,88.6700381 46.4127205,87.7154349 40.1645386,87.9083238 C32.2653341,87.7803873 24.3918341,88.8452127 16.8129477,91.0693397 C10.0585841,93.1773397 6.68337955,97.1354984 6.68337955,102.947752 C6.68337955,107.960895 9.62951591,111.806863 15.5277205,114.483689 C21.9953795,117.276641 28.994925,118.648514 36.0439023,118.500895 C43.262925,118.660324 50.4068114,117.014863 56.8210841,113.71607 L56.8210841,113.71607 Z M11.5771295,118.329657 C4.19597045,114.568324 0.504402273,109.385911 0.504402273,102.780451 C0.545925,98.9128317 2.08424318,95.2085778 4.79706136,92.4392444 C7.97849318,89.126673 12.1208795,86.8848317 16.6448795,86.0306095 L16.6448795,85.5188635 C13.139175,85.2570857 9.84306136,83.7375937 7.37344773,81.2457841 C4.67051591,78.7303556 3.17174318,75.1874984 3.25478864,71.502927 C3.25478864,60.6794984 9.66510682,54.0130222 22.4837659,51.5054667 L22.4837659,50.8224825 C17.9202205,48.8148635 13.8925159,45.7699746 10.7229477,41.9358159 C7.25876591,37.7001333 5.45747045,32.3543556 5.657175,26.894419 C5.60378864,21.934419 7.13815227,17.0846413 10.0368341,13.0497206 C12.9671523,8.93606984 16.9335614,5.66483175 21.5406068,3.56273651 C26.3493341,1.32876825 31.5989932,0.189149206 36.9079705,0.23048254 C45.7167205,0.0159428571 54.268425,3.20057778 60.771675,9.11911746 L61.2857659,9.11911746 C64.8329932,3.19467302 69.0683114,0.232450794 73.9917205,0.23048254 C77.2996977,0.0966412698 80.5186977,1.29727619 82.9210841,3.56273651 C85.1376068,5.61365714 86.3832886,8.49911746 86.3556068,11.510546 C86.4287659,14.7050222 85.4322205,17.8306095 83.522175,20.399181 C82.0253795,22.6921968 79.4865614,24.0975302 76.7401295,24.158546 C74.9981523,24.1900381 73.2976977,23.6153079 71.9333795,22.5347365 C70.5789477,21.4974667 69.8137432,19.8736571 69.8730614,18.175054 C70.0707886,15.8761333 71.0396523,13.7090857 72.6214705,12.0222921 C73.3392205,11.2999429 73.9719477,10.4968952 74.5097659,9.63086349 C75.0100159,8.92622857 75.3085841,8.0995619 75.3698795,7.23746667 C75.3698795,5.41683175 74.1676977,4.50553016 71.7633341,4.5035619 C68.6689023,4.5035619 65.752425,6.89695873 63.0040159,11.6817841 C66.665925,15.6734032 68.4988568,21.1982921 68.5028114,28.2603873 C68.4296523,32.582673 67.0514932,36.7809587 64.5482659,40.3100381 C61.6911068,44.4335302 57.8196068,47.7598794 53.3015386,49.9662921 C48.1092205,52.5486413 42.3652432,53.8378476 36.5599705,53.7256571 C30.8970614,53.5760698 25.2381068,54.1783556 19.7333795,55.5207048 C15.4960841,56.7174032 13.3804023,59.1383556 13.3823795,62.7835619 C13.3823795,66.7732127 16.1861523,68.767054 21.7936977,68.7650857 L48.9238568,68.7650857 C56.1290386,68.4954349 63.229425,70.5325778 69.1849705,74.5773397 C74.5631523,78.4528317 77.2542205,84.2631175 77.2561977,92.0101651 C77.2819023,97.6157524 75.670425,103.109149 72.6214705,107.819181 C69.3075614,112.859879 64.6767886,116.90661 59.2294023,119.528324 C52.8131523,122.620451 45.7503341,124.143879 38.6242432,123.972641 C29.2855841,124.25607 20.0161295,122.321276 11.5771295,118.329657 L11.5771295,118.329657 Z" id="Fill-14" fill="#0816CA" mask="url(#mask-4)"></path>
                </g>
            </g>
        </g>
    </g>
</svg>