<svg width="24" height="15" xmlns="http://www.w3.org/2000/svg"><path d="M15.454 2.443h6.057V.761h-6.057v1.682zm2.985 3.376c-1.35 0-2.377.812-2.476 2.31h4.848c-.329-1.778-1.144-2.31-2.372-2.31zm.19 6.954c1.247 0 2.163-.764 2.35-1.408h2.623c-.75 2.328-2.298 3.635-5.08 3.635-3.548 0-5.54-2.447-5.54-5.693 0-7.645 11.381-7.919 10.81.714h-7.829c.076 1.753.823 2.752 2.666 2.752zM6.82 12.437c1.433 0 2.435-.534 2.435-1.975 0-1.494-.886-2.143-2.373-2.143H3.295v4.118h3.526zm-.189-6.365c1.192 0 2.014-.538 2.014-1.787 0-1.315-.957-1.722-2.265-1.722H3.295v3.509h3.337zM7.052 0c2.823 0 4.785.905 4.785 3.718 0 1.393-.577 2.431-2.036 3.13 1.867.538 2.75 1.95 2.75 3.803 0 2.944-2.408 4.349-5.29 4.349H0V0h7.052z" fill="#FFF" fill-rule="evenodd"/></svg>