<svg width="28" height="28" xmlns="http://www.w3.org/2000/svg"><g fill="#FFF" fill-rule="evenodd"><path d="M14 2.75C7.787 2.75 2.75 7.787 2.75 14S7.787 25.25 14 25.25 25.25 20.213 25.25 14 20.213 2.75 14 2.75zM.25 14C.25 6.406 6.406.25 14 .25S27.75 6.406 27.75 14 21.594 27.75 14 27.75A13.75 13.75 0 01.25 14z"/><path d="M7.9 19.888a1.25 1.25 0 010-1.775l10.613-10.6a1.25 1.25 0 011.737 1.762L9.675 19.888a1.25 1.25 0 01-1.775 0z" fill-rule="nonzero"/><path d="M7.388 7.388a1.25 1.25 0 011.762 0l10.613 10.6a1.255 1.255 0 01-1.775 1.775L7.388 9.15a1.25 1.25 0 010-1.762z" fill-rule="nonzero"/></g></svg>