<svg width="20" height="20" xmlns="http://www.w3.org/2000/svg"><path d="M19.64 17.057c-.617 1.847-3.036 2.768-4.764 2.615-2.36-.21-4.928-1.443-6.877-2.8-2.865-1.995-5.55-5.08-7.113-8.355-1.106-2.314-1.354-5.16.29-7.269C1.784.468 2.442.052 3.43.004 4.8-.062 4.992.71 5.463 1.912c.35.9.819 1.817 1.08 2.749.49 1.739-1.221 1.81-1.437 3.232-.135.897.97 2.099 1.468 2.738a13.396 13.396 0 003.477 3.154c.759.471 1.984 1.32 2.853.852 1.34-.722 1.212-2.944 3.084-2.192.97.389 1.908.949 2.834 1.44 1.43.757 1.364 1.542.818 3.172-.408 1.218.408-1.218 0 0" fill="#FFF" fill-rule="evenodd"/></svg>