<svg width="183" height="134" xmlns="http://www.w3.org/2000/svg"><defs><linearGradient x1="50%" y1="99.998%" x2="50%" y2=".005%" id="a"><stop stop-color="gray" stop-opacity=".25" offset="0%"/><stop stop-color="gray" stop-opacity=".12" offset="54%"/><stop stop-color="gray" stop-opacity=".1" offset="100%"/></linearGradient><linearGradient x1="49.999%" y1="100.014%" x2="49.999%" y2=".006%" id="b"><stop stop-color="gray" stop-opacity=".25" offset="0%"/><stop stop-color="gray" stop-opacity=".12" offset="54%"/><stop stop-color="gray" stop-opacity=".1" offset="100%"/></linearGradient></defs><g fill="none" fill-rule="evenodd"><path d="M158.016 77.108c-5.802 9.495-4.776 22.391-2.29 32.56.832 3.406 1.793 6.996 1.053 10.812-.905 4.665-4.148 8.342-7.424 10.446-5.972 3.84-12.771 3.761-17.695-.202-4.263-3.426-7.053-9.419-11.4-12.659-7.285-5.422-17.317-2.073-26.044 3.065-6.175 3.633-12.97 8.232-18.649 5.67-3.995-1.803-6.466-6.928-7.61-12.512-.552-2.696-.879-5.64-2.16-7.692-.762-1.22-1.814-2.033-2.905-2.699-9.955-6.073-23.48-.902-33.075-7.786-6.482-4.65-10.138-14.29-11.307-24.613-1.169-10.323-.134-21.38 1.155-32.268.923-7.737 2.161-16.021 6.184-22.329 4.253-6.672 10.93-9.672 16.719-9.075 5.788.598 10.801 4.315 15.116 8.854 5.394 5.673 10.247 12.927 17.25 14.733 4.764 1.231 9.991-.24 15.067-1.08 8.486-1.407 16.845-1.05 25.142-.571 7.944.458 15.938 1.04 23.331 3.853 5.232 1.99 9.236 6.163 14.114 8.867 3.18 1.762 6.776 1.971 9.736 4.327 3.647 2.895 6.79 8.275 5.296 15.087-1.421 6.478-6.526 10.174-9.604 15.212z" fill="#1800AD" fill-rule="nonzero" opacity=".1"/><path d="M50.36 48.433s-25.058-5.646 6.826-38.68c0 0 13.744 13.126 8.703 29.444-2.027 6.56-8.55 10.611-15.157 9.314l-.372-.078z" fill="#1800AD" fill-rule="nonzero"/><path d="M50.31 48.433c-.552-.123-24.599-6.204 6.846-38.68 0 0 13.786 13.126 8.73 29.444-2.033 6.56-8.576 10.611-15.204 9.314l-.372-.078z" fill="#FFF" fill-rule="nonzero" opacity=".4"/><path d="M50 47.752s12.592-19.644 6.18-38" stroke="#535461"/><path d="M152.425 67.752s-4.403-17.459 2.27-29.89c2.803-5.216 3.916-11.16 2.98-16.988a45.267 45.267 0 00-2.108-8.122" stroke="#535461" stroke-width="2"/><path d="M159.999 4.672c-.095 2.115-4.368 8.08-4.368 8.08s-3.724-6.294-3.63-8.408c.137-2.083 1.99-3.678 4.168-3.588 2.177.09 3.88 1.83 3.83 3.916zM165.215 17.084C163.94 18.87 157 21.752 157 21.752s.445-7.472 1.718-9.259a3.99 3.99 0 013.642-1.726 3.983 3.983 0 013.29 2.325 3.95 3.95 0 01-.437 3.992h.002zM163.867 36.372c-1.88.91-8.867-.098-8.867-.098s3.913-6.285 5.792-7.197c1.87-.86 4.038.043 4.876 2.031.838 1.988.037 4.328-1.801 5.264zM160.31 51.38c-1.818 1.125-9.31 1.372-9.31 1.372s3.048-6.284 4.865-7.411c1.816-1.083 4.242-.63 5.454 1.016 1.212 1.647.763 3.88-1.01 5.022z" fill="#1800AD" fill-rule="nonzero"/><path d="M149.95 21.309c1.383 1.574 8.05 3.443 8.05 3.443s-1.362-7.252-2.745-8.825c-1.393-1.525-3.666-1.571-5.112-.105-1.445 1.467-1.531 3.907-.193 5.487zM144.891 39c1.856 1.044 9.109.696 9.109.696s-3.494-6.444-5.352-7.492a3.826 3.826 0 00-5.158 1.543c-1.02 1.846-.398 4.178 1.401 5.254zM142.34 56.538c1.614 1.334 8.66 2.214 8.66 2.214s-2.32-6.865-3.935-8.193a3.705 3.705 0 00-5.23.621c-1.286 1.629-1.062 4.01.505 5.358z" fill="#1800AD" fill-rule="nonzero"/><path d="M159.999 4.672c-.095 2.115-4.368 8.08-4.368 8.08s-3.724-6.294-3.63-8.408c.137-2.083 1.99-3.678 4.168-3.588 2.177.09 3.88 1.83 3.83 3.916zM165.215 17.084C163.94 18.87 157 21.752 157 21.752s.445-7.472 1.718-9.259a3.99 3.99 0 013.642-1.726 3.983 3.983 0 013.29 2.325 3.95 3.95 0 01-.437 3.992h.002zM163.867 36.372c-1.88.91-8.867-.098-8.867-.098s3.913-6.285 5.792-7.197c1.87-.86 4.038.043 4.876 2.031.838 1.988.037 4.328-1.801 5.264zM160.31 51.38c-1.818 1.125-9.31 1.372-9.31 1.372s3.048-6.284 4.865-7.411c1.816-1.083 4.242-.63 5.454 1.016 1.212 1.647.763 3.88-1.01 5.022z" fill="#FC6681" fill-rule="nonzero"/><path d="M149.95 21.309c1.383 1.574 8.05 3.443 8.05 3.443s-1.362-7.252-2.745-8.825c-1.393-1.525-3.666-1.571-5.112-.105-1.445 1.467-1.531 3.907-.193 5.487zM144.891 39c1.856 1.044 9.109.696 9.109.696s-3.494-6.444-5.352-7.492a3.826 3.826 0 00-5.158 1.543c-1.02 1.846-.398 4.178 1.401 5.254zM142.34 56.538c1.614 1.334 8.66 2.214 8.66 2.214s-2.32-6.865-3.935-8.193a3.705 3.705 0 00-5.23.621c-1.286 1.629-1.062 4.01.505 5.358z" fill="#FC6681" fill-rule="nonzero"/><path d="M137 55.752s17.942-15.145 21.93-22.783c3.987-7.638 9.07-14.217 9.07-14.217" stroke="#535461" stroke-width="2"/><path d="M166 36.412l-8-1.66s1.885 7.763 8 1.66zM153.247 27.752L158 34.738s-9.287.662-4.753-6.986zM169 29.844l-7-1.092s4.399 5.949 7 1.092zM158.65 23.752L162 28.73s-5.93.635-3.35-4.978zM165 22.752s6.123.266 6.832.799c.709.532-.912 3.654-3.245 3.145-2.333-.509-3.587-3.944-3.587-3.944z" fill="#1800AD" fill-rule="nonzero"/><path d="M162.43 17.752s2.667 4.365 2.567 5.196c-.1.83-4.063 1.763-4.864-1.384-.802-3.147 2.298-3.812 2.298-3.812z" fill="#1800AD" fill-rule="nonzero"/><circle fill="#FFD037" fill-rule="nonzero" transform="rotate(-72.43 169.349 19.976)" cx="169.349" cy="19.976" r="1.696"/><circle fill="#FFD037" fill-rule="nonzero" transform="rotate(-72.43 166.695 18.247)" cx="166.695" cy="18.247" r="1.696"/><path d="M56.225 59.752s7.354-5.451-1.881-24.53c0 0-12.313-15.16 0-29.47 0 0-26.85.681-26.337 25.552.513 24.87 13.425 28.448 13.425 28.448h14.793z" fill="#1800AD" fill-rule="nonzero"/><path d="M49.152 59.752s-1.8-13.115-6.62-21.12a17.423 17.423 0 01-2.025-5.237c-1.61-7.261.686-14.854 5.89-20.051L54 5.752" stroke="#535461" stroke-width="2"/><path d="M71.406 15.752s1.602 2.246-.74 5.636c-2.34 3.39-4.27 6.257-3.49 8.364 0 0 3.531-6.296 6.406-6.385 2.875-.088.986-3.829-2.176-7.615z" fill="#1800AD" fill-rule="nonzero"/><path d="M71.367 15.752c.14.217.25.454.328.704 2.837 3.532 4.347 6.83 1.621 6.913-2.54.077-5.586 4.892-6.316 6.107.024.093.053.186.087.276 0 0 3.571-6.296 6.479-6.385 2.907-.088.998-3.829-2.2-7.615z" fill="#000" fill-rule="nonzero" opacity=".1"/><path d="M74.193 19.274c0 .817-.086 1.478-.193 1.478-.107 0-.193-.662-.193-1.478 0-.815.108-.432.215-.432s.171-.383.171.432z" fill="#FFD037" fill-rule="nonzero"/><path d="M75.525 20.256c-.783.353-1.462.565-1.52.476-.06-.09.526-.447 1.307-.8.78-.352.473-.095.532 0 .059.096.462-.029-.32.324z" fill="#FFD037" fill-rule="nonzero"/><path d="M62.594 15.752s-1.602 2.246.74 5.636c2.34 3.39 4.27 6.257 3.49 8.364 0 0-3.531-6.296-6.406-6.385-2.874-.088-.989-3.829 2.176-7.615z" fill="#1800AD" fill-rule="nonzero"/><path d="M61.636 15.752c-.14.217-.25.454-.328.704-2.836 3.532-4.345 6.83-1.621 6.913 2.539.077 5.584 4.892 6.313 6.107a2.72 2.72 0 01-.087.276s-3.574-6.298-6.48-6.383c-2.906-.085-.997-3.831 2.203-7.617z" fill="#000" fill-rule="nonzero" opacity=".1"/><path d="M58.807 19.274c0 .817.086 1.478.193 1.478.107 0 .193-.662.193-1.478 0-.815-.108-.432-.215-.432s-.171-.383-.171.432z" fill="#FFD037" fill-rule="nonzero"/><path d="M57.475 20.256c.783.353 1.462.565 1.52.476.06-.09-.526-.447-1.307-.8-.78-.352-.473-.095-.532 0-.059.096-.462-.029.32.324z" fill="#FFD037" fill-rule="nonzero"/><path d="M183 110.449l-14.866-65.735h-5.523c-.22-2.512-.368-4.945-.424-7.237 0 0-20.022 4.403-35.99-8.336-15.966-12.738-34.738 1.102-34.738 1.102l-.073-.053v-.025.032c-1.303-.928-19.286-13.313-34.66-1.045-15.96 12.738-35.99 8.335-35.99 8.335a114.02 114.02 0 01-.43 7.31H15.18L0 110.687s61.713 2.323 83.338.18c.776 1.648 4.119 2.886 8.123 2.886 4.5 0 8.16-1.564 8.287-3.513 16.834 1.288 53.057 3.346 83.252.21z" fill="url(#a)" fill-rule="nonzero"/><path d="M16.847 45.827L2 110.362s81.731 3.08 88.313-1.231c0 0 50.74 5.16 90.687 1l-14.54-64.379-149.613.075z" fill="#E2E2EC" fill-rule="nonzero"/><path d="M21.852 47.823L8 107.468s76.253 2.847 82.393-1.138c0 0 47.337 4.768 84.607.925l-13.57-59.503-139.578.071z" fill="#000" fill-rule="nonzero" opacity=".1"/><path d="M160.744 39.085s-19.61 4.278-35.235-8.097c-15.626-12.375-34.01 1.07-34.01 1.07s-18.383-13.445-34.01-1.07c-15.625 12.375-35.234 8.097-35.234 8.097C21.637 63.987 10 104.32 10 104.32s21.447 5.805 49.789-5.957C88.13 86.6 91.5 102.487 91.5 102.487s3.37-15.89 31.711-4.125c28.342 11.764 49.789 5.957 49.789 5.957s-11.644-40.332-12.256-65.234z" fill="#F1F2FB" fill-rule="nonzero"/><path d="M54 102.196s25.897-5.396 37.845 2.556c0 0 11.492-9.657 38.155-2.13" fill="#000" fill-rule="nonzero" opacity=".1"/><ellipse fill="#E8EAF8" fill-rule="nonzero" cx="91" cy="109.252" rx="8" ry="3.5"/><path d="M91 31.752s6.632 29.47.174 71" fill="#000" fill-rule="nonzero" opacity=".1"/><path d="M28 47.549s12.182 2.707 22.727 0c10.544-2.708 29.905-11.566 36.273 0M28 52.617s12.182 2.554 22.727 0c10.544-2.555 33.376-2.417 36.273 0M28 62.549s12.182 2.707 22.727 0c10.544-2.708 29.905-11.566 36.273 0M28 67.617s12.182 2.554 22.727 0c10.544-2.555 33.376-2.417 36.273 0M155 47.549s-12.182 2.707-22.727 0c-10.544-2.708-29.905-11.566-36.273 0M155 52.617s-12.182 2.554-22.727 0c-10.544-2.555-33.376-2.417-36.273 0M155 62.549s-12.182 2.707-22.727 0c-10.544-2.708-29.905-11.566-36.273 0M155 67.617s-12.182 2.554-22.727 0c-10.544-2.555-33.376-2.417-36.273 0" stroke="#000" stroke-width="4" opacity=".1"/><path d="M154.845 122.234c.5-.388.973-.847 1.118-1.4a1.19 1.19 0 00-.78-1.427c-.717-.227-1.483.184-2.065.601-.583.417-1.247.893-2.007.805.787-.58 1.165-1.525.945-2.372a.924.924 0 00-.263-.483c-.397-.354-1.12-.201-1.596.077-1.515.886-1.938 2.595-1.946 4.135-.153-.556-.024-1.133-.029-1.704-.005-.571-.191-1.201-.77-1.508a2.711 2.711 0 00-1.175-.229c-.68-.02-1.44.036-1.905.45-.578.51-.428 1.378.075 1.944.502.566 1.268.921 1.972 1.313.537.298 1.08.645 1.409 1.116.042.063.077.13.105.2h4.271a12.223 12.223 0 002.641-1.518z" fill="#1800AD" fill-rule="nonzero"/><path d="M125.625 61.416s.042.243.113.676a7.727 7.727 0 01-.113.201c-1.38 2.334-1.593 5.696-1.463 8.455.121 2.226.51 4.43 1.157 6.562a30.793 30.793 0 011.178 8.522 6.17 6.17 0 001.933 1.414c.037.113.076.228.11.338a34.702 34.702 0 011.284 6.529l.435 5.523s3.328 12.5 4.34 14.825c.72 1.654.562 5.073.41 6.906-.432 1.233-.959 2.408-1.424 2.536-.841.24-1.683 2.276-.458 3.3.092.076.19.144.295.202l.049.027.09.046.13.06.068.025.14.047.06.019c.066.018.133.037.206.054a3.662 3.662 0 002.498-.398c.923-.138 1.743-.636 2.357-1.138l-.017.881h1.01l-.047-1.76c.182-.205.283-.338.283-.338s.03-1.064.147-2.302l-.074 3.972h1.01l-.273-7.33c.051-.11.119-.21.2-.3.842-.845-.612-3.572-1.365-4.027.337-1.793 1.621-4.382 3.103-9.345 2.17-7.271-.58-14.388-.58-14.388v-5.58c.73-.315 1.16-.53 1.16-.53s-1.011-5.96 0-10.173c.654-2.724.824-5.144.277-7.46.727-2.515 1.315-4.458 1.315-4.458l1.01-10.464c.258-1.571.431-2.915.542-4.059.019-.142.032-.285.039-.427.185-2.13.145-3.551.024-4.482a7.15 7.15 0 00.06-1.286c.024-.221.033-.443.027-.665.145-.169.286-.338.421-.507.358-.447.663-.936.907-1.454 1.113-2.11 1.145-4.685-.409-6.543-.956-1.145-1.254-2.377-2.08-3.597-.757-1.116-.9-2.453-1.082-3.739a45.958 45.958 0 00-.926-4.746c-.116-.46-.752-.742-1.069-1.125-.61-.739-2.396-.713-3.424-.877-1.728-.276-3.598-.533-5.17.149-1.095.475-1.881 1.339-2.737 2.101-.92.82-2.806 1.216-3.1 2.199-.26.375-.274.845.17 1.474.427.606 1.1 1.039 1.728 1.492.081.057.157.118.236.169a6.183 6.183 0 003.342 6.534c-.017.11-.035.218-.056.325-.184.948-.439 1.88-.76 2.791-.187.562-2.35 1.543-3.873 2.172a1.936 1.936 0 00-.618-.428c-1.158-.291-5.064 1.889-5.354 2.616-.08.203.131.764.477 1.47.022.323.075.642.156.955-.086 1.488.07 3.889.815 7.75l1.16 10.609zm16.247 1.635a20.62 20.62 0 00-.168-.316c-1.608-3.266-2.563-8.545-.26-11.693.206.022.411.042.617.055.136 4.285.057 11.33.057 11.33s-.09.237-.246.624zm-5.74 24.888c.327 1.649.711 3.565 1.07 5.306a14.014 14.014 0 01-.084 6.142l-1.36-4.099-.317-7.212-.02-.296c.218-.037.436-.077.651-.12l.06.28z" fill="url(#b)" fill-rule="nonzero"/><path d="M136.762 93.026a14.34 14.34 0 01-.079 6.03 8.08 8.08 0 01-.321 1.105l.366 15.634.042 1.772c.34.075.684.128 1.03.159.321.035.645.035.966 0 .322-.042.605-.143.756-.337.152-.194.184-.506-.03-.96a2.974 2.974 0 01-.263-1.61c.013-.156.037-.32.066-.488.322-1.76 1.524-4.302 2.92-9.173 2.042-7.134-.544-14.125-.544-14.125v-6.568L135 83.752s.322 1.768.764 4.065c.3 1.619.66 3.5.998 5.21z" fill="#FDC2CC" fill-rule="nonzero"/><path d="M136.762 93.026a14.34 14.34 0 01-.079 6.03 8.08 8.08 0 01-.321 1.105l.366 15.634.042 1.772c.34.075.684.128 1.03.159.321.035.645.035.966 0 .322-.042.605-.143.756-.337.152-.194.184-.506-.03-.96a2.974 2.974 0 01-.263-1.61c.013-.156.037-.32.066-.488.322-1.76 1.524-4.302 2.92-9.173 2.042-7.134-.544-14.125-.544-14.125v-6.568L135 83.752s.322 1.768.764 4.065c.3 1.619.66 3.5.998 5.21z" fill="#000" fill-rule="nonzero" opacity=".1"/><path d="M127 84.752c.467.988.86 2.01 1.174 3.057a34.594 34.594 0 011.283 6.515l.434 5.512s3.326 12.472 4.338 14.793c.72 1.651.562 5.063.41 6.896-.062.744-.121 1.227-.121 1.227l1.474-1.812 1.933-2.378.882-1.085.193-.237a8.933 8.933 0 01-.564-1.514 25.95 25.95 0 01-.88-4.86c-.434-4.495-.578-10.588-.578-10.588l-.229-.686-1.367-4.1-.316-7.2-.118-2.666-7.948-.874z" fill="#FDC2CC" fill-rule="nonzero"/><path d="M137.932 115.71a9.726 9.726 0 00-1.79 3.294c-.48 1.515-1.32 3.843-2.027 4.03-1.054.28-2.107 3.082.601 3.644 2.709.561 4.968-2.242 4.968-2.242s.152-4.904 1.054-5.743c.902-.84-.753-3.644-1.506-3.924-.3-.114-.81.35-1.3.941z" fill="#5F5D7E" fill-rule="nonzero"/><path d="M134.166 126.26a3.517 3.517 0 002.01-.18c1.601-.626 2.694-2.095 2.814-3.778.122-1.501.379-3.52.902-4.031.677-.663-.17-2.552-.897-3.454a.395.395 0 01.323-.05c.716.28 2.292 3.083 1.432 3.925-.86.841-1.002 5.745-1.002 5.745s-2.145 2.804-4.722 2.24a2.393 2.393 0 01-1.026-.462c.054.017.108.032.166.045z" fill="#000" fill-rule="nonzero" opacity=".1"/><path d="M140.725 118.028l.275 7.724h-1l.139-7.719a.29.29 0 01.293-.28.289.289 0 01.293.275z" fill="#5F5D7E" fill-rule="nonzero"/><path d="M140.725 118.028l.275 7.724h-1l.139-7.719a.29.29 0 01.293-.28.289.289 0 01.293.275z" fill="#000" fill-rule="nonzero" opacity=".15"/><path d="M136.932 115.71a9.726 9.726 0 00-1.79 3.294c-.48 1.516-1.32 3.844-2.027 4.03-1.054.28-2.107 3.083.601 3.644 2.709.561 4.968-2.246 4.968-2.246s.152-4.903 1.054-5.742c.902-.84-.753-3.643-1.506-3.923-.304-.104-.81.353-1.3.944z" fill="#5F5D7E" fill-rule="nonzero"/><path d="M133.168 126.257a3.516 3.516 0 002.01-.178c1.6-.628 2.693-2.096 2.812-3.779.122-1.5.38-3.518.902-4.03.677-.662-.17-2.55-.897-3.453a.395.395 0 01.323-.05c.716.28 2.292 3.082 1.432 3.924-.86.841-1 5.744-1 5.744s-2.147 2.803-4.725 2.243a2.393 2.393 0 01-1.025-.462c.06.017.11.031.168.041z" fill="#000" fill-rule="nonzero" opacity=".1"/><path d="M139.727 119.028l.273 7.724h-1l.138-7.718a.288.288 0 01.292-.281.287.287 0 01.297.275z" fill="#5F5D7E" fill-rule="nonzero"/><path d="M139.727 119.028l.273 7.724h-1l.138-7.718a.288.288 0 01.292-.281.287.287 0 01.297.275z" fill="#000" fill-rule="nonzero" opacity=".15"/><path d="M127 39.678l5.912 9.197 6.946.877s4.285-8.32 4.138-8.76c-.146-.437-2.365-1.312-4.434-2.919-2.068-1.607.444-8.32.444-8.32l-6.797.582c.026.09.052.173.071.273.271 1.134.175 2.392-.033 3.498-.19.95-.45 1.886-.779 2.799-.295.875-5.468 2.773-5.468 2.773z" fill="#FDC2CC" fill-rule="nonzero"/><path d="M135 83.752s.338 1.74.802 4A33.184 33.184 0 00142 85.807v-1.353l-7-.702zM127 84.752a23.799 23.799 0 011.164 3.214c1.995.957 4.475.93 6.836.503l-.117-2.803-7.883-.914z" fill="#000" fill-rule="nonzero" opacity=".1"/><path d="M125.64 62.536c-1.39 2.285-1.603 5.573-1.473 8.284a26.508 26.508 0 001.164 6.42 29.366 29.366 0 011.188 8.344c4.952 5.264 17.188-.712 17.188-.712s-1.02-5.832 0-9.959c.71-2.869.86-5.396.141-7.818a12.187 12.187 0 00-1.451-3.137 11.3 11.3 0 01-.562-.985c-1.687-3.333-2.662-8.809.052-11.83.282-.314.6-.596.947-.84 2.366-1.673 3.444-3.532 3.898-5.104a6.709 6.709 0 00.172-3.005c-.29-1.566-4.37-2.989-4.37-2.989.147 4.696-5.971 8.678-5.971 8.678s-6.992-8.82-8.156-9.105c-1.164-.284-5.099 1.85-5.39 2.561-.29.712 3.205 5.975 3.205 5.975s2.186 10.67-.582 15.222z" fill="#D39999" fill-rule="nonzero"/><path d="M142.172 49.872c2.323-1.736 3.382-3.665 3.828-5.297-.112-2.444-.676-2.823-.676-2.823s-4.726 4.724-4.296 6.354c.098.375.169 1.356.214 2.646.277-.329.589-.624.93-.88zM134.14 82.842c.985 3.038 5.91-2.314 6.051-4.627.09-1.48 1.678-7.285 2.809-11.273a12.7 12.7 0 00-1.402-3.188 11.658 11.658 0 01-.542-1.002c-.534 1.349-2.678 6.877-2.553 8.522.141 1.88-.845 4.628-.845 4.628s-4.502 3.903-3.517 6.94z" fill="#000" fill-rule="nonzero" opacity=".1"/><path d="M145.3 41.752s1.574 1.016 0 10.743l-1 10.454s-3.862 12.92-4.006 15.245c-.143 2.323-5.148 7.693-6.15 4.645-1.003-3.048 3.575-6.97 3.575-6.97s1.001-2.757.86-4.645c-.143-1.888 2.716-8.855 2.716-8.855s.144-12.776-.286-14.373c-.429-1.598 4.291-6.244 4.291-6.244z" fill="#FDC2CC" fill-rule="nonzero"/><path d="M124.791 40.752s-1.78.433 0 10.103l1.096 10.536s2.464 15.154 2.327 16.889c-.138 1.735 5.34 6.206 5.75 3.753.409-2.453-2.739-6.495-2.739-6.495s-1.372-3.18-1.372-9.097l-.274-4.764-1.914-17.172-2.874-3.753z" fill="#000" fill-rule="nonzero" opacity=".1"/><path d="M124.791 40.752s-1.78.433 0 10.103l1.096 10.536s2.464 15.154 2.327 16.889c-.138 1.735 5.34 6.206 5.75 3.753.409-2.453-2.739-6.495-2.739-6.495s-1.369-3.174-1.369-9.092l-.273-4.763-1.913-17.178-2.879-3.753z" fill="#FDC2CC" fill-rule="nonzero"/><path d="M123.044 41.739s-.894 4.313 5.358 5.796c6.252 1.483-.744-5.124-.744-5.124s-2.38-3.233-4.614-.672z" fill="#000" fill-rule="nonzero" opacity=".1"/><path d="M123.044 41.74s-.892 4.311 5.359 5.795c6.25 1.484-.745-5.123-.745-5.123s-2.382-3.235-4.614-.673z" fill="#D39999" fill-rule="nonzero"/><path d="M146.956 41.739s.894 4.313-5.358 5.796c-6.251 1.483.743-5.124.743-5.124s2.375-3.233 4.615-.672z" fill="#000" fill-rule="nonzero" opacity=".1"/><path d="M145.955 41.74s.9 4.311-5.355 5.795c-6.256 1.484.744-5.123.744-5.123s2.38-3.235 4.611-.673z" fill="#D39999" fill-rule="nonzero"/><path d="M133 33.732c.74.23 1.57-1.62 2.445-1.62.928 0 1.801 1.98 2.575 1.561.226-1.333.553-2.645.98-3.92l-5.97.56c.244 1.105.159 2.335-.03 3.42z" fill="#000" fill-rule="nonzero" opacity=".1"/><circle fill="#FDC2CC" fill-rule="nonzero" cx="136" cy="28.752" r="6"/><path d="M128.36 25.5c.431.589 1.11 1.004 1.743 1.452a19.028 19.028 0 012.21 1.794c.488.432.904.933 1.237 1.485.491.89.557 1.897.615 2.877l.602 10.123c.04.67.08 1.353-.096 2.007a6.76 6.76 0 01-.747 1.586c-.795 1.368-1.612 2.762-2.891 3.846-.428.36-.949.825-.723 1.296.183.38.745.502 1.228.557 2.026.264 4.27.49 5.976-.468.643-.361 1.176-.88 1.897-1.104 1.003-.31 2.11.013 3.18.012 1.134 0 2.217-.367 3.275-.728.203-.05.39-.151.538-.294a.855.855 0 00.154-.4c.16-.821.312-1.672.05-2.477-.285-.871-1.035-1.625-1.12-2.525-.11-1.251 1.08-2.27 1.935-3.298 1.821-2.19 2.226-5.342.357-7.5-.964-1.115-1.265-2.315-2.098-3.501-.762-1.086-.907-2.388-1.09-3.64a43.382 43.382 0 00-.935-4.62c-.115-.448-.758-.723-1.077-1.096-.617-.719-2.414-.694-3.449-.854-1.741-.268-3.62-.519-5.212.145-1.104.462-1.897 1.305-2.759 2.046-1.22 1.057-4.183 1.388-2.8 3.28z" fill="#000" fill-rule="nonzero" opacity=".1"/><path d="M128.36 25.5c.431.589 1.11 1.004 1.743 1.452.782.544 1.521 1.145 2.21 1.798.487.431.904.932 1.236 1.485.491.89.557 1.896.615 2.876l.607 10.12c.04.67.08 1.353-.096 2.007a6.761 6.761 0 01-.747 1.586c-.794 1.368-1.611 2.762-2.89 3.846-.428.36-.949.825-.723 1.296.183.38.745.502 1.228.557 2.025.264 4.27.49 5.974-.468.643-.361 1.176-.88 1.896-1.104 1.004-.31 2.11.013 3.179.012 1.134 0 2.217-.367 3.275-.728.203-.05.389-.151.538-.294a.856.856 0 00.153-.4c.16-.821.312-1.672.05-2.477-.284-.871-1.034-1.625-1.118-2.525-.11-1.251 1.079-2.27 1.934-3.298 1.82-2.19 2.225-5.342.356-7.5-.963-1.115-1.265-2.315-2.097-3.501-.762-1.086-.907-2.388-1.09-3.64a43.393 43.393 0 00-.934-4.62c-.116-.448-.759-.723-1.077-1.096-.618-.719-2.414-.694-3.448-.854-1.741-.268-3.62-.519-5.21.145-1.104.462-1.897 1.305-2.759 2.046-1.234 1.057-4.187 1.388-2.804 3.28z" fill="#865A61" fill-rule="nonzero"/></g></svg>