<?xml version="1.0" encoding="UTF-8"?>
<svg width="277px" height="206px" viewBox="0 0 277 206" version="1.1" xmlns="http://www.w3.org/2000/svg" xmlns:xlink="http://www.w3.org/1999/xlink">
    <!-- Generator: Sketch 53.2 (72643) - https://sketchapp.com -->
    <title>undraw_deliveries_131a</title>
    <desc>Created with Sketch.</desc>
    <g id="Portfolio" stroke="none" stroke-width="1" fill="none" fill-rule="evenodd">
        <g id="About-Me" transform="translate(-917.000000, -995.000000)">
            <g id="undraw_deliveries_131a" transform="translate(917.000000, 995.000000)">
                <path d="M199.759905,121.677728 L201.92847,120.334263 C202.134585,120.203122 202.337797,120.063239 202.546815,119.932098 C192.964949,118.277905 185.81877,110.156199 185.366676,100.406693 C185.207308,97.1519931 185.820214,93.9058312 187.154943,90.9354138 C189.670778,85.3092855 194.540918,81.0916251 200.45373,79.4183388 L200.346318,87.9862033 L205.034713,78.6606365 C205.053947,78.6575821 205.07354,78.6575821 205.092774,78.6606365 C210.579743,78.4034481 215.943739,80.3450006 220.004641,84.0581382 C224.065544,87.7712757 226.490674,92.9518084 226.746485,98.4599805 C226.763903,98.8563171 226.746485,99.2468252 226.746485,99.6256763 C228.377988,97.7576487 229.858534,95.7555661 230.839759,93.5611437 C232.825432,89.1169283 232.871881,84.0840364 232.706408,77.9670475 C232.392881,65.8438107 231.873238,53.6302324 231.193929,41.451625 C221.081419,40.3242053 213.284748,31.9859428 212.803225,21.7834218 C212.774195,21.1452033 212.782904,20.5186418 212.803225,19.8949946 C212.803225,19.7405399 212.803225,19.5831709 212.826449,19.4287162 C212.867092,18.8254686 212.922249,18.2280495 213.015146,17.6393731 C213.015146,17.5402889 213.049983,17.4470333 213.067401,17.3479491 C213.152556,16.8486427 213.254163,16.3551648 213.372219,15.8675154 C213.418668,15.6868325 213.462213,15.5032354 213.511565,15.3225526 C213.656716,14.792161 213.801868,14.2705121 214.002177,13.7546917 C214.063141,13.5827515 214.135716,13.4166399 214.199583,13.247614 C214.347638,12.8687628 214.507304,12.4957402 214.67568,12.1256317 C214.765674,11.9303777 214.852765,11.7380379 214.948565,11.5427838 C214.971789,11.4932417 214.992111,11.4436996 215.018238,11.3941576 L215.018238,11.3941576 C219.528442,2.45125548 229.75631,-1.98371315 239.334029,0.850438626 L239.194683,12.0003194 L243.839533,2.79132221 C251.659558,7.28477287 255.659013,16.361982 253.70984,25.1930822 L253.733064,25.1930822 C253.701131,25.3417084 253.654682,25.4845061 253.619846,25.6302181 C253.555979,25.9041566 253.486306,26.1751809 253.410828,26.4462052 C253.312125,26.7929997 253.201809,27.1339658 253.088591,27.4749318 C253.0015,27.7284707 252.917312,27.987838 252.821512,28.2384626 C252.682167,28.6056568 252.531209,28.9641083 252.362833,29.3225597 C252.269936,29.532385 252.185748,29.7451245 252.07253,29.9520355 C251.807387,30.4882556 251.517084,31.0128187 251.201621,31.5257249 C251.094209,31.7034935 250.972281,31.8725194 250.859063,32.050288 C250.638433,32.3941683 250.414899,32.7351343 250.173948,33.0673576 C250.025893,33.2713544 249.866226,33.4666085 249.709463,33.667691 C249.483026,33.959115 249.250784,34.2505389 249.009832,34.5157347 C248.838553,34.7109888 248.664371,34.9033286 248.484383,35.0985827 C248.23182,35.3666927 247.970547,35.62606 247.700565,35.8825131 C247.52348,36.0544532 247.343492,36.2263934 247.157698,36.3895908 C246.85288,36.6606151 246.533546,36.9199824 246.21131,37.1735213 C246.04874,37.3017478 245.891976,37.4358028 245.723601,37.5582009 C245.233956,37.9234523 244.727861,38.2663611 244.205315,38.5869275 C244.106612,38.6452123 244.002103,38.6947543 243.915012,38.7530391 C243.479557,39.0124065 243.044103,39.2542884 242.576715,39.481599 C242.382212,39.577769 242.178999,39.6622819 241.97869,39.7526233 C241.604199,39.9216492 241.226805,40.0848466 240.840702,40.2334729 C240.617168,40.3179858 240.387829,40.3966703 240.158489,40.4753548 C239.778192,40.6064955 239.392089,40.7259794 238.997277,40.8338062 C238.765034,40.8979195 238.535695,40.9620328 238.300549,41.0174033 C237.876707,41.1194017 237.444155,41.2039147 237.0087,41.2767707 C236.97967,41.2767707 236.953543,41.2767707 236.924513,41.2942561 C237.210945,46.4310891 237.465444,51.5708364 237.68801,56.7134979 C240.183622,51.5705464 244.681039,47.6879854 250.12012,45.9810207 C255.559202,44.274056 261.458717,44.8937135 266.42802,47.6939263 L262.767298,57.7626242 L270.297761,50.5032533 C274.328853,54.2123603 276.730049,59.3749519 276.974733,64.8587977 C277.07053,66.7829706 276.893614,68.7110497 276.449284,70.5852785 C274.513545,78.8845957 267.725631,85.1557649 259.326288,86.4047497 C250.926945,87.6537345 242.619522,83.6272462 238.370222,76.2476461 C238.370222,76.769295 238.407962,77.2938581 238.422477,77.815507 C238.558919,83.2126788 238.730198,89.9270869 236.0507,95.924592 C234.236306,99.9899563 231.312953,103.29179 228.424437,106.249743 C226.546175,108.176055 224.598241,110.038255 222.600956,111.842169 C220.637157,114.489337 218.073742,116.629102 215.122747,118.08447 C211.842322,120.621801 208.445775,122.997878 204.933107,125.2127 L202.799379,126.59405 C200.828221,127.820945 198.807711,129.079896 196.82494,130.382561 C197.173304,130.34759 197.518765,130.309705 197.872935,130.295134 C206.878519,129.871557 215.123284,135.342547 218.263827,143.825949 L205.322113,154.401724 L219.546967,151.088234 C219.539067,158.234413 215.877139,164.876123 209.849119,168.67741 C203.821098,172.478697 196.271187,172.907205 189.854762,169.812223 C190.174096,170.214388 190.496332,170.613639 190.815666,171.01289 C191.451429,171.808478 192.08429,172.598236 192.702636,173.382167 C201.121427,184.086169 203.467076,194.251037 199.29542,202 L194.226727,199.248958 C198.290971,191.706906 192.194605,182.054944 188.179713,176.966682 C187.57298,176.197322 186.951731,175.422135 186.324676,174.63529 C180.945359,167.932539 174.848993,160.320545 175.002854,150.992064 C175.220581,136.945429 188.832895,128.473734 199.759905,121.677728 Z" id="Path" fill="#F2F2F2" fill-rule="nonzero"></path>
                <ellipse id="Oval" fill="#3F3D56" fill-rule="nonzero" cx="133" cy="200" rx="133" ry="6"></ellipse>
                <path d="M240.594755,198 C241.437832,196.364985 240.482345,194.362018 239.391966,192.902077 C238.301587,191.442136 236.972336,189.934718 237.000438,188.068249 C237.039782,185.397626 239.723576,183.821958 241.870611,182.406528 C243.460563,181.355076 244.927368,180.10906 246.240559,178.694362 C246.791726,178.150014 247.247439,177.507088 247.586671,176.795252 C248.027881,175.750742 248.01664,174.563798 247.988538,173.418398 C247.894863,169.608309 247.71688,165.802176 247.454589,162" id="Path" stroke="#3F3D56" stroke-width="4"></path>
                <path d="M252,161.816643 C251.935265,160.455811 251.183763,159.221054 250.004846,158.538501 L249.109876,160.311548 L249.135528,158.167928 C247.893338,157.795722 246.547769,158.050413 245.527487,158.850862 C244.507206,159.651312 243.939464,160.897684 244.005131,162.192917 C244.072338,163.618686 244.894988,164.900293 246.163198,165.554968 C247.431407,166.209642 248.952504,166.137925 250.153507,165.366831 C251.354509,164.595736 252.052956,163.242413 251.985749,161.816643 L252,161.816643 Z" id="Path" fill="#57B793" fill-rule="nonzero"></path>
                <path d="M244.557106,189.83057 C243.691671,191.511397 241.767376,192.356847 239.943727,191.857486 C238.120078,191.358124 236.895169,189.650341 237.007082,187.763181 C237.118995,185.876021 238.537164,184.324924 240.407055,184.044522 C242.276945,183.764119 244.087835,184.830998 244.74855,186.602297 L242.245486,188.639252 L244.999999,187.999311 C245.000321,188.636283 244.848477,189.26412 244.557106,189.83057 L244.557106,189.83057 Z" id="Path" fill="#57B793" fill-rule="nonzero"></path>
                <path d="M242.188659,180.995378 C241.127331,181.046404 240.08936,180.673277 239.304271,179.958507 C238.519181,179.243736 238.051652,178.246209 238.005067,177.186505 C237.973248,176.560909 238.091637,175.93678 238.35037,175.366108 C238.835797,174.284327 239.776271,173.472742 240.918742,173.149725 L240.898766,174.799193 L241.806257,173.004435 L241.806257,173.004435 C244.01671,172.90138 245.892324,174.606671 245.995557,176.813309 C246.09879,179.019947 244.390551,180.892323 242.180098,180.995378 L242.188659,180.995378 Z" id="Path" fill="#57B793" fill-rule="nonzero"></path>
                <path d="M252.185276,174.995481 C249.980257,175.099504 248.108467,173.395061 248.004516,171.188499 C247.900565,168.981937 249.603817,167.108837 251.808836,167.004814 C252.557303,166.967885 253.300898,167.144019 253.953401,167.512792 L253.246151,169.453382 L254.700576,168.055016 C255.481046,168.768867 255.946673,169.76338 255.9953,170.820357 C256.013469,171.190562 255.978901,171.56147 255.892635,171.921928 C255.48253,173.660676 253.968767,174.915647 252.185276,174.995481 L252.185276,174.995481 Z" id="Path" fill="#57B793" fill-rule="nonzero"></path>
                <path d="M251.539312,162.823042 C250.600552,162.930815 249.687869,163.233177 248.746211,163.293051 C247.804554,163.352924 246.770179,163.119417 246.173314,162.362015 C245.851701,161.954875 245.692344,161.439961 245.419988,160.996896 C245.163451,160.58287 244.81218,160.24049 244.397203,160 C243.727839,161.445688 243.914971,163.159205 244.879298,164.414425 C245.843626,165.669646 247.416306,166.246796 248.930896,165.901301 C250.445486,165.555805 251.636799,164.348157 252,162.790112 C251.84354,162.796099 251.689977,162.808074 251.539312,162.823042 Z" id="Path" fill="#000000" fill-rule="nonzero" opacity="0.1"></path>
                <path d="M252.251374,174.994592 C250.828225,175.069476 249.472005,174.362527 248.680885,173.133423 C247.889764,171.904318 247.780383,170.334273 248.39292,169 C248.714908,169.225463 248.991696,169.513522 249.207964,169.848235 C249.496987,170.300826 249.670401,170.822356 250.011447,171.23898 C250.641517,172.009285 251.722462,172.261058 252.70225,172.213101 C253.682037,172.165144 254.624251,171.880401 255.592478,171.787485 C255.725428,171.787485 255.864159,171.763507 256,171.76051 C255.58748,173.585964 254.057298,174.90611 252.251374,174.994592 L252.251374,174.994592 Z" id="Path" fill="#000000" fill-rule="nonzero" opacity="0.1"></path>
                <path d="M242.27802,181.995078 C241.194049,182.049419 240.133935,181.652046 239.332096,180.890827 C238.530257,180.129609 238.052754,179.067259 238.005175,177.938692 C237.972677,177.272443 238.093592,176.607756 238.357845,176 C238.697055,176.230927 238.993296,176.523877 239.232234,176.864675 C239.549928,177.331902 239.748123,177.868911 240.106622,178.299731 C240.797389,179.100693 241.957411,179.38285 243.003762,179.355545 C244.050114,179.328239 244.991539,179.073388 246,178.994505 C245.490075,180.710719 244.001879,181.910467 242.27802,181.995078 Z" id="Path" fill="#000000" fill-rule="nonzero" opacity="0.1"></path>
                <path d="M244,189.488178 C243.17135,191.631582 241.004797,192.588299 239.16087,191.625066 C237.316943,190.661832 236.493898,188.143404 237.322548,186 C237.623175,186.232251 237.893794,186.513118 238.126243,186.834129 C238.473293,187.328541 238.70292,187.886649 239.107377,188.350728 C239.856275,189.203057 241.064426,189.564008 242.139499,189.588273 C242.760824,189.597747 243.382084,189.564323 244,189.488178 L244,189.488178 Z" id="Path" fill="#000000" fill-rule="nonzero" opacity="0.1"></path>
                <path d="M234,196.002956 C234,196.002956 237.222469,195.889244 238.19474,195.093264 C239.167011,194.297283 243.143427,193.347458 243.396683,194.62504 C243.64994,195.902622 248.243485,200.979505 244.601834,200.999572 C240.960183,201.019639 236.14249,200.330681 235.17313,199.66179 C234.203769,198.992899 234,196.002956 234,196.002956 Z" id="Path" fill="#656380" fill-rule="nonzero"></path>
                <path d="M244.676311,200.549299 C241.03401,200.582627 236.208691,199.882735 235.238382,199.216171 C234.501181,198.702917 234.203969,196.853202 234.107812,196 L234,196 C234,196 234.203969,198.976208 235.165536,199.666102 C236.127103,200.355996 240.958251,201.025892 244.603465,200.99923 C245.655361,200.99923 246.019591,200.559298 245.999194,199.926062 C245.862244,200.30267 245.460134,200.542633 244.676311,200.549299 Z" id="Path" fill="#000000" fill-rule="nonzero" opacity="0.2"></path>
                <path d="M55.8471085,188 C53.7168905,184.091966 56.140527,179.305788 58.9103973,175.822288 C61.6802676,172.338788 65.0721851,168.715715 64.9988305,164.275561 C64.8931999,157.895929 58.062418,154.130376 52.6048345,150.748648 C48.5550576,148.238905 44.8192816,145.262946 41.4754721,141.882878 C40.1345497,140.524953 38.8347059,139.076887 38.0542127,137.34386 C36.9274858,134.848999 36.9568277,132.01393 37.0301823,129.280633 C37.2649171,120.169642 37.7187376,111.076098 38.391644,102" id="Path" stroke="#3F3D56" stroke-width="4"></path>
                <path d="M29.0110822,101.522413 C29.1737111,98.1234417 31.0543362,95.0406422 34.0022909,93.340614 L36.240737,97.7675514 L36.1735251,92.4084734 C40.3461768,91.179003 44.8350422,92.7878913 47.2764826,96.3879689 C49.7179231,99.9880464 49.5518159,104.753372 46.8656257,108.174736 C44.1794355,111.596099 39.5894364,112.888561 35.5125195,111.371567 C31.4356027,109.854574 28.8071069,105.876158 29.0110822,101.531179 L29.0110822,101.522413 Z" id="Path" fill="#57B793" fill-rule="nonzero"></path>
                <path d="M47.1050692,168.562974 C49.1729149,172.594782 53.6916797,174.732114 58.1184022,173.772172 C62.5451247,172.81223 65.7737902,168.994857 65.9874481,164.468301 C66.0572796,163.084334 65.8351569,161.701158 65.3355252,160.408724 C63.8400796,156.527421 60.1009278,153.976121 55.9432315,154.000169 C51.7855353,154.024216 48.0761183,156.618599 46.6256281,160.516941 L52.8729797,165.600185 L46.0000159,164.000338 C45.9971685,165.587886 46.3761876,167.152811 47.1050692,168.562974 Z" id="Path" fill="#57B793" fill-rule="nonzero"></path>
                <path d="M51.5306333,149.989419 C56.6114767,150.221505 61.059011,146.610796 61.8706553,141.594923 C62.6822996,136.57905 59.6000605,131.752384 54.7047926,130.373462 L54.7574514,134.491294 L52.5048223,130.01107 L52.4784929,130.01107 C46.9552058,129.753627 42.2687859,134.017888 42.011081,139.535564 C41.7533761,145.05324 46.0219737,149.734899 51.5452608,149.992342 L51.5306333,149.989419 Z" id="Path" fill="#57B793" fill-rule="nonzero"></path>
                <path d="M27.5280225,133.988072 C31.7670255,134.194893 35.6734528,131.69581 37.2679739,127.757073 C38.8624949,123.818337 37.7967005,119.300576 34.6106133,116.492876 C31.4245261,113.685176 26.8143189,113.201029 23.1159174,115.285747 L24.8667527,120.127896 L21.2512778,116.629977 C19.299294,118.408823 18.1339632,120.892115 18.0122324,123.532304 C17.9658905,124.457304 18.051373,125.384198 18.2661035,126.285052 C19.2859236,130.637968 23.0679774,133.783454 27.5280225,133.988072 L27.5280225,133.988072 Z" id="Path" fill="#57B793" fill-rule="nonzero"></path>
                <path d="M30.156088,103.494202 C32.491918,103.739853 34.7626996,104.431626 37.1044431,104.569981 C39.4461866,104.708336 42.0215131,104.174682 43.5028433,102.435365 C44.301165,101.497941 44.7003258,100.312043 45.3744641,99.2899122 C46.0132347,98.3375294 46.8888187,97.5508546 47.9231799,97 C49.6813857,100.342233 49.2617348,104.353286 46.8458426,107.297265 C44.4299505,110.241243 40.4518216,111.589274 36.6331027,110.757959 C32.8143838,109.926644 29.841091,107.065326 29,103.412319 C29.3932473,103.42926 29.7776244,103.454672 30.156088,103.494202 Z" id="Path" fill="#000000" fill-rule="nonzero" opacity="0.1"></path>
                <path d="M28.3902088,133.98955 C31.9428487,134.148071 35.3217485,132.494268 37.2951916,129.631004 C39.2686347,126.76774 39.5482867,123.11336 38.0322055,120 C37.2274599,120.523689 36.5353397,121.193496 35.9942044,121.972297 C35.2714249,123.027247 34.8359799,124.245599 33.9858253,125.214547 C32.4069669,127.009108 29.7113549,127.596784 27.2645686,127.490716 C24.8177824,127.384648 22.4569002,126.708104 20.0219628,126.4931 C19.6842707,126.464433 19.3406543,126.4415 19,126.4329 C20.0340349,130.699169 23.8671594,133.783827 28.3902088,133.98955 L28.3902088,133.98955 Z" id="Path" fill="#000000" fill-rule="nonzero" opacity="0.1"></path>
                <path d="M52.2969852,149.989029 C55.8450484,150.15095 59.2253119,148.511622 61.2253049,145.659059 C63.2252979,142.806495 63.5583471,139.149574 62.1049908,136 C61.2629673,136.543583 60.530648,137.232599 59.9443607,138.032867 C59.1494401,139.121903 58.6533618,140.376472 57.7239621,141.381289 C55.9996418,143.248623 53.1008711,143.907853 50.4860006,143.846867 C47.954806,143.794593 45.5162525,143.190541 43,143.001775 C44.276256,147.000615 47.9933233,149.794219 52.2969852,149.989029 Z" id="Path" fill="#000000" fill-rule="nonzero" opacity="0.1"></path>
                <path d="M47,169.399469 C49.0793444,173.552524 53.6232367,175.75413 58.0745749,174.76532 C62.5259132,173.776511 65.7725323,169.844339 65.9873783,165.181658 C66.0575981,163.756071 65.8342403,162.3313 65.3318302,161 C64.5042312,161.557111 63.7613202,162.236253 63.1270719,163.015511 C62.1716767,164.2206 61.539646,165.564274 60.4343271,166.678981 C58.3765527,168.745708 55.0576566,169.601321 52.1032805,169.691703 C50.3980467,169.697731 48.6939639,169.600149 47,169.399469 Z" id="Path" fill="#000000" fill-rule="nonzero" opacity="0.1"></path>
                <polygon id="Path" fill="#1800AD" fill-rule="nonzero" points="125 194.180328 86.6095618 202 85.7370518 201.913115 52 198.52459 52 155.95082 93.2988048 149 123.25498 152.47541 123.263705 152.663661 123.266614 152.756339"></polygon>
                <polygon id="Path" fill="#000000" fill-rule="nonzero" opacity="0.1" points="125 194.075139 86.8666667 202 86 201.911946 86 157.679483 123.275333 152"></polygon>
                <polygon id="Path" fill="#000000" fill-rule="nonzero" opacity="0.05" points="123 152.647812 122.98841 152.65625 85.610839 158 52 155.75 93.144303 149 122.98841 152.375 122.997103 152.557813"></polygon>
                <polygon id="Path" fill="#3F3D56" fill-rule="nonzero" points="168 196.180328 129.609562 204 128.737052 203.913115 95 200.52459 95 157.95082 136.298805 151 166.25498 154.47541 166.263705 154.663661 166.266614 154.756339"></polygon>
                <polygon id="Path" fill="#000000" fill-rule="nonzero" opacity="0.1" points="168 196.075139 129.866667 204 129 203.911946 129 159.679483 166.275333 154"></polygon>
                <polygon id="Path" fill="#000000" fill-rule="nonzero" opacity="0.05" points="167 154.647812 166.98841 154.65625 129.610839 160 96 157.75 137.144303 151 166.98841 154.375 166.997103 154.557812"></polygon>
                <polygon id="Path" fill="#3F3D56" fill-rule="nonzero" points="102.609562 162 101.737052 161.913115 68 158.52459 68 115.95082 109.298805 109 139.25498 112.47541 139.263705 112.663661 139.266614 112.756339 141 154.180328"></polygon>
                <polygon id="Path" fill="#000000" fill-rule="nonzero" opacity="0.1" points="102.866667 162 102 161.911946 102 117.679483 139.275333 112 141 154.075139"></polygon>
                <polygon id="Path" fill="#000000" fill-rule="nonzero" opacity="0.05" points="139 112.647813 138.98841 112.65625 101.610839 118 68 115.75 109.144303 109 138.98841 112.375 138.997103 112.557813"></polygon>
                <polygon id="Path" fill="#3F3D56" fill-rule="nonzero" points="164 155.866834 144.016641 160 143.561221 159.953099 126 158.16206 126 135.672948 147.497557 132 163.092061 133.83794 163.097863 133.937605 163.097863 133.984506"></polygon>
                <polygon id="Path" fill="#000000" fill-rule="nonzero" opacity="0.1" points="164 155.876729 143.467925 160 143 159.953211 143 136.953549 163.073091 134"></polygon>
                <polygon id="Path" fill="#000000" fill-rule="nonzero" opacity="0.05" points="163 134.025733 162.994214 134.031718 143.514896 137 126 135.749252 147.440848 132 162.994214 133.876122 163 133.977858"></polygon>
                <polygon id="Path" fill="#3F3D56" fill-rule="nonzero" points="109 111.869333 89.0166412 116 88.5612214 115.956026 71 114.164799 71 91.6733326 92.4975573 88 108.092061 89.8381321 108.097863 89.9378076 108.097863 89.9847136"></polygon>
                <polygon id="Path" fill="#000000" fill-rule="nonzero" opacity="0.1" points="110 111.87919 89.4679251 116 89 115.95613 89 92.9538808 109.073091 90"></polygon>
                <polygon id="Path" fill="#000000" fill-rule="nonzero" opacity="0.05" points="108 91.0257331 107.994214 91.0317175 88.5148956 94 71 92.7492519 92.4408476 89 107.994214 90.8761221 108 90.9778576"></polygon>
                <polygon id="Path" fill="#1800AD" fill-rule="nonzero" points="145 110.869333 125.016641 115 124.561221 114.956026 107 113.164799 107 90.6733326 128.497557 87 144.092061 88.8381321 144.097863 88.9378076 144.097863 88.9847136"></polygon>
                <polygon id="Path" fill="#000000" fill-rule="nonzero" opacity="0.1" points="145 110.87919 124.467925 115 124 114.95613 124 91.9538808 144.073091 89"></polygon>
                <polygon id="Path" fill="#000000" fill-rule="nonzero" opacity="0.05" points="144 90.0257331 143.994214 90.0317175 124.514896 93 107 91.7492519 128.440848 88 143.994214 89.8761221 144 89.9778576"></polygon>
                <polygon id="Path" fill="#3F3D56" fill-rule="nonzero" points="155 88.8693331 135.016641 93 134.561221 92.9560255 117 91.1647995 117 68.6733326 138.497557 65 154.092061 66.8381321 154.097863 66.9378076 154.097863 66.9847136"></polygon>
                <polygon id="Path" fill="#000000" fill-rule="nonzero" opacity="0.1" points="156 88.8791901 135.467925 93 135 92.9561305 135 69.9538808 155.073091 67"></polygon>
                <polygon id="Path" fill="#000000" fill-rule="nonzero" opacity="0.05" points="154 67.0257331 153.994214 67.0317175 134.514896 70 117 68.7492519 138.440848 65 153.994214 66.8761221 154 66.9778576"></polygon>
                <path d="M168.531785,42.9741602 C168.309896,44.8824408 166.802267,46.4208086 166.242985,48.2586297 C165.404062,51.0329762 166.8509,54.0128298 168.844862,56.1853339 C172.090739,59.6720387 176.646383,61.7589823 181.495577,61.9806354 C182.200844,62.0392594 182.91118,61.9644679 183.586805,61.7604492 C184.188429,61.5239512 184.730525,61.1655467 185.176503,60.7094269 C186.671974,59.2561978 187.477462,57.2451636 187.796617,55.2165145 C188.115773,53.1878654 187.99419,51.1239865 187.869567,49.0777224 C187.8694,48.6542438 187.789049,48.2343649 187.63248,47.8388079 C187.428969,47.4626163 187.148775,47.1300724 186.808755,46.8611811 C185.730692,45.9042726 184.54256,45.0699423 183.267649,44.3745446 C182.720526,44.080963 182.133887,43.7873813 181.784336,43.2794851 C181.544463,42.8750307 181.388561,42.4292733 181.32536,41.9671752 L180.933255,40.0412796 C180.863905,39.485988 180.667684,38.9525156 180.358775,38.4794253 C179.668791,37.5810655 178.346576,37.4577612 177.188497,37.413724 L172.933091,37.2522541 C171.610876,37.2023452 169.872238,36.8353681 168.580419,37.0878483 C167.364588,37.3197778 167.774931,38.3942866 167.99378,39.3689777 C168.310373,40.5478345 168.490808,41.7569333 168.531785,42.9741602 L168.531785,42.9741602 Z" id="Path" fill="#FFC0C6" fill-rule="nonzero"></path>
                <path d="M168.531785,42.9741602 C168.309896,44.8824408 166.802267,46.4208086 166.242985,48.2586297 C165.404062,51.0329762 166.8509,54.0128298 168.844862,56.1853339 C172.090739,59.6720387 176.646383,61.7589823 181.495577,61.9806354 C182.200844,62.0392594 182.91118,61.9644679 183.586805,61.7604492 C184.188429,61.5239512 184.730525,61.1655467 185.176503,60.7094269 C186.671974,59.2561978 187.477462,57.2451636 187.796617,55.2165145 C188.115773,53.1878654 187.99419,51.1239865 187.869567,49.0777224 C187.8694,48.6542438 187.789049,48.2343649 187.63248,47.8388079 C187.428969,47.4626163 187.148775,47.1300724 186.808755,46.8611811 C185.730692,45.9042726 184.54256,45.0699423 183.267649,44.3745446 C182.720526,44.080963 182.133887,43.7873813 181.784336,43.2794851 C181.544463,42.8750307 181.388561,42.4292733 181.32536,41.9671752 L180.933255,40.0412796 C180.863905,39.485988 180.667684,38.9525156 180.358775,38.4794253 C179.668791,37.5810655 178.346576,37.4577612 177.188497,37.413724 L172.933091,37.2522541 C171.610876,37.2023452 169.872238,36.8353681 168.580419,37.0878483 C167.364588,37.3197778 167.774931,38.3942866 167.99378,39.3689777 C168.310373,40.5478345 168.490808,41.7569333 168.531785,42.9741602 L168.531785,42.9741602 Z" id="Path" fill="#000000" fill-rule="nonzero" opacity="0.1"></path>
                <path d="M194.752294,128.462088 L192.973607,147.596331 C192.509471,152.614957 192.036352,157.65415 191.126047,162.608133 C190.826605,164.315288 190.443319,166.013629 190.006133,167.697277 C188.790397,172.372121 187.026682,176.941186 186.457741,181.733562 C186.439775,181.871662 186.424803,182.027392 186.40983,182.153739 C186.293048,183.211529 186.191238,184.281072 185.810946,185.268343 C185.511503,185.999981 185.08929,186.666976 184.780864,187.389799 C184.181979,188.835445 184.086158,190.433883 184.011297,192 C181.852792,190.804314 179.488954,190.007564 177.037285,189.649356 C175.839516,189.475996 174.536942,189.355525 173.74342,188.474034 C172.845093,187.516146 172.949897,186.049932 173.099619,184.762954 C173.570741,180.766859 174.039868,176.772723 174.506998,172.780546 C174.662717,171.062734 174.963187,169.360532 175.405325,167.691401 C175.567023,167.136061 175.761661,166.589536 175.959293,166.043012 C176.231785,165.290806 176.507272,164.538599 176.713888,163.765825 C177.000453,162.524237 177.198564,161.264575 177.306783,159.995979 C177.788886,155.976378 178.369804,151.965591 178.878856,147.948928 L178.905806,147.73737 C179.669383,141.649202 180.250302,135.53165 180.082614,129.399407 C180.058659,128.491471 180.019731,127.583535 179.959843,126.67266 C179.875999,125.353361 179.753227,124.654044 180.85817,123.82838 C182.088878,122.917506 183.708861,122.279894 185.11624,121.683418 C185.873829,121.360204 194.216292,118.451282 194.398952,119.091832 C194.786241,120.452424 194.98763,121.857469 194.997837,123.270102 C195.014722,125.003903 194.932747,126.737273 194.752294,128.462088 L194.752294,128.462088 Z" id="Path" fill="#605D82" fill-rule="nonzero"></path>
                <path d="M191,163.12294 C190.704433,164.859046 190.326108,166.586186 189.894581,168.298386 C188.694581,173.052506 186.953695,177.699052 186.392118,182.572697 C186.374384,182.713139 186.359606,182.87151 186.344828,183 C182.673892,177.699052 179.582266,171.997695 176,166.639973 C176.268966,165.875011 176.540887,165.110049 176.744828,164.32417 C177.038716,163.05439 177.244146,161.765333 177.359606,160.46649 C177.835468,156.378724 178.408867,152.299923 178.91133,148.215146 L178.937931,148 C179.145333,148.866845 179.442542,149.709173 179.824631,150.51302 C182.230542,155.455391 187.946798,157.953471 190.742857,162.683685 C190.835468,162.831099 190.921182,162.977518 191,163.12294 Z" id="Path" fill="#000000" fill-rule="nonzero" opacity="0.1"></path>
                <path d="M162.015973,119.432336 C162.134065,123.290535 162.744686,127.116727 163.355306,130.928371 L164.613992,138.784431 C165.302381,143.090716 166.022452,147.48138 168.038654,151.336669 C169.547924,154.223044 171.719661,156.684609 173.686897,159.271289 C178.520019,165.631788 182.152061,172.838996 186.734598,179.385713 C188.068171,181.288625 189.972041,183.348658 192.244587,182.950036 C193.736576,182.691077 194.819564,181.434108 195.988961,180.468103 C197.371499,179.32752 199.036305,178.49245 200.125053,177.060901 C201.213802,175.629352 201.426943,173.255076 199.952236,172.236698 C199.448186,171.89045 198.834685,171.759515 198.264388,171.538382 C195.98032,170.665486 194.499852,168.407596 193.560879,166.126429 C192.621905,163.845262 192.048728,161.398245 190.795803,159.277109 C188.071051,154.67113 182.497695,152.238661 180.153142,147.423187 C178.839731,144.72885 178.712998,141.603883 178.615068,138.615671 L178.358723,130.960377 C178.32992,130.122397 178.309758,129.252411 178.646751,128.487173 C179.542521,126.450417 182.249991,126.25838 184.44477,125.999421 C186.933779,125.705839 189.345008,124.937675 191.550438,123.735711 C192.814884,123.046124 194.047647,122.167409 194.718754,120.887162 C195.335136,119.723302 195.418664,118.352856 195.490671,117.031874 L196.251067,103.155744 C196.317314,101.962787 196.374919,100.726185 195.963038,99.6088784 C194.917494,96.7981547 191.403544,95.8787047 188.433967,96.0125487 C182.909577,96.2627787 177.811468,98.6632415 172.592388,100.286827 C171.299139,100.688359 170.000129,101.049156 168.666556,101.319754 C167.514441,101.555435 166.074298,101.459417 164.968267,101.837672 C162.98663,102.512711 163.035595,106.894647 162.756207,108.710269 C162.179739,112.253238 161.931919,115.842832 162.015973,119.432336 L162.015973,119.432336 Z" id="Path" fill="#605D82" fill-rule="nonzero"></path>
                <path d="M192.098289,183.915031 C192.584297,184.409512 192.742465,185.132437 192.869,185.814878 C193.571939,189.602259 193.937653,193.445119 193.961799,197.297816 C193.930314,197.657268 194.001128,198.018312 194.165979,198.338828 C194.30386,198.528762 194.489447,198.678452 194.703752,198.772583 C196.110011,199.446349 197.740582,198.506547 198.913903,197.47421 C201.085121,195.562797 202.922749,192.994967 203.046408,190.094593 C203.078041,189.348534 202.994644,188.593801 203.124054,187.856417 C203.313856,186.763355 203.949405,185.811986 204.507307,184.857725 C205.461875,183.231171 206.233499,181.502869 206.807936,179.704717 C207.020744,179.028059 207.164534,178.177899 206.635389,177.706552 C206.450089,177.558475 206.238239,177.447547 206.011343,177.37979 L199.655856,175.008597 C199.103705,174.803286 197.73483,178.339835 197.519146,178.727322 C196.987126,179.672908 196.457981,180.207872 195.391064,180.427642 C194.324148,180.647411 193.007038,180.329324 191.989009,180.875855 C190.263537,181.798307 191.123398,182.928962 192.098289,183.915031 Z" id="Path" fill="#535070" fill-rule="nonzero"></path>
                <path d="M181.332814,186.087826 C181.213243,185.854633 181.046383,185.647696 180.842403,185.479627 C180.544324,185.29395 180.204872,185.181311 179.852823,185.151256 C178.626795,184.945668 177.173077,184.811464 176.323615,185.705203 C175.529616,186.541833 175.666814,187.903856 175.004175,188.846136 C174.793999,189.131676 174.507926,189.388661 174.326941,189.702754 C174.101978,190.183552 174.001713,190.7112 174.035029,191.238956 C174,192.692352 173.964971,194.151458 174.070059,195.601999 C174.154713,196.818396 174.36197,198.094758 175.141373,199.048459 C176.390754,200.57895 178.64431,200.798816 180.640984,200.895899 L182.261092,200.978706 C182.706565,201.029706 183.158021,200.988853 183.586369,200.858779 C184.122766,200.617496 184.535823,200.173258 184.730662,199.628104 C185.574286,197.577931 184.240251,195.370712 183.417061,193.314828 C182.468349,190.947706 182.637658,188.323599 181.332814,186.087826 Z" id="Path" fill="#535070" fill-rule="nonzero"></path>
                <path d="M168.60573,32.6505014 C168.584796,32.4351113 168.616189,32.2178418 168.697226,32.0172612 C168.936296,31.5941147 169.562011,31.7213546 170.034248,31.827881 C171.932052,32.3072497 173.933158,31.872267 175.889992,31.9847115 C177.846826,32.097156 180.048633,33.0766069 180.44118,35 C181.860846,33.9927192 183.084291,32.7330346 184.050845,31.2834128 C184.593918,30.4696696 185.066155,29.5375637 184.992368,28.5610718 C184.886115,27.1525563 183.708473,26.0991287 182.631181,25.2054907 L179.384549,22.5423311 C178.956852,22.1490202 178.46327,21.8344797 177.926516,21.6131843 C177.176839,21.3557455 176.356326,21.4800263 175.565329,21.4800263 C173.204142,21.4800263 170.671769,20.3999671 168.567361,21.4800263 C167.681916,21.9327634 167.023735,22.7109979 166.386214,23.4685188 L163.484906,26.9128719 C163.265291,27.1324309 163.104839,27.4042711 163.018571,27.7029426 C162.93593,28.12313 163.151388,28.5373993 163.228126,28.9605458 C163.363895,29.729903 163.033329,30.5525234 163.287156,31.29229 C163.709218,32.5173434 165.196766,32.6919283 166.105823,33.3961861 C166.442292,33.6565839 166.973559,34.5472629 167.377913,34.5354266 C168.08922,34.5206313 168.58507,33.2186421 168.60573,32.6505014 Z" id="Path" fill="#3F3D56" fill-rule="nonzero"></path>
                <circle id="Oval" fill="#FFC0C6" fill-rule="nonzero" cx="173.5" cy="32.5" r="9.5"></circle>
                <path d="M175.355664,52.9840495 C174.710035,51.1392412 172.944548,49.9225879 170.988333,49.9743821 C170.71487,50.0264864 170.431899,49.9903899 170.180332,49.8713113 C170.03773,49.7625855 169.923434,49.6211736 169.847106,49.4590281 C169.283955,48.4437751 168.830233,47.3717308 168.493557,46.2608884 C168.346112,45.7690934 168.142637,45.1889521 167.644272,45.0623222 C167.243221,44.9592514 166.833323,45.2184009 166.564972,45.533503 C166.327115,45.8716326 166.069112,46.1951717 165.792358,46.5023686 C164.612796,47.5448561 162.548561,46.5936599 161.312969,47.5507459 C161.109494,47.7068245 160.941407,47.9070764 160.723187,48.0513755 C160.510879,48.1805772 160.28162,48.2796878 160.04199,48.3458635 C157.643481,49.1251022 155.292209,50.0424978 153,51.0934366 C153.825694,56.0526145 154.669081,61.1060287 156.603564,65.7442147 C157.523623,67.9528748 158.564587,70.1173616 159.301814,72.3937538 C160.935509,77.4383333 161.006282,82.8362984 161.026925,88.1400274 C161.026925,91.7681196 161.026925,95.4727787 159.847362,98.9065088 C159.58196,99.6839571 159.257581,100.455516 159.183858,101.262413 C159.110135,102.06931 159.351946,102.982223 160.01545,103.465183 C160.399552,103.718189 160.840094,103.872927 161.298224,103.91575 C163.335919,104.210238 165.388358,103.67427 167.393615,103.208979 C172.769472,101.966239 178.254439,101.253578 183.724662,100.558586 L192.895763,99.3806345 C193.553687,99.3346878 194.197485,99.1679681 194.794859,98.8888395 C196.472787,97.9729818 196.632028,95.4521645 195.588115,93.8501498 C195.089749,93.0815361 194.384961,92.4513318 193.963267,91.6385449 C193.541573,90.825758 193.509135,89.6831445 194.231617,89.1206724 C195.706071,87.9721692 195.263735,85.843021 195.334509,83.9818568 C195.531102,78.7753089 195.504562,73.5726875 195.254888,68.3739926 C195.179822,67.2959013 195.162104,66.2145913 195.201808,65.1346246 C195.30502,63.3029092 195.759151,61.5094772 196.213283,59.7278248 L199,48.7728711 C198.27162,47.6243679 196.876787,46.8940376 195.558626,46.5642111 C194.240464,46.2343845 192.863325,46.1372035 191.562857,45.7337549 C188.90884,44.9091885 186.526123,42.8183237 183.745304,43.0126857 C183.534418,43.0164345 183.326972,43.0667167 183.137829,43.1599297 C182.512661,43.5162602 182.609975,44.4173935 182.571639,45.1359442 C182.483172,46.7291243 181.309507,48.0572652 180.017886,48.9907922 C178.726265,49.9243192 177.245913,50.6016416 176.057504,51.6647433 C175.639742,51.9792614 175.382784,52.4622869 175.355664,52.9840495 Z" id="Path" fill="#3F3D56" fill-rule="nonzero"></path>
                <path d="M139.047404,63.3039927 C138.418424,63.6862903 137.749795,64.0082877 137.051673,64.2650939 C136.388439,64.5103015 135.679984,64.7047765 135.137338,65.1331853 C134.868666,65.3511148 134.643139,65.6115733 134.471089,65.90263 C133.816766,66.9880868 133.845881,68.3203929 134.547079,69.3799582 C135.248278,70.4395235 136.510514,71.0585497 137.841524,70.9956208 C138.712773,70.9533436 139.535786,70.6235816 140.334681,70.2994566 L147.033345,67.5739878 C148.166873,67.1145758 149.390841,66.5790648 149.927457,65.5362277 C149.988951,65.4385929 150.012386,65.3240633 149.993781,65.2121027 C149.9419,65.0892569 149.843055,64.9888103 149.716428,64.9302548 C148.206897,64.0120674 146.886503,62.8473098 145.818421,61.4917109 C145.544083,61.1422196 145.215481,60.3192238 144.817541,60.1078379 C143.400631,59.372215 140.183946,62.6162839 139.047404,63.3039927 Z" id="Path" fill="#FFC0C6" fill-rule="nonzero"></path>
                <path d="M207.860977,61 L210.15623,63.7186892 C210.649471,64.2996057 211.142712,64.8805222 211.591113,65.507912 C212.694565,67.0829259 213.579433,68.8105513 214.219864,70.6403093 C214.71871,71.9967493 215.133481,73.4432314 214.959726,74.8839043 C214.843289,75.6225083 214.650681,76.3460222 214.385212,77.0420091 C213.964724,78.3800226 213.442764,79.6814626 212.824216,80.9341496 C212.307687,81.8846702 211.724112,82.7943437 211.078254,83.6557434 C209.300459,86.0971944 207.355148,88.4026314 205.257448,90.5541268 C204.472746,91.3586962 204.136445,92.6628537 203.802947,93.7491676 C203.172383,95.7562341 201.673042,97.321804 200.224146,98.8031411 C199.758131,99.3137386 199.242544,99.7731572 198.68557,100.174104 C197.851409,100.731964 196.875618,101.019182 195.883064,100.999005 C195.44997,101.001574 195.021215,100.909533 194.624738,100.728879 C193.632651,100.240909 193.1282,99.0529352 193.024507,97.920148 C192.932932,96.8908303 193.098952,95.8544276 193.506538,94.9110006 C194.823716,91.8873302 198.206341,90.5773635 200.59688,88.3698808 C201.998133,87.0773416 203.071493,85.4507754 204.13084,83.8445413 C204.84835,82.8405449 205.447656,81.7513663 205.916037,80.6001226 C206.448513,79.1216901 206.241128,77.3731315 206.709147,75.8743669 C206.905322,75.2382634 207.269648,74.6660606 207.468626,74.0357662 C207.667604,73.4054718 207.734864,72.6589941 207.362131,72.1158372 C207.082845,71.7686161 206.725913,71.497399 206.322401,71.3257907 C204.795035,70.524126 203.085505,69.4900946 202.794045,67.7386314 C202.677312,66.7686988 202.921865,65.7891361 203.477856,64.9996101 C204.03083,64.2201584 204.677871,63.5173381 205.403178,62.9083107 C206.067372,62.28673 207.191178,61.598344 207.860977,61 Z" id="Path" fill="#FFC0C6" fill-rule="nonzero"></path>
                <path d="M137.034969,66.4444242 C136.615178,65.5823075 136.087524,64.7024761 135.23628,64.2743702 C134.399012,63.9085433 133.449852,63.9085433 132.612584,64.2743702 C131.787682,64.6355725 131.014919,65.1083308 130.315392,65.6797385 L128.257248,67.2179673 C127.790705,67.5280664 127.377984,67.9141368 127.035772,68.3605671 C126.709378,68.9022129 126.493298,69.5045271 126.400254,70.1320398 C126.108733,71.5698851 125.8726,73.0490647 126.076665,74.5046248 C126.40317,76.8665883 127.802474,78.9096868 129.341709,80.704779 C130.303731,81.8208068 131.49314,82.9486444 132.95658,82.9988361 C133.589182,83.0195033 134.291749,82.7655922 134.554119,82.1839587 C134.645598,81.9528644 134.694029,81.7066112 134.696965,81.4576549 C134.854386,78.8358754 133.927347,76.2760974 132.848716,73.8875618 C132.557195,73.2380218 132.242351,72.5648622 132.265673,71.8533207 C132.256727,71.7325144 132.287475,71.6121026 132.353129,71.510836 C132.44567,71.4126185 132.569648,71.3508839 132.702956,71.3366412 C134.180971,71.0413957 136.728872,72.2046628 137.763774,70.5424309 C138.434274,69.4441179 137.513065,67.4216866 137.034969,66.4444242 Z" id="Path" fill="#FFC0C6" fill-rule="nonzero"></path>
                <path d="M168.600578,29.6505014 C168.582065,29.4349156 168.614424,29.2179881 168.695039,29.0172612 C168.934141,28.5911557 169.559939,28.7213546 170.03224,28.827881 C171.930299,29.3072497 173.931673,28.872267 175.88877,28.9847115 C177.845866,29.097156 180.045017,30.0766069 180.440568,32 C181.859041,30.9910973 183.08238,29.7316909 184.050717,28.2834128 C184.593863,27.4667105 185.066164,26.5346046 184.992367,25.5581128 C184.886099,24.1495972 183.705347,23.0961697 182.630863,22.2054907 L179.383795,19.5423311 C178.957116,19.1490663 178.464443,18.8345105 177.928519,18.6131843 C177.175789,18.3557455 176.358119,18.4800263 175.567015,18.4800263 C173.205511,18.4800263 170.672798,17.3999671 168.568108,18.4800263 C167.682544,18.9327634 167.024275,19.7109979 166.386669,20.4685188 L163.482019,23.9128719 C163.263651,24.1329201 163.104243,24.4046757 163.018574,24.7029426 C162.935921,25.12313 163.151408,25.5373993 163.228157,25.9605458 C163.363944,26.729903 163.033333,27.5525234 163.287195,28.2893309 C163.709314,29.5173434 165.197061,29.6919283 166.10624,30.3961861 C166.442754,30.6565839 166.974093,31.5472629 167.3785,31.5354266 C168.078096,31.5206313 168.574011,30.2186421 168.600578,29.6505014 Z" id="Path" fill="#3F3D56" fill-rule="nonzero"></path>
                <path d="M147.895224,54.0157911 C147.526618,54.2532646 147.202428,54.5525148 146.937133,54.9001751 C146.603253,55.4043028 146.533574,56.0524669 146.246147,56.5709983 C145.630646,57.7060058 144.187704,58.1121886 143.290582,59.0426643 C143.14514,59.1698578 143.043592,59.3391312 143.000252,59.5266269 C142.994731,59.7800049 143.080137,60.0270844 143.241226,60.2237635 L147.578763,66.9877167 C149.030416,67.1144689 150.406582,66.2156812 151.852428,66.3366718 C152.389539,66.3798828 152.944071,66.5642495 153.460859,66.4058094 C153.83022,66.2425464 154.17667,66.0324195 154.491532,65.780691 C155.362524,65.2391138 156.500619,65.1757378 157.223542,64.4641976 C157.946465,63.7526573 158.007434,62.7069525 157.998724,61.7361466 C158.011748,60.8935798 157.925023,60.0524097 157.74033,59.2299118 C157.101603,56.6372551 155.101226,54.6380287 153.846998,52.3392064 C153.234401,51.2186026 152.903424,50.5646769 151.611454,51.3338317 C150.319483,52.1029866 149.117515,53.1285263 147.895224,54.0157911 Z" id="Path" fill="#3F3D56" fill-rule="nonzero"></path>
                <path d="M201.480291,50.3958836 C202.29927,50.9464402 203.037888,51.6155745 203.673657,52.3829152 C204.33575,53.2677181 204.712005,54.3548479 205.350765,55.2607894 C205.989524,56.1667309 206.80912,56.8190088 207.50913,57.6283165 C208.573729,58.8543573 209.294156,60.346141 210,61.8288652 C208.272097,64.1565254 206.389147,66.3562788 204.364917,68.4120401 C204.139128,68.686955 203.841306,68.888326 203.507404,68.9918427 C203.047588,69.0430038 202.593766,68.8511999 202.299887,68.4814956 C201.984882,68.1432775 201.763212,67.7205048 201.462791,67.3671876 C200.755023,66.6114252 199.811594,66.1396202 198.799835,66.0354536 C197.796494,65.9342633 196.786792,65.9191127 195.781041,65.9901565 C195.560283,66.017255 195.336642,65.9784895 195.136448,65.8784237 C194.987514,65.7725141 194.867065,65.6291017 194.786443,65.4616906 C193.619759,63.3840648 193.984347,60.7749533 194.401437,58.4013866 L195.355201,52.9657376 C195.4944,51.9279382 195.762019,50.9130006 196.151463,49.9459326 C196.513135,49.1456843 197.318147,47.7867721 198.315661,48.0283565 C199.313176,48.2699408 200.637362,49.7677641 201.480291,50.3958836 Z" id="Path" fill="#3F3D56" fill-rule="nonzero"></path>
                <polygon id="Path" fill="#1800AD" fill-rule="nonzero" points="118 89.8693331 98.0166412 94 97.5612214 93.9560255 80 92.1647995 80 69.6733326 101.497557 66 117.092061 67.8381321 117.097863 67.9378076 117.097863 67.9847136"></polygon>
                <polygon id="Path" fill="#000000" fill-rule="nonzero" opacity="0.1" points="118 89.8791901 97.4679251 94 97 93.9561305 97 70.9538808 117.073091 68"></polygon>
                <polygon id="Path" fill="#000000" fill-rule="nonzero" opacity="0.05" points="117 68.0257331 116.994214 68.0317175 97.5148956 71 80 69.7492519 101.440848 66 116.994214 67.8761221 117 67.9778576"></polygon>
                <polygon id="Path" fill="#3F3D56" fill-rule="nonzero" points="129 67.8668342 109.016641 72 108.561221 71.9530988 91 70.1620603 91 47.6729481 112.497557 44 128.092061 45.8379397 128.097863 45.9376047 128.097863 45.9845059"></polygon>
                <polygon id="Path" fill="#000000" fill-rule="nonzero" opacity="0.1" points="128 67.8767293 107.467925 72 107 71.9532111 107 48.9535485 127.073091 46"></polygon>
                <polygon id="Path" fill="#000000" fill-rule="nonzero" opacity="0.05" points="128 46.0257331 127.994214 46.0317175 108.514896 49 91 47.7492519 112.440848 44 127.994214 45.8761221 128 45.9778576"></polygon>
            </g>
        </g>
    </g>
</svg>