<?xml version="1.0" encoding="UTF-8"?>
<svg width="366px" height="200px" viewBox="0 0 366 200" version="1.1" xmlns="http://www.w3.org/2000/svg" xmlns:xlink="http://www.w3.org/1999/xlink">
    <!-- Generator: Sketch 53.2 (72643) - https://sketchapp.com -->
    <title>undraw_work_together_h63l</title>
    <desc>Created with Sketch.</desc>
    <g id="Portfolio" stroke="none" stroke-width="1" fill="none" fill-rule="evenodd">
        <g id="About-Me" transform="translate(-900.000000, -1419.000000)" fill-rule="nonzero">
            <g id="undraw_work_together_h63l" transform="translate(900.000000, 1419.000000)">
                <rect id="Rectangle" fill="#E6E6E6" x="75.3888889" y="0" width="288" height="184"></rect>
                <rect id="Rectangle" fill="#FFFFFF" x="101.388889" y="24" width="103" height="107"></rect>
                <rect id="Rectangle" fill="#FFFFFF" x="245.388889" y="27" width="103" height="129"></rect>
                <ellipse id="Oval" fill="#E6E6E6" cx="346.888889" cy="194" rx="18.5" ry="3"></ellipse>
                <ellipse id="Oval" fill="#E6E6E6" cx="160.888889" cy="194" rx="18.5" ry="3"></ellipse>
                <ellipse id="Oval" fill="#E6E6E6" cx="43.3888889" cy="191" rx="43" ry="2"></ellipse>
                <rect id="Rectangle" fill="#1800AD" x="75.3888889" y="0" width="288" height="12"></rect>
                <circle id="Oval" fill="#E6E6E6" cx="83.8888889" cy="5.5" r="2.5"></circle>
                <circle id="Oval" fill="#E6E6E6" cx="93.8888889" cy="5.5" r="2.5"></circle>
                <circle id="Oval" fill="#E6E6E6" cx="102.888889" cy="5.5" r="2.5"></circle>
                <path d="M326.388889,61.0906605 L325.74977,61.0906605 L325.74977,43.9313534 C325.749774,41.2973909 324.682147,38.7713079 322.781756,36.9088167 C320.881366,35.0463255 318.303883,33.9999924 315.616327,34 L278.522333,34 C275.834777,33.9999924 273.257294,35.0463255 271.356903,36.9088167 C269.456513,38.7713079 268.388886,41.2973909 268.388889,43.9313534 L268.388889,138.068647 C268.388886,140.702609 269.456513,143.228692 271.356903,145.091183 C273.257294,146.953674 275.834777,148.000008 278.522333,148 L315.616327,148 C318.303883,148.000008 320.881366,146.953674 322.781756,145.091183 C324.682147,143.228692 325.749774,140.702609 325.74977,138.068647 L325.74977,73.3049449 L326.388889,73.3049449 L326.388889,61.0906605 Z" id="Path" fill="#3F3D56"></path>
                <path d="M315.024627,36 L310.312692,36 C310.752726,37.0981526 310.626857,38.3472241 309.976969,39.3315747 C309.327081,40.3159253 308.238454,40.9063857 307.073338,40.9064748 L286.39346,40.9064748 C285.228347,40.9063788 284.139726,40.3159164 283.489841,39.3315676 C282.839955,38.3472188 282.714085,37.0981513 283.154115,36 L278.753147,36 C276.800026,35.9999978 274.9269,36.7897698 273.545833,38.1955751 C272.164767,39.6013804 271.388891,41.5080628 271.388889,43.496174 L271.388889,138.503818 C271.388889,140.49193 272.164764,142.398615 273.545831,143.804422 C274.926897,145.210229 276.800025,146.000002 278.753147,146 L315.024627,146 C316.977749,146.000002 318.850877,145.210229 320.231945,143.804422 C321.613012,142.398615 322.388888,140.491931 322.388889,138.503818 L322.388889,43.496174 C322.388882,39.3561462 319.09179,35.9999955 315.024627,36 L315.024627,36 Z" id="Path" fill="#FFFFFF"></path>
                <rect id="Rectangle" fill="#E6E6E6" x="117.388889" y="92" width="73" height="3"></rect>
                <rect id="Rectangle" fill="#1800AD" x="117.388889" y="102" width="73" height="3"></rect>
                <rect id="Rectangle" fill="#E6E6E6" x="117.388889" y="113" width="73" height="3"></rect>
                <rect id="Rectangle" fill="#E6E6E6" x="275.388889" y="98" width="43" height="3"></rect>
                <rect id="Rectangle" fill="#E6E6E6" x="275.388889" y="109" width="43" height="3"></rect>
                <rect id="Rectangle" fill="#E6E6E6" x="275.388889" y="120" width="43" height="3"></rect>
                <rect id="Rectangle" fill="#3F3D56" transform="translate(318.888889, 166.500000) rotate(90.000000) translate(-318.888889, -166.500000) " x="315.388889" y="163" width="7" height="7"></rect>
                <polygon id="Rectangle" fill="#1800AD" transform="translate(307.888889, 166.500000) rotate(90.000000) translate(-307.888889, -166.500000) " points="304.388889 163 311.388889 163 311.388889 170 304.388889 170"></polygon>
                <polygon id="Rectangle" fill="#3F3D56" transform="translate(296.888889, 166.500000) rotate(90.000000) translate(-296.888889, -166.500000) " points="293.388889 163 300.388889 163 300.388889 170 293.388889 170"></polygon>
                <rect id="Rectangle" fill="#3F3D56" transform="translate(284.888889, 166.500000) rotate(90.000000) translate(-284.888889, -166.500000) " x="281.388889" y="163" width="7" height="7"></rect>
                <polygon id="Rectangle" fill="#3F3D56" transform="translate(272.888889, 166.500000) rotate(90.000000) translate(-272.888889, -166.500000) " points="269.388889 163 276.388889 163 276.388889 170 269.388889 170"></polygon>
                <rect id="Rectangle" fill="#1800AD" x="285.388889" y="56" width="23" height="23"></rect>
                <path d="M144.171069,111.419354 L143.81463,112 L142.745325,107.645164 C142.745325,107.645164 141.319581,103 144.171069,103 C147.022556,103 146.30968,107.645164 146.30968,107.645164 L146.30968,110.838716 L144.171069,111.419354 Z" id="Path" fill="#A0616A"></path>
                <path d="M183.606711,110.419354 L183.963144,111 L185.032453,106.645164 C185.032453,106.645164 186.458196,102 183.606711,102 C180.755226,102 181.468097,106.645164 181.468097,106.645164 L181.468097,109.83872 L183.606711,110.419354 Z" id="Path" fill="#A0616A"></path>
                <polygon id="Path" fill="#2F2E41" points="156.988646 146 153.388889 168.845666 155.188565 191.073577 159.388619 189.221563 158.788727 172.550109 162.988781 159.274846 163.888619 175.019877 162.088943 191.382246 167.488781 192 171.388889 158.34884 171.088943 146.926007"></polygon>
                <path d="M157.780687,188.300794 L155.388889,191.609681 L155.388889,199.003204 C155.388939,199.443087 155.75147,199.81797 156.244723,199.888194 C157.417031,200.057529 159.458275,200.177842 160.17249,199.129893 C161.197545,197.625855 160.514173,194.316964 160.514173,194.316964 C160.514173,194.316964 161.880916,191.910503 161.197545,190.105655 C160.514173,188.300806 159.830802,188 159.830802,188 L157.780687,188.300794 Z" id="Path" fill="#2F2E41"></path>
                <path d="M166.213591,190.331567 L166.851042,191.32626 C166.851042,191.32626 167.807215,192.320958 167.169765,192.984088 C166.701925,193.49949 166.275527,194.053958 165.894864,194.641911 C165.894864,194.641911 162.388889,195.636604 162.388889,194.310344 L162.388889,190 L166.213591,190.331567 Z" id="Path" fill="#2F2E41"></path>
                <circle id="Oval" fill="#A0616A" cx="165.388889" cy="117" r="4"></circle>
                <polygon id="Path" fill="#A0616A" points="162.722172 119 162.388889 124.700061 168.388889 125 168.055606 119.299939"></polygon>
                <path d="M168.850426,124.756491 L167.976987,122.679943 C167.976987,122.679943 163.927347,121.163188 162.696582,122.660395 L162.081197,124.457047 L157.158118,123.259279 L154.388889,129.248119 L156.850428,146.316304 C156.850428,146.316304 163.311962,154.401235 171.92735,146.615744 L174.388889,130.445886 L172.542755,124.157607 L168.850426,124.756491 Z" id="Path" fill="#575A89"></path>
                <polygon id="Path" fill="#575A89" points="172.388889 125.471278 172.984419 124.283983 178.940927 120.722497 182.575993 110 185.388889 111.201311 182.216746 123.987259 173.579949 132"></polygon>
                <polygon id="Path" fill="#575A89" points="157.388889 124.432818 156.788986 123.835911 150.488792 119.955212 145.988711 111 142.388889 112.193813 146.288662 123.238602 155.889132 131"></polygon>
                <path d="M168.874859,111.513203 L169.556173,111.196973 L168.534204,110.880747 L168.534204,110.564505 C168.534204,110.564505 163.424357,108.667142 162.743046,111.829413 C160.937503,114.081623 160.937503,117.166656 162.743046,119.418866 L162.743046,120.367544 L168.193549,121 L168.874859,119.102637 C168.874859,119.102637 172.281426,113.410566 168.874859,111.513203 Z" id="Path" fill="#2F2E41"></path>
                <path d="M48.0461649,146 L46.8952576,146.691882 C46.8952576,146.691882 42.291628,149.228781 43.6343519,150.612546 C44.9770759,151.996311 48.6216186,149.228781 48.6216186,149.228781 L49.3888889,148.075642 L48.0461649,146 Z" id="Path" fill="#FFB8B8"></path>
                <polygon id="Path" fill="#2F2E41" points="82.3888889 147 78.7876504 171.134396 73.3502944 188 70.437804 186.64311 73.156074 163.573939 65.3888889 156.982573 65.9715502 147.289627"></polygon>
                <path d="M69.3535989,186.548201 C69.3535989,186.548201 73.1647077,184.92221 73.3888889,187.270863 L72.9405218,189.619516 C72.9405218,189.619516 74.2856184,193.774828 69.801966,192.871499 C65.3183137,191.968169 68.4568694,189.258187 68.4568694,189.258187 L69.3535989,186.548201 Z" id="Path" fill="#2F2E41"></path>
                <path d="M67.900252,154 L65.3888889,156.169216 C65.3888889,156.169216 65.3888889,169.578931 67.1275217,171.550947 C68.8661546,173.522962 79.8775217,183.58025 80.2638869,183.974651 C80.650252,184.369052 82.3888889,180.030619 82.3888889,180.030619 L71.9570674,167.606915 L72.7297976,159.916048 L67.900252,154 Z" id="Path" fill="#2F2E41"></path>
                <path d="M81.3467952,179.074899 C81.3467952,179.074899 84.8275161,178.473628 84.8275161,180.678286 C84.8708407,182.421232 85.0160804,184.160761 85.2626034,185.889306 C85.2626034,185.889306 86.132787,192.904135 83.304697,191.902015 C80.476607,190.899894 79.3888889,183.885069 79.3888889,183.885069 C79.6520003,183.302015 80.1089843,182.810826 80.6941598,182.4821 C81.5643389,182.081256 81.3467952,179.074899 81.3467952,179.074899 Z" id="Path" fill="#2F2E41"></path>
                <polygon id="Path" fill="#FFB8B8" points="71.8262781 117 72.3888889 123.529644 70.8889874 126 66.7639628 122.294096 66.3888889 117.353014"></polygon>
                <circle id="Oval" fill="#FFB8B8" cx="67.8888889" cy="114.5" r="4.5"></circle>
                <polygon id="Path" fill="#D0CDE1" points="69.3229411 123.730519 71.3009585 118 74.8613067 121.952111 81.3888889 147.047889 76.4436375 150.01218 74.2681925 146.850242 73.8725059 151 64.1798465 149.023945 63.3888889 122.544637 65.3656594 119.763045"></polygon>
                <polygon id="Path" fill="#2F2E41" points="66.3888889 152 65.2727826 120 62.8540961 121.975304 58.3888889 125.135623 61.365824 136.395144 62.2958475 148.246965"></polygon>
                <polygon id="Path" fill="#2F2E41" points="60.2735095 125.192039 58.9271018 125 55.0810308 136.327864 47.3888889 145.928187 50.2736441 149 59.1194457 140.359871 62.3888889 133.256052"></polygon>
                <path d="M82.0259152,147 L81.7749388,148.290648 C81.7749388,148.290648 80.626673,153.331438 82.2908411,152.982705 C83.9550092,152.633973 84.3888889,148.242453 84.3888889,148.242453 L84.1231436,147.016649 L82.0259152,147 Z" id="Path" fill="#FFB8B8"></path>
                <polygon id="Path" fill="#2F2E41" points="70.5463422 118 80.2178299 121.835115 79.0471809 133.560982 81.3888889 146.459683 79.0471809 149 70.3888889 119.661103"></polygon>
                <path d="M68.6472182,106.613634 L69.917499,106 L69.917499,106.613634 L70.7643491,106.204546 L70.7643491,107.227273 C70.7643491,107.227273 73.9400436,109.477272 73.3049032,112.136363 C72.6697628,114.795454 72.6697628,115 72.6697628,115 C72.6697628,115 71.8668073,109.943137 68.6911166,110.761317 C65.5154259,111.579498 65.259814,111.727274 64.412964,113.977273 L64.183219,114.942392 C64.183219,114.942392 60.6021404,107.022727 68.6472182,106.613634 Z" id="Path" fill="#2F2E41"></path>
                <polygon id="Path" fill="#2F2E41" points="80.0439863 122 81.6990838 122 84.3888889 135.358757 84.3888889 147 81.078694 146.427362 78.3888889 128.870058"></polygon>
                <rect id="Rectangle" fill="#1800AD" x="1.38888889" y="150" width="58" height="40"></rect>
                <path d="M30.3888889,159 C23.7614719,159 18.3888889,164.372583 18.3888889,171 C18.3888889,177.627417 23.7614719,183 30.3888889,183 C37.0163059,183 42.3888889,177.627417 42.3888889,171 C42.3695096,164.380627 37.0082621,159.019379 30.3888889,159 Z M30.3888889,162.6 C32.3771162,162.6 33.9888929,164.211777 33.9888929,166.200004 C33.9888929,168.188231 32.3771162,169.800008 30.3888889,169.800008 C28.4006616,169.800008 26.7888849,168.188231 26.7888849,166.200004 C26.7955123,164.214528 28.4034132,162.606627 30.3888889,162.6 Z M30.3888889,179.930779 C27.5016312,179.91761 24.8070975,178.479663 23.1888808,176.08847 C23.246574,173.688466 27.9888849,172.367311 30.3888889,172.367311 C32.7888929,172.367311 37.5311998,173.688466 37.5888889,176.08847 C35.9689275,178.477722 33.2755016,179.915079 30.3888849,179.930779 L30.3888889,179.930779 Z" id="Shape" fill="#FFFFFF"></path>
                <rect id="Rectangle" fill="#E6E6E6" x="117.388889" y="37" width="73" height="41"></rect>
                <path d="M332.826033,118.438736 L333.217315,116.40729 C333.217315,116.40729 335.497947,112.234172 333.695243,112.009206 C331.89254,111.784239 330.388889,115.757139 330.388889,115.757139 L331.048481,120 L332.826033,118.438736 Z" id="Path" fill="#FFB8B8"></path>
                <polygon id="Path" fill="#575A89" points="348.388889 130.626172 334.210118 127.751066 332.562593 117.325234 328.388889 117 328.592824 130.47954 340.912111 137"></polygon>
                <polygon id="Path" fill="#000000" opacity="0.2" points="348.388889 130.626172 334.210118 127.751066 332.562593 117.325234 328.388889 117 328.592824 130.47954 340.912111 137"></polygon>
                <rect id="Rectangle" fill="#1800AD" transform="translate(330.888889, 114.500000) rotate(-180.000000) translate(-330.888889, -114.500000) " x="309.388889" y="113" width="43" height="3"></rect>
                <path d="M328.905097,118.072785 L328.907868,115.822482 C328.907868,115.822482 330.173487,111.002013 328.59888,111.000001 C327.024272,110.997988 326.388889,115.497779 326.388889,115.497779 L327.64304,120 L328.905097,118.072785 Z" id="Path" fill="#FFB8B8"></path>
                <path d="M346.633715,123.853877 L348.521844,123.386041 C349.980882,123.387903 351.363578,122.723477 352.288189,121.576202 C353.212799,120.428927 353.581524,118.920155 353.292562,117.466439 L353.292562,117.466439 C353.29468,115.753585 352.627317,114.110031 351.437288,112.897339 C350.247258,111.684647 348.632042,111.002156 346.946969,111.000005 L346.946969,111.000005 C345.261892,110.997845 343.644987,111.676206 342.451957,112.885854 C341.258927,114.095503 340.5875,115.737351 340.585382,117.45021 L340.585382,117.45021 C340.088353,119.208338 340.549512,121.10248 341.795856,122.422045 C343.0422,123.74161 344.8853,124.287101 346.633715,123.853877 Z" id="Path" fill="#2F2E41"></path>
                <polygon id="Path" fill="#2F2E41" points="336.388889 155.427276 337.926954 171.862316 340.711956 187.994397 345.388889 188 344.785718 172.174881 342.316038 153"></polygon>
                <path d="M340.703215,187 L337.573672,189.28438 C337.573672,189.28438 332.569391,190.039769 333.505584,191.94885 C334.441778,193.857932 345.388102,192.73012 345.388887,191.967059 C345.389673,191.203999 345.081263,187.006698 344.45584,187.00575 L340.703215,187 Z" id="Path" fill="#2F2E41"></path>
                <path d="M350.667263,154.241047 C350.667263,154.241047 350.58436,156.668419 348.517325,160.438282 L348.798288,172.070942 L359.388889,186.546892 L355.554289,190 L342.60792,174.263347 L339.388889,155.395871 L343.519258,151 L350.667263,154.241047 Z" id="Path" fill="#2F2E41"></path>
                <path d="M358.488869,186 C358.488869,186 361.894119,186.56219 361.324676,187.956444 C360.755233,189.350698 359.327884,195.765749 355.639161,194.924218 C355.639161,194.924218 353.936181,194.922116 354.505266,193.806854 C354.847335,193.136055 355.227198,192.484531 355.643084,191.855316 L355.647716,188.228439 L358.488869,186 Z" id="Path" fill="#2F2E41"></path>
                <circle id="Oval" fill="#FFB8B8" cx="344.888889" cy="118.5" r="4.5"></circle>
                <polygon id="Path" fill="#FFB8B8" points="347.388889 122.006028 347.381008 128 341.388889 127.993044 342.145907 122"></polygon>
                <path d="M341.051553,125.372222 L342.566621,125 L347.301554,125.380073 C347.301554,125.380073 349.798412,127.883506 349.48513,128.508183 C349.171848,129.13286 347.590124,144.445185 347.590124,144.445185 L350.388889,155.38749 L340.388104,156 L335.388889,155.368648 L336.351117,135.680031 C336.351117,135.680031 334.17029,130.364165 336.98475,128.805016 C338.574393,127.970982 339.962421,126.799345 341.051553,125.372222 L341.051553,125.372222 Z" id="Path" fill="#575A89"></path>
                <polygon id="Path" fill="#575A89" points="346.388889 127.030858 333.146509 126.406946 330.21511 117 326.388889 117.297994 328.433591 129.737534 340.494743 134"></polygon>
                <circle id="Oval" fill="#2F2E41" cx="353.388889" cy="112" r="3"></circle>
                <path d="M351.194303,111.257964 C351.195123,110.35009 351.666727,109.49039 352.479289,108.915528 C353.29185,108.340665 354.359705,108.111244 355.388889,108.290421 C354.164861,107.790259 352.717141,107.944762 351.670446,108.687258 C350.623752,109.429753 350.165448,110.627331 350.4933,111.763215 C350.821153,112.899098 351.876474,113.769957 353.203875,114 C351.976254,113.499895 351.19324,112.431482 351.194303,111.257964 L351.194303,111.257964 Z" id="Path" fill="#2F2E41"></path>
                <path d="M348.31719,112.726883 L344.462371,112 L341.497846,113.902807 C340.009517,114.858058 339.200497,116.613309 339.426325,118.397178 L342.395407,117.626476 L343.060256,115.919205 L343.852091,117.248365 L347.064369,123 L350.316614,121.188728 L352.388889,117.863054 L348.31719,112.726883 Z" id="Path" fill="#2F2E41"></path>
                <polygon id="Rectangle" fill="#FFFFFF" transform="translate(153.374361, 56.892507) rotate(-60.150050) translate(-153.374361, -56.892507) " points="152.965044 15.3542724 153.783678 15.3542724 153.783678 98.430741 152.965044 98.430741"></polygon>
                <polygon id="Rectangle" fill="#FFFFFF" transform="translate(153.374355, 56.892510) rotate(-29.845530) translate(-153.374355, -56.892510) " points="111.836121 56.483193 194.91259 56.483193 194.91259 57.3018263 111.836121 57.3018263"></polygon>
                <polygon id="Rectangle" fill="#FFFFFF" transform="translate(296.460590, 67.536959) rotate(-45.000000) translate(-296.460590, -67.536959) " points="296.05123 51.0359492 296.869949 51.0359492 296.869949 84.037968 296.05123 84.037968"></polygon>
                <polygon id="Rectangle" fill="#FFFFFF" transform="translate(296.460590, 67.536959) rotate(-45.000000) translate(-296.460590, -67.536959) " points="279.95958 67.1275989 312.961599 67.1275989 312.961599 67.9463183 279.95958 67.9463183"></polygon>
            </g>
        </g>
    </g>
</svg>